<svg width="74" height="107" viewBox="0 0 74 107" fill="none" xmlns="http://www.w3.org/2000/svg">
<path d="M11.0599 70V63.51H12.2399V70H11.0599ZM14.0868 63.51H15.3768L18.3268 68.14H18.2368V63.51H19.4168V70H18.2168L15.0768 65.09H15.2668V70H14.0868V63.51ZM23.6347 70.14C23.0647 70.14 22.5681 70.005 22.1447 69.735C21.7247 69.4617 21.3981 69.0717 21.1647 68.565C20.9314 68.0583 20.8147 67.45 20.8147 66.74C20.8147 66.0067 20.9347 65.3917 21.1747 64.895C21.4181 64.395 21.7514 64.0183 22.1747 63.765C22.6014 63.5083 23.0881 63.38 23.6347 63.38C24.3914 63.38 24.9814 63.5633 25.4047 63.93C25.8314 64.2967 26.1047 64.7733 26.2247 65.36L24.9647 65.59C24.8614 65.25 24.6964 64.975 24.4697 64.765C24.2431 64.555 23.9647 64.45 23.6347 64.45C23.3447 64.45 23.0831 64.535 22.8497 64.705C22.6164 64.8717 22.4297 65.125 22.2897 65.465C22.1531 65.805 22.0847 66.23 22.0847 66.74C22.0847 67.22 22.1447 67.6333 22.2647 67.98C22.3881 68.3267 22.5647 68.5933 22.7947 68.78C23.0247 68.9667 23.3047 69.06 23.6347 69.06C24.0581 69.06 24.3847 68.9483 24.6147 68.725C24.8481 68.4983 24.9647 68.21 24.9647 67.86H26.2247C26.2247 68.3433 26.1197 68.755 25.9097 69.095C25.7031 69.4317 25.4064 69.69 25.0197 69.87C24.6331 70.05 24.1714 70.14 23.6347 70.14ZM27.6126 70V63.51H30.0126C30.7893 63.51 31.3843 63.6917 31.7976 64.055C32.2143 64.4183 32.4226 64.9 32.4226 65.5C32.4226 66.09 32.2143 66.5667 31.7976 66.93C31.3843 67.29 30.7893 67.47 30.0126 67.47H28.7926V70H27.6126ZM31.1226 70L29.4026 66.96H30.6626L32.6626 70H31.1226ZM28.7926 66.68H29.8926C30.326 66.68 30.6543 66.5817 30.8776 66.385C31.101 66.185 31.2126 65.9267 31.2126 65.61C31.2126 65.2867 31.111 65.0267 30.9076 64.83C30.7043 64.63 30.406 64.53 30.0126 64.53H28.7926V66.68ZM34.0382 70V63.51H38.2082V64.53H35.2182V66.24H38.0282V67.26H35.2182V68.97H38.2082V70H34.0382ZM39.2073 70L41.4173 63.51H42.8973L45.0173 70H43.7773L43.3273 68.6H40.9173L40.4573 70H39.2073ZM41.2173 67.71H43.0473L42.1373 64.92L41.2173 67.71ZM48.4371 70.14C47.9871 70.14 47.5721 70.0617 47.1921 69.905C46.8154 69.7483 46.5087 69.51 46.2721 69.19C46.0387 68.87 45.9137 68.4633 45.8971 67.97H47.0571C47.0571 68.22 47.1187 68.425 47.2421 68.585C47.3654 68.745 47.5304 68.865 47.7371 68.945C47.9471 69.0217 48.1771 69.06 48.4271 69.06C48.6671 69.06 48.8804 69.0283 49.0671 68.965C49.2571 68.9017 49.4054 68.8117 49.5121 68.695C49.6221 68.575 49.6771 68.4333 49.6771 68.27C49.6771 68.0533 49.6104 67.8833 49.4771 67.76C49.3471 67.6367 49.1371 67.5233 48.8471 67.42L47.5671 66.91C47.0671 66.7133 46.6837 66.485 46.4171 66.225C46.1504 65.965 46.0171 65.6067 46.0171 65.15C46.0171 64.6233 46.2254 64.1967 46.6421 63.87C47.0587 63.5433 47.6404 63.38 48.3871 63.38C49.1137 63.38 49.6754 63.55 50.0721 63.89C50.4687 64.2267 50.6937 64.6967 50.7471 65.3H49.5871C49.5437 65.0433 49.4271 64.8383 49.2371 64.685C49.0471 64.5283 48.7637 64.45 48.3871 64.45C48.0537 64.45 47.7904 64.52 47.5971 64.66C47.4037 64.7967 47.3071 64.97 47.3071 65.18C47.3071 65.36 47.3671 65.5033 47.4871 65.61C47.6104 65.7133 47.8004 65.8133 48.0571 65.91L49.4771 66.46C49.9571 66.6467 50.3254 66.8817 50.5821 67.165C50.8387 67.4483 50.9671 67.8033 50.9671 68.23C50.9671 68.62 50.8687 68.9583 50.6721 69.245C50.4754 69.5283 50.1887 69.7483 49.8121 69.905C49.4354 70.0617 48.9771 70.14 48.4371 70.14ZM52.544 70V63.51H56.714V64.53H53.724V66.24H56.534V67.26H53.724V68.97H56.714V70H52.544ZM60.6832 70.14C60.2332 70.14 59.8182 70.0617 59.4382 69.905C59.0615 69.7483 58.7548 69.51 58.5182 69.19C58.2848 68.87 58.1598 68.4633 58.1432 67.97H59.3032C59.3032 68.22 59.3648 68.425 59.4882 68.585C59.6115 68.745 59.7765 68.865 59.9832 68.945C60.1932 69.0217 60.4232 69.06 60.6732 69.06C60.9132 69.06 61.1265 69.0283 61.3132 68.965C61.5032 68.9017 61.6515 68.8117 61.7582 68.695C61.8682 68.575 61.9232 68.4333 61.9232 68.27C61.9232 68.0533 61.8565 67.8833 61.7232 67.76C61.5932 67.6367 61.3832 67.5233 61.0932 67.42L59.8132 66.91C59.3132 66.7133 58.9298 66.485 58.6632 66.225C58.3965 65.965 58.2632 65.6067 58.2632 65.15C58.2632 64.6233 58.4715 64.1967 58.8882 63.87C59.3048 63.5433 59.8865 63.38 60.6332 63.38C61.3598 63.38 61.9215 63.55 62.3182 63.89C62.7148 64.2267 62.9398 64.6967 62.9932 65.3H61.8332C61.7898 65.0433 61.6732 64.8383 61.4832 64.685C61.2932 64.5283 61.0098 64.45 60.6332 64.45C60.2998 64.45 60.0365 64.52 59.8432 64.66C59.6498 64.7967 59.5532 64.97 59.5532 65.18C59.5532 65.36 59.6132 65.5033 59.7332 65.61C59.8565 65.7133 60.0465 65.8133 60.3032 65.91L61.7232 66.46C62.2032 66.6467 62.5715 66.8817 62.8282 67.165C63.0848 67.4483 63.2132 67.8033 63.2132 68.23C63.2132 68.62 63.1148 68.9583 62.9182 69.245C62.7215 69.5283 62.4348 69.7483 62.0582 69.905C61.6815 70.0617 61.2232 70.14 60.6832 70.14ZM9.91531 86L12.1253 79.51H13.6053L15.7253 86H14.4853L14.0353 84.6H11.6253L11.1653 86H9.91531ZM11.9253 83.71H13.7553L12.8453 80.92L11.9253 83.71ZM18.0651 79.51V84.97H20.7351V86H16.8851V79.51H18.0651ZM21.8165 86V79.51H25.9865V80.53H22.9965V82.24H25.8065V83.26H22.9965V84.97H25.9865V86H21.8165ZM27.6956 86V79.51H30.0956C30.8723 79.51 31.4673 79.6917 31.8806 80.055C32.2973 80.4183 32.5056 80.9 32.5056 81.5C32.5056 82.09 32.2973 82.5667 31.8806 82.93C31.4673 83.29 30.8723 83.47 30.0956 83.47H28.8756V86H27.6956ZM31.2056 86L29.4856 82.96H30.7456L32.7456 86H31.2056ZM28.8756 82.68H29.9756C30.409 82.68 30.7373 82.5817 30.9606 82.385C31.184 82.185 31.2956 81.9267 31.2956 81.61C31.2956 81.2867 31.194 81.0267 30.9906 80.83C30.7873 80.63 30.489 80.53 30.0956 80.53H28.8756V82.68ZM33.2612 80.53V79.51H38.4612V80.53H36.1862L36.4512 80.26V86H35.2712V80.26L35.5362 80.53H33.2612ZM39.4237 79.51H40.7137L43.6637 84.14H43.5737V79.51H44.7537V86H43.5537L40.4137 81.09H40.6037V86H39.4237V79.51ZM46.6016 86V79.51H50.7716V80.53H47.7816V82.24H50.5916V83.26H47.7816V84.97H50.7716V86H46.6016ZM54.7408 86.14C54.2908 86.14 53.8758 86.0617 53.4958 85.905C53.1191 85.7483 52.8124 85.51 52.5758 85.19C52.3424 84.87 52.2174 84.4633 52.2008 83.97H53.3608C53.3608 84.22 53.4224 84.425 53.5458 84.585C53.6691 84.745 53.8341 84.865 54.0408 84.945C54.2508 85.0217 54.4808 85.06 54.7308 85.06C54.9708 85.06 55.1841 85.0283 55.3708 84.965C55.5608 84.9017 55.7091 84.8117 55.8158 84.695C55.9258 84.575 55.9808 84.4333 55.9808 84.27C55.9808 84.0533 55.9141 83.8833 55.7808 83.76C55.6508 83.6367 55.4408 83.5233 55.1508 83.42L53.8708 82.91C53.3708 82.7133 52.9874 82.485 52.7208 82.225C52.4541 81.965 52.3208 81.6067 52.3208 81.15C52.3208 80.6233 52.5291 80.1967 52.9458 79.87C53.3624 79.5433 53.9441 79.38 54.6908 79.38C55.4174 79.38 55.9791 79.55 56.3758 79.89C56.7724 80.2267 56.9974 80.6967 57.0508 81.3H55.8908C55.8474 81.0433 55.7308 80.8383 55.5408 80.685C55.3508 80.5283 55.0674 80.45 54.6908 80.45C54.3574 80.45 54.0941 80.52 53.9008 80.66C53.7074 80.7967 53.6108 80.97 53.6108 81.18C53.6108 81.36 53.6708 81.5033 53.7908 81.61C53.9141 81.7133 54.1041 81.8133 54.3608 81.91L55.7808 82.46C56.2608 82.6467 56.6291 82.8817 56.8858 83.165C57.1424 83.4483 57.2708 83.8033 57.2708 84.23C57.2708 84.62 57.1724 84.9583 56.9758 85.245C56.7791 85.5283 56.4924 85.7483 56.1158 85.905C55.7391 86.0617 55.2808 86.14 54.7408 86.14ZM61.1177 86.14C60.6677 86.14 60.2527 86.0617 59.8727 85.905C59.4961 85.7483 59.1894 85.51 58.9527 85.19C58.7194 84.87 58.5944 84.4633 58.5777 83.97H59.7377C59.7377 84.22 59.7994 84.425 59.9227 84.585C60.0461 84.745 60.2111 84.865 60.4177 84.945C60.6277 85.0217 60.8577 85.06 61.1077 85.06C61.3477 85.06 61.5611 85.0283 61.7477 84.965C61.9377 84.9017 62.0861 84.8117 62.1927 84.695C62.3027 84.575 62.3577 84.4333 62.3577 84.27C62.3577 84.0533 62.2911 83.8833 62.1577 83.76C62.0277 83.6367 61.8177 83.5233 61.5277 83.42L60.2477 82.91C59.7477 82.7133 59.3644 82.485 59.0977 82.225C58.8311 81.965 58.6977 81.6067 58.6977 81.15C58.6977 80.6233 58.9061 80.1967 59.3227 79.87C59.7394 79.5433 60.3211 79.38 61.0677 79.38C61.7944 79.38 62.3561 79.55 62.7527 79.89C63.1494 80.2267 63.3744 80.6967 63.4277 81.3H62.2677C62.2244 81.0433 62.1077 80.8383 61.9177 80.685C61.7277 80.5283 61.4444 80.45 61.0677 80.45C60.7344 80.45 60.4711 80.52 60.2777 80.66C60.0844 80.7967 59.9877 80.97 59.9877 81.18C59.9877 81.36 60.0477 81.5033 60.1677 81.61C60.2911 81.7133 60.4811 81.8133 60.7377 81.91L62.1577 82.46C62.6377 82.6467 63.0061 82.8817 63.2627 83.165C63.5194 83.4483 63.6477 83.8033 63.6477 84.23C63.6477 84.62 63.5494 84.9583 63.3527 85.245C63.1561 85.5283 62.8694 85.7483 62.4927 85.905C62.1161 86.0617 61.6577 86.14 61.1177 86.14Z" fill="black"/>
<rect x="8" width="57" height="57" rx="5" fill="#001E4E"/>
<path d="M47.56 31.2987L39.89 18.5787C39.5798 18.0935 39.1525 17.6942 38.6475 17.4177C38.1424 17.1411 37.5758 16.9961 37 16.9961C36.4241 16.9961 35.8576 17.1411 35.3525 17.4177C34.8474 17.6942 34.4201 18.0935 34.11 18.5787L26.44 31.2987C26.169 31.7504 26.0218 32.2654 26.013 32.792C26.0042 33.3186 26.1342 33.8383 26.39 34.2987C26.6857 34.817 27.1136 35.2474 27.6302 35.5461C28.1467 35.8448 28.7333 36.001 29.33 35.9987H44.67C45.2627 36.005 45.8467 35.8549 46.3629 35.5634C46.879 35.272 47.3092 34.8495 47.61 34.3387C47.8732 33.8735 48.0074 33.3464 47.9986 32.8119C47.9898 32.2774 47.8384 31.755 47.56 31.2987ZM45.86 33.3487C45.7398 33.5553 45.5654 33.7251 45.3556 33.8397C45.1459 33.9542 44.9088 34.0092 44.67 33.9987H29.33C29.0912 34.0092 28.8541 33.9542 28.6443 33.8397C28.4346 33.7251 28.2602 33.5553 28.14 33.3487C28.0522 33.1967 28.006 33.0243 28.006 32.8487C28.006 32.6732 28.0522 32.5007 28.14 32.3487L35.82 19.6187C35.958 19.4364 36.1363 19.2886 36.3411 19.1868C36.5458 19.085 36.7713 19.032 37 19.032C37.2286 19.032 37.4541 19.085 37.6589 19.1868C37.8636 19.2886 38.042 19.4364 38.18 19.6187L45.85 32.3387C45.9411 32.491 45.9901 32.6649 45.9919 32.8424C45.9936 33.0199 45.9481 33.1946 45.86 33.3487Z" fill="white"/>
<path d="M37 32C37.5523 32 38 31.5523 38 31C38 30.4477 37.5523 30 37 30C36.4477 30 36 30.4477 36 31C36 31.5523 36.4477 32 37 32Z" fill="white"/>
<path d="M37 23C36.7348 23 36.4804 23.1054 36.2929 23.2929C36.1054 23.4804 36 23.7348 36 24V28C36 28.2652 36.1054 28.5196 36.2929 28.7071C36.4804 28.8946 36.7348 29 37 29C37.2652 29 37.5196 28.8946 37.7071 28.7071C37.8946 28.5196 38 28.2652 38 28V24C38 23.7348 37.8946 23.4804 37.7071 23.2929C37.5196 23.1054 37.2652 23 37 23Z" fill="white"/>
</svg>
