<svg width="122" height="32" viewBox="0 0 122 32" fill="none" xmlns="http://www.w3.org/2000/svg">
<path fill-rule="evenodd" clip-rule="evenodd" d="M12.5042 21.5265L10.6585 23.7998L8.49704 25.6485L4.78335 28.3167L0 31.9988H60.5198L52.9193 22.6693L48.2278 16.4394L44.2317 10.9329L41.635 7.44528L38.8218 2.90792H37.3735L34.5869 6.86555L30.3955 11.6173L28.5486 13.801L26.5372 15.7724L24.495 13.162L23.597 11.5587L21.5165 10.3768L19.277 13.8756L15.7999 18.2212L12.5042 21.5265ZM38.6028 4.79768L40.071 7.56127L43.2533 12.2446L47.9527 18.5416C48.1734 18.8374 47.8527 19.2359 47.528 19.0693C47.2346 18.9187 46.9229 19.2372 47.0683 19.539L47.2479 19.9121C47.4772 20.3882 46.9091 20.8469 46.5122 20.5062L46.0107 20.0756C45.991 20.0588 45.9734 20.0396 45.958 20.0185L45.7674 19.7567C45.5843 19.5053 45.1985 19.7045 45.286 20.0052C45.2947 20.035 45.3082 20.0632 45.3259 20.0885L46.6459 21.9772C46.6573 21.9935 46.6673 22.0107 46.6757 22.0288C46.8387 22.3786 46.397 22.6919 46.1359 22.4117L45.776 22.0254C45.7612 22.0096 45.7476 21.9926 45.7354 21.9746L44.2195 19.7437C44.1817 19.6881 44.1369 19.6379 44.0863 19.5944L42.8956 18.5723C42.8315 18.5172 42.7768 18.4515 42.7339 18.3779L41.7099 16.6197C41.6782 16.5653 41.6532 16.507 41.6355 16.4462L41.4857 15.9319C41.4555 15.8282 41.3626 15.7572 41.2571 15.7572C41.1113 15.7572 40.9996 15.8902 41.0211 16.0383L41.1883 17.1863C41.201 17.2736 41.2284 17.3581 41.2691 17.4358L43.2533 21.2211L44.3703 23.1387C44.3833 23.1612 44.3936 23.1851 44.4009 23.2102L44.4046 23.2231C44.4821 23.4892 44.2053 23.7173 43.9689 23.582C43.9466 23.5692 43.9259 23.5536 43.9074 23.5354L42.3774 22.0344C42.3553 22.0126 42.3351 21.9888 42.3172 21.9632C42.0064 21.5184 41.3242 21.8223 41.4285 22.3591L41.4348 22.3919L41.5644 22.837C41.6132 23.0043 41.4911 23.1725 41.321 23.1725C41.2488 23.1725 41.18 23.141 41.1318 23.0858L39.8436 21.6114L39.4251 21.2221C39.2627 21.0711 39.033 21.0232 38.8261 21.0972C38.6136 21.1732 38.4605 21.3652 38.43 21.594L38.1788 23.4757C38.1713 23.5322 38.1463 23.5849 38.1075 23.6258C37.9688 23.7725 37.7276 23.7118 37.6705 23.516L37.586 23.2258C37.5757 23.1904 37.5612 23.1565 37.5427 23.1248L36.6089 21.5215C36.5004 21.3352 36.3045 21.2211 36.093 21.2211C35.8815 21.2211 35.6855 21.3353 35.577 21.5216C35.5424 21.581 35.4983 21.634 35.4466 21.6784L34.7472 22.2788C34.6605 22.3532 34.5914 22.4469 34.5452 22.5528L33.9571 23.8991C33.9416 23.9346 33.9184 23.966 33.8893 23.991C33.7266 24.1307 33.4789 24.0119 33.4789 23.7941V23.5972C33.4789 23.5743 33.4811 23.5515 33.4854 23.529L33.9095 21.345C33.9251 21.2642 33.9172 21.1805 33.8867 21.1043C33.7681 20.8079 33.3821 20.753 33.1894 21.0051L33.156 21.0487C33.0728 21.1575 32.9455 21.2211 32.8108 21.2211H32.7272C32.492 21.2211 32.2777 21.3597 32.1763 21.5775L31.5191 22.9877C31.4637 23.1067 31.3675 23.2006 31.249 23.2515C30.9042 23.3995 30.5238 23.1396 30.5238 22.756V21.4889C30.5238 21.3155 30.5811 21.1473 30.6864 21.0117L32.7832 18.3116C32.8657 18.2055 32.8998 18.0682 32.8772 17.9345C32.8097 17.5368 32.3199 17.4019 32.0674 17.7114L31.5371 18.3616C31.4685 18.4456 31.3832 18.5136 31.2868 18.5609L30.0229 19.1809C29.9043 19.239 29.8028 19.3284 29.7287 19.4397L29.0694 20.4302C28.8639 20.7389 28.4616 20.8333 28.1458 20.647L28.0603 20.5965C27.8968 20.5 27.7961 20.3212 27.7961 20.1276C27.7961 19.7298 27.3916 19.4681 27.0419 19.6397L25.2456 20.5208C25.0026 20.64 24.7371 20.4069 24.8143 20.142C24.8317 20.0821 24.8659 20.0289 24.9125 19.9888L27.9605 17.3723C28.0023 17.3364 28.0401 17.2959 28.0733 17.2516L30.0692 14.5863L31.381 12.334C31.4155 12.2747 31.4578 12.2205 31.5065 12.1728L33.8852 9.84516C33.9173 9.8137 33.9467 9.77936 33.9729 9.74253L35.5247 7.56127L37.4661 4.73097C37.5917 4.54793 37.7962 4.43902 38.0143 4.43902C38.2596 4.43902 38.4854 4.57659 38.6028 4.79768ZM20.7409 14.2211L21.4496 13.2322C21.6172 12.9982 21.8833 12.8601 22.1663 12.8601C22.4904 12.8601 22.7888 13.0409 22.9454 13.3322L23.3365 14.0599C23.3941 14.1669 23.4639 14.2666 23.5445 14.3566L24.6424 15.582L24.9034 15.8856C25.5257 16.6091 25.3485 17.7359 24.536 18.2218L24.4588 18.268C24.4187 18.2919 24.3806 18.3194 24.345 18.3499L24.1607 18.5082C24.0102 18.6374 23.7977 18.658 23.6263 18.5599C23.3853 18.4219 23.0808 18.5239 22.9655 18.7813L22.7812 19.1928C22.629 19.5325 22.1663 19.5533 21.9859 19.2285L21.9764 19.2115C21.9556 19.1739 21.9416 19.1327 21.9352 19.0899C21.8802 18.7219 21.3798 18.6797 21.2671 19.0336L21.2374 19.127C21.2315 19.1454 21.227 19.1642 21.224 19.1833L21.0194 20.468C20.9971 20.6077 20.9233 20.7333 20.8132 20.8186L20.7197 20.8912C20.4846 21.0734 20.1452 20.9765 20.0355 20.6959C19.9116 20.379 19.5058 20.3072 19.2856 20.5632L18.4249 21.5641C18.3437 21.6585 18.2494 21.7401 18.1451 21.8062L15.6863 23.3657C15.6425 23.3935 15.6028 23.4278 15.5687 23.4675L15.113 23.9974C14.8671 24.2833 14.4126 24.0394 14.5011 23.669L14.5101 23.6315C14.5706 23.3782 14.3439 23.1514 14.0988 23.2198C13.8284 23.2953 13.5934 23.0154 13.706 22.752L14.11 21.8077C14.1506 21.7127 14.2082 21.6263 14.2796 21.5529L16.782 18.9845L20.7409 14.2211Z" fill="black"/>
<path d="M53.7951 13.6199L58.3433 0.23446H60.3436L64.7864 13.6199H63.0598L61.9439 10.1883H56.6798L55.5217 13.6199H53.7951ZM57.1009 8.8881H61.5227L59.3118 2.25932L57.1009 8.8881Z" fill="black"/>
<path d="M67.4652 13.6199V0.23446H72.0765C73.5855 0.23446 74.7261 0.600357 75.4981 1.33215C76.2772 2.05684 76.6667 3.01243 76.6667 4.19894C76.6667 5.37123 76.2772 6.32327 75.4981 7.05506C74.7261 7.77975 73.5855 8.1421 72.0765 8.1421H69.1076V13.6199H67.4652ZM74.877 13.6199L71.0868 7.54529H72.8766L77.0036 13.6199H74.877ZM69.1076 6.96981H71.9501C72.9398 6.96981 73.6908 6.72469 74.2032 6.23446C74.7225 5.73712 74.9822 5.09414 74.9822 4.30551C74.9822 3.49556 74.7331 2.85258 74.2347 2.37656C73.7434 1.90053 73.024 1.66252 72.0765 1.66252H69.1076V6.96981Z" fill="black"/>
<path d="M84.9482 13.8757C83.7831 13.8757 82.7794 13.5808 81.9372 12.9911C81.0949 12.3943 80.4457 11.5702 79.9895 10.5187C79.5333 9.46004 79.3052 8.23446 79.3052 6.84192C79.3052 5.35702 79.5508 4.10657 80.0421 3.09059C80.5405 2.0746 81.2143 1.30728 82.0635 0.788633C82.9198 0.262878 83.8814 0 84.9482 0C86.359 0 87.4925 0.358792 88.3488 1.07638C89.2121 1.78686 89.8052 2.71403 90.128 3.8579L88.3593 4.22025C88.0856 3.38899 87.6469 2.72824 87.0433 2.23801C86.4467 1.74068 85.7484 1.49201 84.9482 1.49201C84.2534 1.49201 83.6112 1.69449 83.0216 2.09947C82.439 2.49733 81.9688 3.09414 81.6108 3.88988C81.2529 4.68561 81.0739 5.66963 81.0739 6.84192C81.0739 7.90764 81.2143 8.85613 81.495 9.68739C81.7828 10.5187 82.2109 11.1723 82.7794 11.6483C83.355 12.1243 84.0779 12.3623 84.9482 12.3623C85.994 12.3623 86.8222 12.0782 87.4329 11.5098C88.0505 10.9414 88.3593 10.1954 88.3593 9.27176H90.1491C90.1491 10.2309 89.9315 11.0551 89.4964 11.7442C89.0612 12.4263 88.4506 12.952 87.6645 13.3215C86.8854 13.6909 85.98 13.8757 84.9482 13.8757Z" fill="black"/>
<path d="M91.271 1.66252V0.23446H101.567V1.66252H96.8614L97.2299 1.27886V13.6199H95.5875V1.27886L95.956 1.66252H91.271Z" fill="black"/>
<path d="M103.82 13.6199V0.23446H105.462V13.6199H103.82Z" fill="black"/>
<path d="M114.312 13.8757C113.147 13.8757 112.143 13.5808 111.301 12.9911C110.458 12.3943 109.809 11.5702 109.353 10.5187C108.897 9.46004 108.669 8.23446 108.669 6.84192C108.669 5.35702 108.914 4.10657 109.406 3.09059C109.904 2.0746 110.578 1.30728 111.427 0.788633C112.283 0.262878 113.245 0 114.312 0C115.722 0 116.856 0.358792 117.712 1.07638C118.576 1.78686 119.169 2.71403 119.492 3.8579L117.723 4.22025C117.449 3.38899 117.01 2.72824 116.407 2.23801C115.81 1.74068 115.112 1.49201 114.312 1.49201C113.617 1.49201 112.975 1.69449 112.385 2.09947C111.803 2.49733 111.332 3.09414 110.974 3.88988C110.616 4.68561 110.437 5.66963 110.437 6.84192C110.437 7.90764 110.578 8.85613 110.858 9.68739C111.146 10.5187 111.574 11.1723 112.143 11.6483C112.718 12.1243 113.441 12.3623 114.312 12.3623C115.357 12.3623 116.186 12.0782 116.796 11.5098C117.414 10.9414 117.723 10.1954 117.723 9.27176H119.513C119.513 10.2309 119.295 11.0551 118.86 11.7442C118.425 12.4263 117.814 12.952 117.028 13.3215C116.249 13.6909 115.343 13.8757 114.312 13.8757Z" fill="black"/>
<path d="M72.1421 18.6146H73.995L77.4272 30.5293H76.9429L80.4593 20H81.5752L85.0495 30.4441H84.5863L88.5238 18.6146H90.3557L85.6812 32H83.9546L80.9014 22.9201H81.2173L78.0588 32H76.3322L72.1421 18.6146Z" fill="black"/>
<path d="M92.7677 32V18.6146H100.916V20.0426H94.4101V24.54H100.537V25.968H94.4101V30.5506H100.916V32H92.7677Z" fill="black"/>
<path d="M106.255 18.6146V30.5506H112.15V32H104.612V18.6146H106.255Z" fill="black"/>
<path d="M116.104 18.6146V30.5506H122V32H114.462V18.6146H116.104Z" fill="black"/>
</svg>
