<svg width="93" height="32" viewBox="0 0 93 32" fill="none" xmlns="http://www.w3.org/2000/svg">
<path d="M40 14.0662L43.668 3.1905H45.2812L48.8643 14.0662H47.4718L46.5718 11.278H42.3265L41.3925 14.0662H40ZM42.6661 10.2216H46.2322L44.4491 4.8357L42.6661 10.2216Z" fill="#001E4E"/>
<path d="M51.0247 14.0662V3.1905H54.7436C55.9606 3.1905 56.8804 3.48779 57.5031 4.08237C58.1314 4.67118 58.4456 5.4476 58.4456 6.41164C58.4456 7.36412 58.1314 8.13766 57.5031 8.73224C56.8804 9.32105 55.9606 9.61546 54.7436 9.61546H52.3492V14.0662H51.0247ZM57.0021 14.0662L53.9455 9.13055H55.3889L58.7173 14.0662H57.0021ZM52.3492 8.66297H54.6417C55.4398 8.66297 56.0455 8.46381 56.4587 8.0655C56.8776 7.66141 57.087 7.13899 57.087 6.49822C57.087 5.84014 56.8861 5.31772 56.4842 4.93095C56.088 4.54418 55.5078 4.3508 54.7436 4.3508H52.3492V8.66297Z" fill="#001E4E"/>
<path d="M65.1244 14.274C64.1848 14.274 63.3753 14.0344 62.6961 13.5553C62.0168 13.0704 61.4932 12.4008 61.1253 11.5464C60.7574 10.6863 60.5734 9.6905 60.5734 8.55906C60.5734 7.35258 60.7715 6.33659 61.1678 5.5111C61.5696 4.68561 62.1131 4.06217 62.798 3.64076C63.4886 3.21359 64.264 3 65.1244 3C66.2622 3 67.1764 3.29152 67.8669 3.87456C68.5632 4.45182 69.0415 5.20515 69.3019 6.13455L67.8754 6.42895C67.6547 5.75355 67.3009 5.2167 66.8141 4.81839C66.3329 4.4143 65.7697 4.21226 65.1244 4.21226C64.564 4.21226 64.0461 4.37678 63.5706 4.70582C63.1008 5.02908 62.7216 5.51399 62.4329 6.16052C62.1442 6.80706 61.9999 7.60657 61.9999 8.55906C61.9999 9.42496 62.1131 10.1956 62.3395 10.871C62.5716 11.5464 62.9169 12.0775 63.3754 12.4643C63.8395 12.851 64.4225 13.0444 65.1244 13.0444C65.9678 13.0444 66.6358 12.8135 67.1282 12.3517C67.6264 11.8899 67.8754 11.2837 67.8754 10.5333H69.3189C69.3189 11.3126 69.1434 11.9822 68.7924 12.5422C68.4415 13.0964 67.949 13.5235 67.315 13.8237C66.6867 14.1239 65.9565 14.274 65.1244 14.274Z" fill="#001E4E"/>
<path d="M70.2236 4.3508V3.1905H78.5276V4.3508H74.7322L75.0294 4.03908V14.0662H73.7048V4.03908L74.002 4.3508H70.2236Z" fill="#001E4E"/>
<path d="M80.3442 14.0662V3.1905H81.6687V14.0662H80.3442Z" fill="#001E4E"/>
<path d="M88.8056 14.274C87.8659 14.274 87.0565 14.0344 86.3772 13.5553C85.698 13.0704 85.1744 12.4008 84.8064 11.5464C84.4385 10.6863 84.2545 9.6905 84.2545 8.55906C84.2545 7.35258 84.4527 6.33659 84.8489 5.5111C85.2508 4.68561 85.7942 4.06217 86.4791 3.64076C87.1697 3.21359 87.9452 3 88.8056 3C89.9433 3 90.8575 3.29152 91.5481 3.87456C92.2443 4.45182 92.7226 5.20515 92.983 6.13455L91.5566 6.42895C91.3358 5.75355 90.982 5.2167 90.4952 4.81839C90.0141 4.4143 89.4509 4.21226 88.8056 4.21226C88.2452 4.21226 87.7273 4.37678 87.2518 4.70582C86.7819 5.02908 86.4027 5.51399 86.114 6.16052C85.8253 6.80706 85.681 7.60657 85.681 8.55906C85.681 9.42496 85.7942 10.1956 86.0206 10.871C86.2527 11.5464 86.598 12.0775 87.0565 12.4643C87.5206 12.851 88.1037 13.0444 88.8056 13.0444C89.649 13.0444 90.3169 12.8135 90.8094 12.3517C91.3075 11.8899 91.5566 11.2837 91.5566 10.5333H93C93 11.3126 92.8245 11.9822 92.4736 12.5422C92.1226 13.0964 91.6302 13.5235 90.9962 13.8237C90.3679 14.1239 89.6377 14.274 88.8056 14.274Z" fill="#001E4E"/>
<path d="M52.377 18.1243H53.8714L56.6394 27.8051H56.2488L59.0847 19.25H59.9847L62.7867 27.7358H62.4131L65.5886 18.1243H67.066L63.2961 29H61.9036L59.4413 21.6226H59.696L57.1488 29H55.7563L52.377 18.1243Z" fill="#001E4E"/>
<path d="M69.0113 29V18.1243H75.5831V19.2846H70.3358V22.9387H75.2774V24.099H70.3358V27.8224H75.5831V29H69.0113Z" fill="#001E4E"/>
<path d="M79.8883 18.1243V27.8224H84.6431V29H78.5637V18.1243H79.8883Z" fill="#001E4E"/>
<path d="M87.8318 18.1243V27.8224H92.5866V29H86.5072V18.1243H87.8318Z" fill="#001E4E"/>
<path d="M8 17.7824L0.699539 14.1322L0.313477 13.5V12.3739L8 16.2172V17.7824Z" fill="#001E4E"/>
<path d="M19.4693 23.5171L31.106 29.3354H31.5002L31.6874 27.9673H31.5002L20.9522 22.6932L19.4693 23.5171Z" fill="#001E4E"/>
<path d="M24 17.7824L31.6865 13.9391V13.1563L31.5002 12.5L31.1058 12.6643L24 16.2172V17.7824Z" fill="#001E4E"/>
<path d="M11.61 23.9774L10.1827 23.1258L0.711862 27.8612L0.312745 28L0.711985 29.2824H1L11.61 23.9774Z" fill="#001E4E"/>
<path fill-rule="evenodd" clip-rule="evenodd" d="M16.6168 4.32696C16.5381 4.29025 16.4474 4.28941 16.368 4.32467L8.37816 7.87573C8.26982 7.92388 8.2 8.03132 8.2 8.14987V21.5C8.2 21.8866 7.8866 22.2 7.5 22.2C7.1134 22.2 6.8 21.8866 6.8 21.5V8.14987C6.8 7.47805 7.19565 6.86925 7.80956 6.59639L15.7995 3.04533C16.249 2.84554 16.763 2.85027 17.2088 3.0583L23.7189 6.09635C24.3174 6.37566 24.7 6.97637 24.7 7.63686V20.882C24.7 21.5259 24.3362 22.1145 23.7602 22.4025L15.7661 26.3994C14.6333 26.9659 13.3011 26.139 13.3059 24.8725L13.354 12.1429C13.3566 11.4748 13.7501 10.8702 14.36 10.5974L22.3734 7.01341L16.6168 4.32696ZM23.3 8.13246C23.2953 8.13469 23.2906 8.13687 23.2858 8.139L14.9316 11.8754C14.8239 11.9236 14.7545 12.0303 14.754 12.1482L14.7059 24.8778C14.705 25.1013 14.9401 25.2472 15.14 25.1472L23.1342 21.1503C23.2358 21.0995 23.3 20.9956 23.3 20.882V8.13246Z" fill="#001E4E"/>
<path fill-rule="evenodd" clip-rule="evenodd" d="M28 1.4H4C2.56406 1.4 1.4 2.56406 1.4 4V28C1.4 29.4359 2.56406 30.6 4 30.6H28C29.4359 30.6 30.6 29.4359 30.6 28V4C30.6 2.56406 29.4359 1.4 28 1.4ZM4 0C1.79086 0 0 1.79086 0 4V28C0 30.2091 1.79086 32 4 32H28C30.2091 32 32 30.2091 32 28V4C32 1.79086 30.2091 0 28 0H4Z" fill="#001E4E"/>
</svg>
