<svg width="17" height="16" viewBox="0 0 17 16" fill="none" xmlns="http://www.w3.org/2000/svg">
<path d="M9.23437 0.160815L9.48787 0.414316C9.65568 0.582126 9.65568 0.853479 9.48787 1.02129L3.11465 7.39094H16.5359C16.7716 7.39094 16.9644 7.58374 16.9644 7.81939V8.17644C16.9644 8.41208 16.7716 8.60489 16.5359 8.60489H3.11465L9.48787 14.9781C9.65568 15.1459 9.65568 15.4173 9.48787 15.5851L9.23437 15.8386C9.06656 16.0064 8.79521 16.0064 8.6274 15.8386L1.09021 8.30497C0.922403 8.13716 0.922403 7.86581 1.09021 7.698L8.6274 0.164386C8.79878 -0.00699487 9.06656 -0.00699507 9.23437 0.160815Z" fill="black"/>
</svg>
