<svg width="74" height="107" viewBox="0 0 74 107" fill="none" xmlns="http://www.w3.org/2000/svg">
<path d="M13.4476 70V63.51H14.6276V70H13.4476ZM16.4945 63.51H18.1845L20.0145 67.48H19.9145L21.7445 63.51H23.3745V70H22.1845V64.87H22.3645L20.3445 69.29H19.5745L17.5645 64.89H17.6745V70H16.4945V63.51ZM25.2047 70V63.51H27.4947C28.2247 63.51 28.793 63.69 29.1997 64.05C29.6097 64.41 29.8147 64.92 29.8147 65.58C29.8147 66.2333 29.6097 66.74 29.1997 67.1C28.793 67.46 28.2247 67.64 27.4947 67.64H26.3947V70H25.2047ZM26.3947 66.61H27.4947C27.8614 66.61 28.138 66.5133 28.3247 66.32C28.5114 66.1267 28.6047 65.88 28.6047 65.58C28.6047 65.2733 28.5114 65.0217 28.3247 64.825C28.138 64.6283 27.8614 64.53 27.4947 64.53H26.3947V66.61ZM31.0355 70V63.51H33.4355C34.2121 63.51 34.8071 63.6917 35.2205 64.055C35.6371 64.4183 35.8455 64.9 35.8455 65.5C35.8455 66.09 35.6371 66.5667 35.2205 66.93C34.8071 67.29 34.2121 67.47 33.4355 67.47H32.2155V70H31.0355ZM34.5455 70L32.8255 66.96H34.0855L36.0855 70H34.5455ZM32.2155 66.68H33.3155C33.7488 66.68 34.0771 66.5817 34.3005 66.385C34.5238 66.185 34.6355 65.9267 34.6355 65.61C34.6355 65.2867 34.5338 65.0267 34.3305 64.83C34.1271 64.63 33.8288 64.53 33.4355 64.53H32.2155V66.68ZM39.951 70.14C39.3743 70.14 38.8643 70.0133 38.421 69.76C37.981 69.5067 37.636 69.1283 37.386 68.625C37.136 68.1217 37.011 67.4967 37.011 66.75C37.011 65.99 37.136 65.3617 37.386 64.865C37.636 64.365 37.981 63.9933 38.421 63.75C38.8643 63.5033 39.3743 63.38 39.951 63.38C40.531 63.38 41.0427 63.5067 41.486 63.76C41.9293 64.01 42.276 64.385 42.526 64.885C42.776 65.385 42.901 66.0067 42.901 66.75C42.901 67.5067 42.776 68.1367 42.526 68.64C42.276 69.1433 41.9293 69.52 41.486 69.77C41.0427 70.0167 40.531 70.14 39.951 70.14ZM39.951 69.07C40.481 69.07 40.901 68.87 41.211 68.47C41.5243 68.07 41.681 67.4933 41.681 66.74C41.681 66.0133 41.5243 65.4483 41.211 65.045C40.901 64.6417 40.481 64.44 39.951 64.44C39.431 64.44 39.0143 64.6433 38.701 65.05C38.3877 65.4533 38.231 66.02 38.231 66.75C38.231 67.5 38.3877 68.075 38.701 68.475C39.0143 68.8717 39.431 69.07 39.951 69.07ZM46.1609 68.71L47.8209 63.51H49.0609L46.8309 70H45.5909L43.3909 63.51H44.6409L46.2809 68.71H46.1609ZM50.1563 70V63.51H54.3263V64.53H51.3363V66.24H54.1463V67.26H51.3363V68.97H54.3263V70H50.1563ZM58.2955 70.14C57.8455 70.14 57.4305 70.0617 57.0505 69.905C56.6738 69.7483 56.3671 69.51 56.1305 69.19C55.8971 68.87 55.7721 68.4633 55.7555 67.97H56.9155C56.9155 68.22 56.9771 68.425 57.1005 68.585C57.2238 68.745 57.3888 68.865 57.5955 68.945C57.8055 69.0217 58.0355 69.06 58.2855 69.06C58.5255 69.06 58.7388 69.0283 58.9255 68.965C59.1155 68.9017 59.2638 68.8117 59.3705 68.695C59.4805 68.575 59.5355 68.4333 59.5355 68.27C59.5355 68.0533 59.4688 67.8833 59.3355 67.76C59.2055 67.6367 58.9955 67.5233 58.7055 67.42L57.4255 66.91C56.9255 66.7133 56.5421 66.485 56.2755 66.225C56.0088 65.965 55.8755 65.6067 55.8755 65.15C55.8755 64.6233 56.0838 64.1967 56.5005 63.87C56.9171 63.5433 57.4988 63.38 58.2455 63.38C58.9721 63.38 59.5338 63.55 59.9305 63.89C60.3271 64.2267 60.5521 64.6967 60.6055 65.3H59.4455C59.4021 65.0433 59.2855 64.8383 59.0955 64.685C58.9055 64.5283 58.6221 64.45 58.2455 64.45C57.9121 64.45 57.6488 64.52 57.4555 64.66C57.2621 64.7967 57.1655 64.97 57.1655 65.18C57.1655 65.36 57.2255 65.5033 57.3455 65.61C57.4688 65.7133 57.6588 65.8133 57.9155 65.91L59.3355 66.46C59.8155 66.6467 60.1838 66.8817 60.4405 67.165C60.6971 67.4483 60.8255 67.8033 60.8255 68.23C60.8255 68.62 60.7271 68.9583 60.5305 69.245C60.3338 69.5283 60.0471 69.7483 59.6705 69.905C59.2938 70.0617 58.8355 70.14 58.2955 70.14ZM21.9583 86V79.51H24.5783C25.0783 79.51 25.4933 79.5883 25.8233 79.745C26.1533 79.8983 26.4 80.105 26.5633 80.365C26.7267 80.625 26.8083 80.9133 26.8083 81.23C26.8083 81.5967 26.705 81.91 26.4983 82.17C26.295 82.43 26.0083 82.6133 25.6383 82.72C25.8817 82.77 26.1 82.8617 26.2933 82.995C26.4867 83.1283 26.6383 83.2967 26.7483 83.5C26.8617 83.7033 26.9183 83.9367 26.9183 84.2C26.9183 84.4067 26.8817 84.615 26.8083 84.825C26.7383 85.035 26.615 85.23 26.4383 85.41C26.265 85.5867 26.0267 85.73 25.7233 85.84C25.4233 85.9467 25.045 86 24.5883 86H21.9583ZM23.1383 84.97H24.5583C24.935 84.97 25.21 84.895 25.3833 84.745C25.56 84.5917 25.6483 84.3867 25.6483 84.13C25.6483 83.8733 25.5583 83.6683 25.3783 83.515C25.1983 83.3583 24.925 83.28 24.5583 83.28H23.1383V84.97ZM23.1383 80.53V82.25H24.5283C24.8783 82.25 25.1433 82.1733 25.3233 82.02C25.5067 81.8633 25.5983 81.65 25.5983 81.38C25.5983 81.1233 25.5083 80.9183 25.3283 80.765C25.1517 80.6083 24.8883 80.53 24.5383 80.53H23.1383ZM29.6227 79.51V84.97H32.2927V86H28.4427V79.51H29.6227ZM35.8641 86.14C35.2874 86.14 34.7774 86.0133 34.3341 85.76C33.8941 85.5067 33.5491 85.1283 33.2991 84.625C33.0491 84.1217 32.9241 83.4967 32.9241 82.75C32.9241 81.99 33.0491 81.3617 33.2991 80.865C33.5491 80.365 33.8941 79.9933 34.3341 79.75C34.7774 79.5033 35.2874 79.38 35.8641 79.38C36.4441 79.38 36.9558 79.5067 37.3991 79.76C37.8424 80.01 38.1891 80.385 38.4391 80.885C38.6891 81.385 38.8141 82.0067 38.8141 82.75C38.8141 83.5067 38.6891 84.1367 38.4391 84.64C38.1891 85.1433 37.8424 85.52 37.3991 85.77C36.9558 86.0167 36.4441 86.14 35.8641 86.14ZM35.8641 85.07C36.3941 85.07 36.8141 84.87 37.1241 84.47C37.4374 84.07 37.5941 83.4933 37.5941 82.74C37.5941 82.0133 37.4374 81.4483 37.1241 81.045C36.8141 80.6417 36.3941 80.44 35.8641 80.44C35.3441 80.44 34.9274 80.6433 34.6141 81.05C34.3008 81.4533 34.1441 82.02 34.1441 82.75C34.1441 83.5 34.3008 84.075 34.6141 84.475C34.9274 84.8717 35.3441 85.07 35.8641 85.07ZM42.6903 86.14C42.1136 86.14 41.6036 86.0133 41.1603 85.76C40.7203 85.5067 40.3753 85.1283 40.1253 84.625C39.8753 84.1217 39.7503 83.4967 39.7503 82.75C39.7503 81.99 39.8753 81.3617 40.1253 80.865C40.3753 80.365 40.7203 79.9933 41.1603 79.75C41.6036 79.5033 42.1136 79.38 42.6903 79.38C43.2703 79.38 43.7819 79.5067 44.2253 79.76C44.6686 80.01 45.0153 80.385 45.2653 80.885C45.5153 81.385 45.6403 82.0067 45.6403 82.75C45.6403 83.5067 45.5153 84.1367 45.2653 84.64C45.0153 85.1433 44.6686 85.52 44.2253 85.77C43.7819 86.0167 43.2703 86.14 42.6903 86.14ZM42.6903 85.07C43.2203 85.07 43.6403 84.87 43.9503 84.47C44.2636 84.07 44.4203 83.4933 44.4203 82.74C44.4203 82.0133 44.2636 81.4483 43.9503 81.045C43.6403 80.6417 43.2203 80.44 42.6903 80.44C42.1703 80.44 41.7536 80.6433 41.4403 81.05C41.1269 81.4533 40.9703 82.02 40.9703 82.75C40.9703 83.5 41.1269 84.075 41.4403 84.475C41.7536 84.8717 42.1703 85.07 42.6903 85.07ZM47.0364 79.51H49.1364C49.7964 79.51 50.3748 79.6433 50.8714 79.91C51.3681 80.1733 51.7548 80.5483 52.0314 81.035C52.3081 81.5217 52.4464 82.0967 52.4464 82.76C52.4464 83.4167 52.3081 83.9883 52.0314 84.475C51.7548 84.9583 51.3681 85.3333 50.8714 85.6C50.3748 85.8667 49.7964 86 49.1364 86H47.0364V79.51ZM48.2164 80.58V84.94H49.1364C49.5564 84.94 49.9181 84.845 50.2214 84.655C50.5281 84.465 50.7631 84.2067 50.9264 83.88C51.0931 83.55 51.1764 83.1767 51.1764 82.76C51.1764 82.3367 51.0931 81.9617 50.9264 81.635C50.7631 81.3083 50.5281 81.0517 50.2214 80.865C49.9181 80.675 49.5564 80.58 49.1364 80.58H48.2164ZM9.20602 102.14C8.63602 102.14 8.13935 102.005 7.71602 101.735C7.29602 101.462 6.96935 101.072 6.73602 100.565C6.50268 100.058 6.38602 99.45 6.38602 98.74C6.38602 98.0067 6.50602 97.3917 6.74602 96.895C6.98935 96.395 7.32268 96.0183 7.74602 95.765C8.17268 95.5083 8.65935 95.38 9.20602 95.38C9.96268 95.38 10.5527 95.5633 10.976 95.93C11.4027 96.2967 11.676 96.7733 11.796 97.36L10.536 97.59C10.4327 97.25 10.2677 96.975 10.041 96.765C9.81435 96.555 9.53602 96.45 9.20602 96.45C8.91602 96.45 8.65435 96.535 8.42102 96.705C8.18768 96.8717 8.00102 97.125 7.86102 97.465C7.72435 97.805 7.65602 98.23 7.65602 98.74C7.65602 99.22 7.71602 99.6333 7.83602 99.98C7.95935 100.327 8.13602 100.593 8.36602 100.78C8.59602 100.967 8.87602 101.06 9.20602 101.06C9.62935 101.06 9.95602 100.948 10.186 100.725C10.4193 100.498 10.536 100.21 10.536 99.86H11.796C11.796 100.343 11.691 100.755 11.481 101.095C11.2743 101.432 10.9777 101.69 10.591 101.87C10.2043 102.05 9.74268 102.14 9.20602 102.14ZM13.1839 102V95.51H14.3639V102H13.1839ZM16.2308 102V95.51H18.6308C19.4074 95.51 20.0024 95.6917 20.4158 96.055C20.8324 96.4183 21.0408 96.9 21.0408 97.5C21.0408 98.09 20.8324 98.5667 20.4158 98.93C20.0024 99.29 19.4074 99.47 18.6308 99.47H17.4108V102H16.2308ZM19.7408 102L18.0208 98.96H19.2808L21.2808 102H19.7408ZM17.4108 98.68H18.5108C18.9441 98.68 19.2724 98.5817 19.4958 98.385C19.7191 98.185 19.8308 97.9267 19.8308 97.61C19.8308 97.2867 19.7291 97.0267 19.5258 96.83C19.3224 96.63 19.0241 96.53 18.6308 96.53H17.4108V98.68ZM25.0263 102.14C24.4563 102.14 23.9597 102.005 23.5363 101.735C23.1163 101.462 22.7897 101.072 22.5563 100.565C22.323 100.058 22.2063 99.45 22.2063 98.74C22.2063 98.0067 22.3263 97.3917 22.5663 96.895C22.8097 96.395 23.143 96.0183 23.5663 95.765C23.993 95.5083 24.4797 95.38 25.0263 95.38C25.783 95.38 26.373 95.5633 26.7963 95.93C27.223 96.2967 27.4963 96.7733 27.6163 97.36L26.3563 97.59C26.253 97.25 26.088 96.975 25.8613 96.765C25.6347 96.555 25.3563 96.45 25.0263 96.45C24.7363 96.45 24.4747 96.535 24.2413 96.705C24.008 96.8717 23.8213 97.125 23.6813 97.465C23.5447 97.805 23.4763 98.23 23.4763 98.74C23.4763 99.22 23.5363 99.6333 23.6563 99.98C23.7797 100.327 23.9563 100.593 24.1863 100.78C24.4163 100.967 24.6963 101.06 25.0263 101.06C25.4497 101.06 25.7763 100.948 26.0063 100.725C26.2397 100.498 26.3563 100.21 26.3563 99.86H27.6163C27.6163 100.343 27.5113 100.755 27.3013 101.095C27.0947 101.432 26.798 101.69 26.4113 101.87C26.0247 102.05 25.563 102.14 25.0263 102.14ZM28.9042 95.51H30.0842V99.55C30.0842 100.083 30.2192 100.468 30.4892 100.705C30.7626 100.942 31.1109 101.06 31.5342 101.06C31.9609 101.06 32.3092 100.942 32.5792 100.705C32.8492 100.468 32.9842 100.083 32.9842 99.55V95.51H34.1642V99.55C34.1642 100.097 34.0592 100.563 33.8492 100.95C33.6392 101.337 33.3376 101.632 32.9442 101.835C32.5542 102.038 32.0842 102.14 31.5342 102.14C30.9842 102.14 30.5126 102.038 30.1192 101.835C29.7292 101.632 29.4292 101.337 29.2192 100.95C29.0092 100.563 28.9042 100.097 28.9042 99.55V95.51ZM37.0885 95.51V100.97H39.7585V102H35.9085V95.51H37.0885ZM40.1399 102L42.3499 95.51H43.8299L45.9499 102H44.7099L44.2599 100.6H41.8499L41.3899 102H40.1399ZM42.1499 99.71H43.9799L43.0699 96.92L42.1499 99.71ZM45.7905 96.53V95.51H50.9905V96.53H48.7155L48.9805 96.26V102H47.8005V96.26L48.0655 96.53H45.7905ZM51.973 102V95.51H53.153V102H51.973ZM57.4998 102.14C56.9232 102.14 56.4132 102.013 55.9698 101.76C55.5298 101.507 55.1848 101.128 54.9348 100.625C54.6848 100.122 54.5598 99.4967 54.5598 98.75C54.5598 97.99 54.6848 97.3617 54.9348 96.865C55.1848 96.365 55.5298 95.9933 55.9698 95.75C56.4132 95.5033 56.9232 95.38 57.4998 95.38C58.0798 95.38 58.5915 95.5067 59.0348 95.76C59.4782 96.01 59.8248 96.385 60.0748 96.885C60.3248 97.385 60.4498 98.0067 60.4498 98.75C60.4498 99.5067 60.3248 100.137 60.0748 100.64C59.8248 101.143 59.4782 101.52 59.0348 101.77C58.5915 102.017 58.0798 102.14 57.4998 102.14ZM57.4998 101.07C58.0298 101.07 58.4498 100.87 58.7598 100.47C59.0732 100.07 59.2298 99.4933 59.2298 98.74C59.2298 98.0133 59.0732 97.4483 58.7598 97.045C58.4498 96.6417 58.0298 96.44 57.4998 96.44C56.9798 96.44 56.5632 96.6433 56.2498 97.05C55.9365 97.4533 55.7798 98.02 55.7798 98.75C55.7798 99.5 55.9365 100.075 56.2498 100.475C56.5632 100.872 56.9798 101.07 57.4998 101.07ZM61.826 95.51H63.116L66.066 100.14H65.976V95.51H67.156V102H65.956L62.816 97.09H63.006V102H61.826V95.51Z" fill="black"/>
<rect x="9" width="56" height="56" rx="5" fill="#001E4E"/>
<path d="M46.6328 21.6469C46.3187 20.9195 45.8657 20.2603 45.2992 19.7063C44.7323 19.1506 44.064 18.709 43.3305 18.4055C42.5699 18.0895 41.7541 17.9278 40.9305 17.9297C39.775 17.9297 38.6477 18.2461 37.668 18.8438C37.4336 18.9867 37.2109 19.1438 37 19.3149C36.7891 19.1438 36.5664 18.9867 36.332 18.8438C35.3523 18.2461 34.225 17.9297 33.0695 17.9297C32.2375 17.9297 31.4313 18.0891 30.6695 18.4055C29.9336 18.7102 29.2703 19.1485 28.7008 19.7063C28.1336 20.2597 27.6805 20.919 27.3672 21.6469C27.0414 22.4039 26.875 23.2078 26.875 24.0352C26.875 24.8156 27.0344 25.6289 27.3508 26.4563C27.6156 27.1477 27.9953 27.8649 28.4805 28.5891C29.2492 29.7352 30.3063 30.9305 31.6188 32.1422C33.7938 34.1508 35.9477 35.5383 36.0391 35.5945L36.5945 35.9508C36.8406 36.1078 37.157 36.1078 37.4031 35.9508L37.9586 35.5945C38.05 35.5359 40.2016 34.1508 42.3789 32.1422C43.6914 30.9305 44.7484 29.7352 45.5172 28.5891C46.0023 27.8649 46.3844 27.1477 46.6469 26.4563C46.9633 25.6289 47.1227 24.8156 47.1227 24.0352C47.125 23.2078 46.9586 22.4039 46.6328 21.6469Z" fill="white"/>
</svg>
