<svg width="74" height="107" viewBox="0 0 74 107" fill="none" xmlns="http://www.w3.org/2000/svg">
<path d="M20.7523 70V63.51H23.3723C23.8723 63.51 24.2873 63.5883 24.6173 63.745C24.9473 63.8983 25.1939 64.105 25.3573 64.365C25.5206 64.625 25.6023 64.9133 25.6023 65.23C25.6023 65.5967 25.4989 65.91 25.2923 66.17C25.0889 66.43 24.8023 66.6133 24.4323 66.72C24.6756 66.77 24.8939 66.8617 25.0873 66.995C25.2806 67.1283 25.4323 67.2967 25.5423 67.5C25.6556 67.7033 25.7123 67.9367 25.7123 68.2C25.7123 68.4067 25.6756 68.615 25.6023 68.825C25.5323 69.035 25.4089 69.23 25.2323 69.41C25.0589 69.5867 24.8206 69.73 24.5173 69.84C24.2173 69.9467 23.8389 70 23.3823 70H20.7523ZM21.9323 68.97H23.3523C23.7289 68.97 24.0039 68.895 24.1773 68.745C24.3539 68.5917 24.4423 68.3867 24.4423 68.13C24.4423 67.8733 24.3523 67.6683 24.1723 67.515C23.9923 67.3583 23.7189 67.28 23.3523 67.28H21.9323V68.97ZM21.9323 64.53V66.25H23.3223C23.6723 66.25 23.9373 66.1733 24.1173 66.02C24.3006 65.8633 24.3923 65.65 24.3923 65.38C24.3923 65.1233 24.3023 64.9183 24.1223 64.765C23.9456 64.6083 23.6823 64.53 23.3323 64.53H21.9323ZM29.7166 70.14C29.14 70.14 28.63 70.0133 28.1866 69.76C27.7466 69.5067 27.4016 69.1283 27.1516 68.625C26.9016 68.1217 26.7766 67.4967 26.7766 66.75C26.7766 65.99 26.9016 65.3617 27.1516 64.865C27.4016 64.365 27.7466 63.9933 28.1866 63.75C28.63 63.5033 29.14 63.38 29.7166 63.38C30.2966 63.38 30.8083 63.5067 31.2516 63.76C31.695 64.01 32.0416 64.385 32.2916 64.885C32.5416 65.385 32.6666 66.0067 32.6666 66.75C32.6666 67.5067 32.5416 68.1367 32.2916 68.64C32.0416 69.1433 31.695 69.52 31.2516 69.77C30.8083 70.0167 30.2966 70.14 29.7166 70.14ZM29.7166 69.07C30.2466 69.07 30.6666 68.87 30.9766 68.47C31.29 68.07 31.4466 67.4933 31.4466 66.74C31.4466 66.0133 31.29 65.4483 30.9766 65.045C30.6666 64.6417 30.2466 64.44 29.7166 64.44C29.1966 64.44 28.78 64.6433 28.4666 65.05C28.1533 65.4533 27.9966 66.02 27.9966 66.75C27.9966 67.5 28.1533 68.075 28.4666 68.475C28.78 68.8717 29.1966 69.07 29.7166 69.07ZM36.5428 70.14C35.9661 70.14 35.4561 70.0133 35.0128 69.76C34.5728 69.5067 34.2278 69.1283 33.9778 68.625C33.7278 68.1217 33.6028 67.4967 33.6028 66.75C33.6028 65.99 33.7278 65.3617 33.9778 64.865C34.2278 64.365 34.5728 63.9933 35.0128 63.75C35.4561 63.5033 35.9661 63.38 36.5428 63.38C37.1228 63.38 37.6345 63.5067 38.0778 63.76C38.5211 64.01 38.8678 64.385 39.1178 64.885C39.3678 65.385 39.4928 66.0067 39.4928 66.75C39.4928 67.5067 39.3678 68.1367 39.1178 68.64C38.8678 69.1433 38.5211 69.52 38.0778 69.77C37.6345 70.0167 37.1228 70.14 36.5428 70.14ZM36.5428 69.07C37.0728 69.07 37.4928 68.87 37.8028 68.47C38.1161 68.07 38.2728 67.4933 38.2728 66.74C38.2728 66.0133 38.1161 65.4483 37.8028 65.045C37.4928 64.6417 37.0728 64.44 36.5428 64.44C36.0228 64.44 35.6061 64.6433 35.2928 65.05C34.9795 65.4533 34.8228 66.02 34.8228 66.75C34.8228 67.5 34.9795 68.075 35.2928 68.475C35.6061 68.8717 36.0228 69.07 36.5428 69.07ZM43.149 70.14C42.699 70.14 42.284 70.0617 41.904 69.905C41.5273 69.7483 41.2207 69.51 40.984 69.19C40.7507 68.87 40.6257 68.4633 40.609 67.97H41.769C41.769 68.22 41.8307 68.425 41.954 68.585C42.0773 68.745 42.2423 68.865 42.449 68.945C42.659 69.0217 42.889 69.06 43.139 69.06C43.379 69.06 43.5923 69.0283 43.779 68.965C43.969 68.9017 44.1173 68.8117 44.224 68.695C44.334 68.575 44.389 68.4333 44.389 68.27C44.389 68.0533 44.3223 67.8833 44.189 67.76C44.059 67.6367 43.849 67.5233 43.559 67.42L42.279 66.91C41.779 66.7133 41.3957 66.485 41.129 66.225C40.8623 65.965 40.729 65.6067 40.729 65.15C40.729 64.6233 40.9373 64.1967 41.354 63.87C41.7707 63.5433 42.3523 63.38 43.099 63.38C43.8257 63.38 44.3873 63.55 44.784 63.89C45.1807 64.2267 45.4057 64.6967 45.459 65.3H44.299C44.2557 65.0433 44.139 64.8383 43.949 64.685C43.759 64.5283 43.4757 64.45 43.099 64.45C42.7657 64.45 42.5023 64.52 42.309 64.66C42.1157 64.7967 42.019 64.97 42.019 65.18C42.019 65.36 42.079 65.5033 42.199 65.61C42.3223 65.7133 42.5123 65.8133 42.769 65.91L44.189 66.46C44.669 66.6467 45.0373 66.8817 45.294 67.165C45.5507 67.4483 45.679 67.8033 45.679 68.23C45.679 68.62 45.5807 68.9583 45.384 69.245C45.1873 69.5283 44.9007 69.7483 44.524 69.905C44.1473 70.0617 43.689 70.14 43.149 70.14ZM46.3959 64.53V63.51H51.5959V64.53H49.3209L49.5859 64.26V70H48.4059V64.26L48.6709 64.53H46.3959ZM17.6956 86V79.51H18.8756V86H17.6956ZM20.7425 79.51H22.4325L24.2625 83.48H24.1625L25.9925 79.51H27.6225V86H26.4325V80.87H26.6125L24.5925 85.29H23.8225L21.8125 80.89H21.9225V86H20.7425V79.51ZM29.4827 79.51H31.1727L33.0027 83.48H32.9027L34.7327 79.51H36.3627V86H35.1727V80.87H35.3527L33.3327 85.29H32.5627L30.5527 80.89H30.6627V86H29.4827V79.51ZM38.123 79.51H39.303V83.55C39.303 84.0833 39.438 84.4683 39.708 84.705C39.9813 84.9417 40.3296 85.06 40.753 85.06C41.1796 85.06 41.528 84.9417 41.798 84.705C42.068 84.4683 42.203 84.0833 42.203 83.55V79.51H43.383V83.55C43.383 84.0967 43.278 84.5633 43.068 84.95C42.858 85.3367 42.5563 85.6317 42.163 85.835C41.773 86.0383 41.303 86.14 40.753 86.14C40.203 86.14 39.7313 86.0383 39.338 85.835C38.948 85.6317 38.648 85.3367 38.438 84.95C38.228 84.5633 38.123 84.0967 38.123 83.55V79.51ZM45.1073 79.51H46.3973L49.3473 84.14H49.2573V79.51H50.4373V86H49.2373L46.0973 81.09H46.2873V86H45.1073V79.51ZM52.2852 86V79.51H56.4552V80.53H53.4652V82.24H56.2752V83.26H53.4652V84.97H56.4552V86H52.2852ZM21.2203 102.14C20.7703 102.14 20.3553 102.062 19.9753 101.905C19.5986 101.748 19.2919 101.51 19.0553 101.19C18.8219 100.87 18.6969 100.463 18.6803 99.97H19.8403C19.8403 100.22 19.9019 100.425 20.0253 100.585C20.1486 100.745 20.3136 100.865 20.5203 100.945C20.7303 101.022 20.9603 101.06 21.2103 101.06C21.4503 101.06 21.6636 101.028 21.8503 100.965C22.0403 100.902 22.1886 100.812 22.2953 100.695C22.4053 100.575 22.4603 100.433 22.4603 100.27C22.4603 100.053 22.3936 99.8833 22.2603 99.76C22.1303 99.6367 21.9203 99.5233 21.6303 99.42L20.3503 98.91C19.8503 98.7133 19.4669 98.485 19.2003 98.225C18.9336 97.965 18.8003 97.6067 18.8003 97.15C18.8003 96.6233 19.0086 96.1967 19.4253 95.87C19.8419 95.5433 20.4236 95.38 21.1703 95.38C21.8969 95.38 22.4586 95.55 22.8553 95.89C23.2519 96.2267 23.4769 96.6967 23.5303 97.3H22.3703C22.3269 97.0433 22.2103 96.8383 22.0203 96.685C21.8303 96.5283 21.5469 96.45 21.1703 96.45C20.8369 96.45 20.5736 96.52 20.3803 96.66C20.1869 96.7967 20.0903 96.97 20.0903 97.18C20.0903 97.36 20.1503 97.5033 20.2703 97.61C20.3936 97.7133 20.5836 97.8133 20.8403 97.91L22.2603 98.46C22.7403 98.6467 23.1086 98.8817 23.3653 99.165C23.6219 99.4483 23.7503 99.8033 23.7503 100.23C23.7503 100.62 23.6519 100.958 23.4553 101.245C23.2586 101.528 22.9719 101.748 22.5953 101.905C22.2186 102.062 21.7603 102.14 21.2203 102.14ZM24.194 95.51H25.594L27.144 98.3H26.914L28.524 95.51H29.914L27.604 99.32V102H26.424V99.32L24.194 95.51ZM32.8609 102.14C32.4109 102.14 31.9959 102.062 31.6159 101.905C31.2392 101.748 30.9326 101.51 30.6959 101.19C30.4626 100.87 30.3376 100.463 30.3209 99.97H31.4809C31.4809 100.22 31.5426 100.425 31.6659 100.585C31.7892 100.745 31.9542 100.865 32.1609 100.945C32.3709 101.022 32.6009 101.06 32.8509 101.06C33.0909 101.06 33.3042 101.028 33.4909 100.965C33.6809 100.902 33.8292 100.812 33.9359 100.695C34.0459 100.575 34.1009 100.433 34.1009 100.27C34.1009 100.053 34.0342 99.8833 33.9009 99.76C33.7709 99.6367 33.5609 99.5233 33.2709 99.42L31.9909 98.91C31.4909 98.7133 31.1076 98.485 30.8409 98.225C30.5742 97.965 30.4409 97.6067 30.4409 97.15C30.4409 96.6233 30.6492 96.1967 31.0659 95.87C31.4826 95.5433 32.0642 95.38 32.8109 95.38C33.5376 95.38 34.0992 95.55 34.4959 95.89C34.8926 96.2267 35.1176 96.6967 35.1709 97.3H34.0109C33.9676 97.0433 33.8509 96.8383 33.6609 96.685C33.4709 96.5283 33.1876 96.45 32.8109 96.45C32.4776 96.45 32.2142 96.52 32.0209 96.66C31.8276 96.7967 31.7309 96.97 31.7309 97.18C31.7309 97.36 31.7909 97.5033 31.9109 97.61C32.0342 97.7133 32.2242 97.8133 32.4809 97.91L33.9009 98.46C34.3809 98.6467 34.7492 98.8817 35.0059 99.165C35.2626 99.4483 35.3909 99.8033 35.3909 100.23C35.3909 100.62 35.2926 100.958 35.0959 101.245C34.8992 101.528 34.6126 101.748 34.2359 101.905C33.8592 102.062 33.4009 102.14 32.8609 102.14ZM36.1079 96.53V95.51H41.3079V96.53H39.0329L39.2979 96.26V102H38.1179V96.26L38.3829 96.53H36.1079ZM42.2804 102V95.51H46.4504V96.53H43.4604V98.24H46.2704V99.26H43.4604V100.97H46.4504V102H42.2804ZM48.1595 95.51H49.8495L51.6795 99.48H51.5795L53.4095 95.51H55.0395V102H53.8495V96.87H54.0295L52.0095 101.29H51.2395L49.2295 96.89H49.3395V102H48.1595V95.51Z" fill="black"/>
<rect x="8" width="57" height="57" rx="5" fill="#001E4E"/>
<path d="M34.93 23.6952L32.075 28.7452M43.71 22.3502C43.7113 21.8074 43.4973 21.2862 43.1149 20.9009C42.7324 20.5157 42.2128 20.2979 41.67 20.2952V20.2952C41.3919 20.2815 41.114 20.3244 40.853 20.4213C40.592 20.5183 40.3535 20.6673 40.1518 20.8592C39.9502 21.0511 39.7896 21.2821 39.6799 21.5379C39.5702 21.7938 39.5137 22.0693 39.5137 22.3477C39.5137 22.6261 39.5702 22.9016 39.6799 23.1575C39.7896 23.4133 39.9502 23.6443 40.1518 23.8362C40.3535 24.0282 40.592 24.1771 40.853 24.2741C41.114 24.371 41.3919 24.4139 41.67 24.4002C42.209 24.401 42.7265 24.189 43.11 23.8102C43.3029 23.6199 43.4551 23.3923 43.5574 23.1413C43.6597 22.8903 43.7099 22.6212 43.705 22.3502H43.71ZM33.05 29.7202L32.05 28.7202L28.95 29.7102H28.85C28.8013 29.7132 28.7524 29.7059 28.7068 29.6887C28.6611 29.6714 28.6196 29.6447 28.585 29.6102L27.86 28.8952C27.8014 28.8395 27.7639 28.7652 27.7539 28.685C27.7439 28.6048 27.7619 28.5236 27.805 28.4552L28.65 27.0002C29.1734 26.1045 29.9036 25.3471 30.7795 24.7913C31.6554 24.2354 32.6517 23.8973 33.685 23.8052L34.93 23.6952C35.6533 22.8352 36.32 22.0985 36.93 21.4852C38.0874 20.2592 39.469 19.2663 41 18.5602C42.5605 17.9769 44.2198 17.7035 45.885 17.7552C45.9857 17.7561 46.0823 17.7955 46.155 17.8652C46.1896 17.897 46.2173 17.9356 46.2362 17.9787C46.2551 18.0217 46.2649 18.0682 46.265 18.1152C46.2991 19.7854 46.0017 21.4457 45.39 23.0002C44.7021 24.5357 43.7203 25.9218 42.5 27.0802C41.885 27.7002 41.145 28.3652 40.29 29.0802L40.18 30.3202C40.0903 31.353 39.7548 32.3494 39.2016 33.2261C38.6484 34.1029 37.8936 34.8346 37 35.3602L35.555 36.2052C35.498 36.2353 35.4344 36.2507 35.37 36.2502C35.2743 36.2482 35.1823 36.2129 35.11 36.1502L34.385 35.4202C34.3382 35.3754 34.3049 35.3184 34.289 35.2556C34.2731 35.1929 34.2752 35.1269 34.295 35.0652L35.26 31.9302L34.29 30.9602L33.05 29.7202ZM40.31 29.0802L35.26 31.9302L40.31 29.0802Z" stroke="white" stroke-linecap="round" stroke-linejoin="round"/>
<path d="M31.5 32.5002C33.5 32.1302 37.05 28.8002 37.465 26.5352C35.185 26.9702 31.855 30.5002 31.5 32.5002Z" stroke="white" stroke-linecap="round" stroke-linejoin="round"/>
</svg>
