<svg width="32" height="32" viewBox="0 0 32 32" fill="none" xmlns="http://www.w3.org/2000/svg">
<rect width="32" height="32" rx="6" fill="#8BDFF0"/>
<path d="M8 17.7824L0.699539 14.1322L0.313477 13.5V12.3739L8 16.2172V17.7824Z" fill="#001E4E"/>
<path d="M19.4692 23.5171L31.1059 29.3354H31.5001L31.6873 27.9673H31.5001L20.9521 22.6932L19.4692 23.5171Z" fill="#001E4E"/>
<path d="M24 17.7824L31.6865 13.9391V13.1563L31.5002 12.5L31.1058 12.6643L24 16.2172V17.7824Z" fill="#001E4E"/>
<path d="M11.6102 23.9774L10.1829 23.1258L0.712105 27.8612L0.312988 28L0.712228 29.2824H1.00024L11.6102 23.9774Z" fill="#001E4E"/>
<path fill-rule="evenodd" clip-rule="evenodd" d="M16.6166 4.32695C16.5379 4.29024 16.4472 4.2894 16.3678 4.32466L8.37796 7.87572C8.26962 7.92387 8.1998 8.03131 8.1998 8.14986V21.5C8.1998 21.8866 7.8864 22.2 7.4998 22.2C7.1132 22.2 6.7998 21.8866 6.7998 21.5V8.14986C6.7998 7.47804 7.19545 6.86924 7.80936 6.59638L15.7993 3.04532C16.2488 2.84553 16.7628 2.85026 17.2086 3.05829L23.7187 6.09634C24.3172 6.37565 24.6998 6.97636 24.6998 7.63685V20.882C24.6998 21.5259 24.336 22.1145 23.76 22.4025L15.7659 26.3994C14.6331 26.9659 13.3009 26.139 13.3057 24.8725L13.3538 12.1429C13.3564 11.4748 13.7499 10.8702 14.3598 10.5974L22.3732 7.0134L16.6166 4.32695ZM23.2998 8.13245C23.2951 8.13468 23.2904 8.13686 23.2856 8.13899L14.9314 11.8754C14.8237 11.9236 14.7543 12.0303 14.7538 12.1482L14.7057 24.8778C14.7048 25.1013 14.9399 25.2472 15.1398 25.1472L23.134 21.1503C23.2356 21.0995 23.2998 20.9956 23.2998 20.882V8.13245Z" fill="#001E4E"/>
<path fill-rule="evenodd" clip-rule="evenodd" d="M28 1.4H4C2.56406 1.4 1.4 2.56406 1.4 4V28C1.4 29.4359 2.56406 30.6 4 30.6H28C29.4359 30.6 30.6 29.4359 30.6 28V4C30.6 2.56406 29.4359 1.4 28 1.4ZM4 0C1.79086 0 0 1.79086 0 4V28C0 30.2091 1.79086 32 4 32H28C30.2091 32 32 30.2091 32 28V4C32 1.79086 30.2091 0 28 0H4Z" fill="#001E4E"/>
</svg>
