<svg width="60" height="60" viewBox="0 0 60 60" fill="none" xmlns="http://www.w3.org/2000/svg">
<rect width="60" height="60" rx="5" fill="#001E4E"/>
<path d="M24.66 42.7H25.29V49H24.51V43.62C24.35 43.73 24.1817 43.815 24.005 43.875C23.8317 43.9317 23.6567 43.9633 23.48 43.97V43.21C23.69 43.18 23.8933 43.125 24.09 43.045C24.29 42.965 24.48 42.85 24.66 42.7ZM26.6808 46.43V45.75H29.4008V46.43H26.6808ZM32.7473 49.12C32.434 49.12 32.1307 49.0767 31.8373 48.99C31.5473 48.9 31.2857 48.77 31.0523 48.6C30.8223 48.4267 30.6407 48.2133 30.5073 47.96C30.374 47.7067 30.3073 47.4133 30.3073 47.08H31.1073C31.114 47.3667 31.1907 47.6083 31.3373 47.805C31.484 48.0017 31.679 48.15 31.9223 48.25C32.169 48.35 32.444 48.4 32.7473 48.4C33.214 48.4 33.5757 48.2867 33.8323 48.06C34.089 47.8333 34.2173 47.55 34.2173 47.21C34.2173 46.9933 34.164 46.8017 34.0573 46.635C33.9507 46.4683 33.7807 46.3383 33.5473 46.245C33.3173 46.1483 33.014 46.1 32.6373 46.1H31.9273V45.48H32.4073C32.894 45.48 33.2773 45.3833 33.5573 45.19C33.8373 44.9967 33.9773 44.73 33.9773 44.39C33.9773 44.09 33.864 43.8367 33.6373 43.63C33.4107 43.4233 33.0873 43.32 32.6673 43.32C32.344 43.32 32.0557 43.3867 31.8023 43.52C31.549 43.65 31.3773 43.89 31.2873 44.24H30.4873C30.5407 43.85 30.6673 43.535 30.8673 43.295C31.0673 43.055 31.3207 42.8817 31.6273 42.775C31.934 42.665 32.274 42.61 32.6473 42.61C33.064 42.61 33.4357 42.6833 33.7623 42.83C34.089 42.9767 34.3457 43.1783 34.5323 43.435C34.7223 43.6917 34.8173 43.9867 34.8173 44.32C34.8173 44.65 34.7223 44.9333 34.5323 45.17C34.3457 45.4033 34.074 45.5833 33.7173 45.71C34.114 45.8233 34.4373 46.01 34.6873 46.27C34.9407 46.53 35.0673 46.8633 35.0673 47.27C35.0673 47.63 34.9723 47.95 34.7823 48.23C34.5957 48.5067 34.329 48.725 33.9823 48.885C33.6357 49.0417 33.224 49.12 32.7473 49.12Z" fill="white"/>
<path d="M28.5 33C28.5 33 27 33 27 31.5C27 30 28.5 25.5 34.5 25.5C40.5 25.5 42 30 42 31.5C42 33 40.5 33 40.5 33H28.5ZM34.5 24C35.6935 24 36.8381 23.5259 37.682 22.682C38.5259 21.8381 39 20.6935 39 19.5C39 18.3065 38.5259 17.1619 37.682 16.318C36.8381 15.4741 35.6935 15 34.5 15C33.3065 15 32.1619 15.4741 31.318 16.318C30.4741 17.1619 30 18.3065 30 19.5C30 20.6935 30.4741 21.8381 31.318 22.682C32.1619 23.5259 33.3065 24 34.5 24Z" fill="white"/>
<path fill-rule="evenodd" clip-rule="evenodd" d="M25.824 32.9999C25.6016 32.5316 25.4907 32.0182 25.5 31.4999C25.5 29.4674 26.52 27.3749 28.404 25.9199C27.4636 25.6302 26.4839 25.4885 25.5 25.4999C19.5 25.4999 18 29.9999 18 31.4999C18 32.9999 19.5 32.9999 19.5 32.9999H25.824Z" fill="white"/>
<path d="M24.75 24C25.7446 24 26.6984 23.6049 27.4017 22.9017C28.1049 22.1984 28.5 21.2446 28.5 20.25C28.5 19.2554 28.1049 18.3016 27.4017 17.5983C26.6984 16.8951 25.7446 16.5 24.75 16.5C23.7554 16.5 22.8016 16.8951 22.0983 17.5983C21.3951 18.3016 21 19.2554 21 20.25C21 21.2446 21.3951 22.1984 22.0983 22.9017C22.8016 23.6049 23.7554 24 24.75 24Z" fill="white"/>
</svg>
