<svg width="57" height="57" viewBox="0 0 57 57" fill="none" xmlns="http://www.w3.org/2000/svg">
<rect width="57" height="57" rx="5" fill="#001E4E"/>
<path d="M18.5309 20C17.1741 20 16.0853 21.1216 16.0853 22.469V34.9458C16.0853 36.2933 17.1741 37.4243 18.5309 37.4243H38.7064C40.0632 37.4243 41.152 36.2933 41.152 34.9458V22.469C41.152 21.1216 40.0632 20 38.7064 20H18.5309ZM18.5309 21.2016H38.7064C38.8874 21.2016 39.0583 21.2527 39.2126 21.3236L29.3732 30.5053C28.9216 30.9267 28.3354 30.9267 27.8829 30.5053L18.0245 21.3236C18.179 21.2527 18.3498 21.2016 18.5307 21.2016H18.5309ZM17.3272 22.3282L24.2909 28.8158L17.4413 35.5378C17.3556 35.3628 17.3076 35.1623 17.3076 34.9464V22.4697C17.3076 22.4208 17.3219 22.3758 17.3266 22.3288L17.3272 22.3282ZM39.91 22.3282C39.9149 22.3751 39.929 22.4202 39.929 22.469V34.9458C39.929 35.1587 39.8787 35.3547 39.7953 35.528L32.9653 28.806L39.91 22.3282ZM32.0767 29.6414L38.7637 36.2229H38.7063H18.5308H18.483L25.1798 29.6511L27.0426 31.3785C27.9299 32.205 29.3272 32.2062 30.2143 31.3785L32.0767 29.6414Z" fill="white"/>
</svg>
