<svg width="74" height="104" viewBox="0 0 74 104" fill="none" xmlns="http://www.w3.org/2000/svg">
<rect x="8" width="57" height="57" rx="5" fill="#001E4E"/>
<path d="M44.864 24.465C45.0047 23.9712 45.0352 23.4524 44.9534 22.9455C44.8715 22.4386 44.6792 21.9558 44.3902 21.5314C44.1011 21.107 43.7223 20.7513 43.2806 20.4894C42.8389 20.2275 42.3451 20.0659 41.834 20.016C41.6289 19.4276 41.246 18.9175 40.7383 18.5563C40.2306 18.1952 39.6231 18.0007 39 18C38.2596 18.0025 37.5466 18.2806 37 18.78C36.4534 18.2806 35.7404 18.0025 35 18C33.699 18 32.59 18.831 32.175 20.015C31.663 20.0637 31.1681 20.2244 30.7252 20.4858C30.2823 20.7472 29.9023 21.1029 29.6123 21.5276C29.3223 21.9523 29.1293 22.4356 29.0469 22.9432C28.9646 23.4509 28.995 23.9704 29.136 24.465C28.494 24.8066 27.9565 25.3155 27.5804 25.9379C27.2044 26.5603 27.0038 27.2728 27 28C27 29.075 27.428 30.086 28.172 30.832C28.0582 31.2109 28.0002 31.6044 28 32C28 33.957 29.412 35.59 31.306 35.934C31.584 36.5485 32.033 37.0701 32.5994 37.4364C33.1657 37.8027 33.8255 37.9984 34.5 38C35.479 38 36.364 37.593 37 36.941C37.3246 37.2759 37.7132 37.5421 38.1426 37.724C38.572 37.906 39.0336 37.9998 39.5 38C40.1733 37.9988 40.832 37.8039 41.3976 37.4386C41.9632 37.0734 42.4119 36.5532 42.69 35.94C43.248 35.8416 43.7787 35.626 44.2472 35.3074C44.7157 34.9888 45.1113 34.5745 45.4078 34.0918C45.7044 33.609 45.8952 33.0689 45.9676 32.507C46.04 31.945 45.9925 31.3742 45.828 30.832C46.1998 30.4601 46.4947 30.0185 46.6958 29.5326C46.8969 29.0467 47.0002 28.5259 47 28C46.9962 27.2728 46.7956 26.5603 46.4196 25.9379C46.0435 25.3155 45.506 24.8066 44.864 24.465ZM34.5 36C33.789 36 33.17 35.496 33.03 34.802L32.818 34H32C30.897 34 30 33.103 30 32C30 31.648 30.085 31.318 30.253 31.019L30.709 30.203L29.925 29.693C29.6418 29.5104 29.4088 29.2598 29.2472 28.9641C29.0856 28.6684 29.0007 28.337 29 28C29 27.023 29.723 26.176 30.682 26.028L32.375 25.768L31.316 24.422C31.1274 24.1789 31.018 23.8837 31.0027 23.5764C30.9873 23.2691 31.0667 22.9644 31.2301 22.7037C31.3935 22.443 31.6331 22.2388 31.9164 22.1186C32.1996 21.9985 32.513 21.9683 32.814 22.032L34 22.207V21C34 20.7348 34.1054 20.4804 34.2929 20.2929C34.4804 20.1054 34.7348 20 35 20C35.2652 20 35.5196 20.1054 35.7071 20.2929C35.8946 20.4804 36 20.7348 36 21V34.5C36 35.327 35.327 36 34.5 36ZM44.075 29.692L43.291 30.202L43.747 31.018C43.915 31.318 44 31.648 44 32C44 33.103 43.103 34 41.95 34H41.132L40.97 34.802C40.9001 35.1403 40.7157 35.4441 40.448 35.6623C40.1802 35.8805 39.8454 35.9998 39.5 36C38.673 36 38 35.327 38 34.5V21C38 20.448 38.448 20 39 20C39.552 20 40 20.448 40 21.05V22.257L41.186 22.032C41.487 21.9683 41.8004 21.9985 42.0836 22.1186C42.3669 22.2388 42.6065 22.443 42.7699 22.7037C42.9333 22.9644 43.0127 23.2691 42.9973 23.5764C42.982 23.8837 42.8726 24.1789 42.684 24.422L41.625 25.769L43.318 26.029C43.7865 26.1049 44.2128 26.3447 44.5209 26.7057C44.8289 27.0667 44.9988 27.5254 45 28C45 28.683 44.654 29.315 44.075 29.692Z" fill="white"/>
<path d="M13.4476 71V64.51H14.6276V71H13.4476ZM16.4945 64.51H18.1845L20.0145 68.48H19.9145L21.7445 64.51H23.3745V71H22.1845V65.87H22.3645L20.3445 70.29H19.5745L17.5645 65.89H17.6745V71H16.4945V64.51ZM25.2047 71V64.51H27.4947C28.2247 64.51 28.793 64.69 29.1997 65.05C29.6097 65.41 29.8147 65.92 29.8147 66.58C29.8147 67.2333 29.6097 67.74 29.1997 68.1C28.793 68.46 28.2247 68.64 27.4947 68.64H26.3947V71H25.2047ZM26.3947 67.61H27.4947C27.8614 67.61 28.138 67.5133 28.3247 67.32C28.5114 67.1267 28.6047 66.88 28.6047 66.58C28.6047 66.2733 28.5114 66.0217 28.3247 65.825C28.138 65.6283 27.8614 65.53 27.4947 65.53H26.3947V67.61ZM31.0355 71V64.51H33.4355C34.2121 64.51 34.8071 64.6917 35.2205 65.055C35.6371 65.4183 35.8455 65.9 35.8455 66.5C35.8455 67.09 35.6371 67.5667 35.2205 67.93C34.8071 68.29 34.2121 68.47 33.4355 68.47H32.2155V71H31.0355ZM34.5455 71L32.8255 67.96H34.0855L36.0855 71H34.5455ZM32.2155 67.68H33.3155C33.7488 67.68 34.0771 67.5817 34.3005 67.385C34.5238 67.185 34.6355 66.9267 34.6355 66.61C34.6355 66.2867 34.5338 66.0267 34.3305 65.83C34.1271 65.63 33.8288 65.53 33.4355 65.53H32.2155V67.68ZM39.951 71.14C39.3743 71.14 38.8643 71.0133 38.421 70.76C37.981 70.5067 37.636 70.1283 37.386 69.625C37.136 69.1217 37.011 68.4967 37.011 67.75C37.011 66.99 37.136 66.3617 37.386 65.865C37.636 65.365 37.981 64.9933 38.421 64.75C38.8643 64.5033 39.3743 64.38 39.951 64.38C40.531 64.38 41.0427 64.5067 41.486 64.76C41.9293 65.01 42.276 65.385 42.526 65.885C42.776 66.385 42.901 67.0067 42.901 67.75C42.901 68.5067 42.776 69.1367 42.526 69.64C42.276 70.1433 41.9293 70.52 41.486 70.77C41.0427 71.0167 40.531 71.14 39.951 71.14ZM39.951 70.07C40.481 70.07 40.901 69.87 41.211 69.47C41.5243 69.07 41.681 68.4933 41.681 67.74C41.681 67.0133 41.5243 66.4483 41.211 66.045C40.901 65.6417 40.481 65.44 39.951 65.44C39.431 65.44 39.0143 65.6433 38.701 66.05C38.3877 66.4533 38.231 67.02 38.231 67.75C38.231 68.5 38.3877 69.075 38.701 69.475C39.0143 69.8717 39.431 70.07 39.951 70.07ZM46.1609 69.71L47.8209 64.51H49.0609L46.8309 71H45.5909L43.3909 64.51H44.6409L46.2809 69.71H46.1609ZM50.1563 71V64.51H54.3263V65.53H51.3363V67.24H54.1463V68.26H51.3363V69.97H54.3263V71H50.1563ZM58.2955 71.14C57.8455 71.14 57.4305 71.0617 57.0505 70.905C56.6738 70.7483 56.3671 70.51 56.1305 70.19C55.8971 69.87 55.7721 69.4633 55.7555 68.97H56.9155C56.9155 69.22 56.9771 69.425 57.1005 69.585C57.2238 69.745 57.3888 69.865 57.5955 69.945C57.8055 70.0217 58.0355 70.06 58.2855 70.06C58.5255 70.06 58.7388 70.0283 58.9255 69.965C59.1155 69.9017 59.2638 69.8117 59.3705 69.695C59.4805 69.575 59.5355 69.4333 59.5355 69.27C59.5355 69.0533 59.4688 68.8833 59.3355 68.76C59.2055 68.6367 58.9955 68.5233 58.7055 68.42L57.4255 67.91C56.9255 67.7133 56.5421 67.485 56.2755 67.225C56.0088 66.965 55.8755 66.6067 55.8755 66.15C55.8755 65.6233 56.0838 65.1967 56.5005 64.87C56.9171 64.5433 57.4988 64.38 58.2455 64.38C58.9721 64.38 59.5338 64.55 59.9305 64.89C60.3271 65.2267 60.5521 65.6967 60.6055 66.3H59.4455C59.4021 66.0433 59.2855 65.8383 59.0955 65.685C58.9055 65.5283 58.6221 65.45 58.2455 65.45C57.9121 65.45 57.6488 65.52 57.4555 65.66C57.2621 65.7967 57.1655 65.97 57.1655 66.18C57.1655 66.36 57.2255 66.5033 57.3455 66.61C57.4688 66.7133 57.6588 66.8133 57.9155 66.91L59.3355 67.46C59.8155 67.6467 60.1838 67.8817 60.4405 68.165C60.6971 68.4483 60.8255 68.8033 60.8255 69.23C60.8255 69.62 60.7271 69.9583 60.5305 70.245C60.3338 70.5283 60.0471 70.7483 59.6705 70.905C59.2938 71.0617 58.8355 71.14 58.2955 71.14ZM10.4249 87V80.51H14.5949V81.53H11.6049V83.24H14.4149V84.26H11.6049V85.97H14.5949V87H10.4249ZM16.304 80.51H17.994L19.824 84.48H19.724L21.554 80.51H23.184V87H21.994V81.87H22.174L20.154 86.29H19.384L17.374 81.89H17.484V87H16.304V80.51ZM27.5243 87.14C26.9476 87.14 26.4376 87.0133 25.9943 86.76C25.5543 86.5067 25.2093 86.1283 24.9593 85.625C24.7093 85.1217 24.5843 84.4967 24.5843 83.75C24.5843 82.99 24.7093 82.3617 24.9593 81.865C25.2093 81.365 25.5543 80.9933 25.9943 80.75C26.4376 80.5033 26.9476 80.38 27.5243 80.38C28.1043 80.38 28.6159 80.5067 29.0593 80.76C29.5026 81.01 29.8493 81.385 30.0993 81.885C30.3493 82.385 30.4743 83.0067 30.4743 83.75C30.4743 84.5067 30.3493 85.1367 30.0993 85.64C29.8493 86.1433 29.5026 86.52 29.0593 86.77C28.6159 87.0167 28.1043 87.14 27.5243 87.14ZM27.5243 86.07C28.0543 86.07 28.4743 85.87 28.7843 85.47C29.0976 85.07 29.2543 84.4933 29.2543 83.74C29.2543 83.0133 29.0976 82.4483 28.7843 82.045C28.4743 81.6417 28.0543 81.44 27.5243 81.44C27.0043 81.44 26.5876 81.6433 26.2743 82.05C25.9609 82.4533 25.8043 83.02 25.8043 83.75C25.8043 84.5 25.9609 85.075 26.2743 85.475C26.5876 85.8717 27.0043 86.07 27.5243 86.07ZM31.0004 81.53V80.51H36.2004V81.53H33.9254L34.1904 81.26V87H33.0104V81.26L33.2754 81.53H31.0004ZM37.1829 87V80.51H38.3629V87H37.1829ZM42.7098 87.14C42.1331 87.14 41.6231 87.0133 41.1798 86.76C40.7398 86.5067 40.3948 86.1283 40.1448 85.625C39.8948 85.1217 39.7698 84.4967 39.7698 83.75C39.7698 82.99 39.8948 82.3617 40.1448 81.865C40.3948 81.365 40.7398 80.9933 41.1798 80.75C41.6231 80.5033 42.1331 80.38 42.7098 80.38C43.2898 80.38 43.8015 80.5067 44.2448 80.76C44.6881 81.01 45.0348 81.385 45.2848 81.885C45.5348 82.385 45.6598 83.0067 45.6598 83.75C45.6598 84.5067 45.5348 85.1367 45.2848 85.64C45.0348 86.1433 44.6881 86.52 44.2448 86.77C43.8015 87.0167 43.2898 87.14 42.7098 87.14ZM42.7098 86.07C43.2398 86.07 43.6598 85.87 43.9698 85.47C44.2831 85.07 44.4398 84.4933 44.4398 83.74C44.4398 83.0133 44.2831 82.4483 43.9698 82.045C43.6598 81.6417 43.2398 81.44 42.7098 81.44C42.1898 81.44 41.7731 81.6433 41.4598 82.05C41.1465 82.4533 40.9898 83.02 40.9898 83.75C40.9898 84.5 41.1465 85.075 41.4598 85.475C41.7731 85.8717 42.1898 86.07 42.7098 86.07ZM47.036 80.51H48.326L51.276 85.14H51.186V80.51H52.366V87H51.166L48.026 82.09H48.216V87H47.036V80.51ZM53.5139 87L55.7239 80.51H57.2039L59.3239 87H58.0839L57.6339 85.6H55.2239L54.7639 87H53.5139ZM55.5239 84.71H57.3539L56.4439 81.92L55.5239 84.71ZM61.6637 80.51V85.97H64.3337V87H60.4837V80.51H61.6637ZM10.4495 103V96.51H12.8495C13.6262 96.51 14.2212 96.6917 14.6345 97.055C15.0512 97.4183 15.2595 97.9 15.2595 98.5C15.2595 99.09 15.0512 99.5667 14.6345 99.93C14.2212 100.29 13.6262 100.47 12.8495 100.47H11.6295V103H10.4495ZM13.9595 103L12.2395 99.96H13.4995L15.4995 103H13.9595ZM11.6295 99.68H12.7295C13.1629 99.68 13.4912 99.5817 13.7145 99.385C13.9379 99.185 14.0495 98.9267 14.0495 98.61C14.0495 98.2867 13.9479 98.0267 13.7445 97.83C13.5412 97.63 13.2429 97.53 12.8495 97.53H11.6295V99.68ZM16.8751 103V96.51H21.0451V97.53H18.0551V99.24H20.8651V100.26H18.0551V101.97H21.0451V103H16.8751ZM25.0142 103.14C24.5642 103.14 24.1492 103.062 23.7692 102.905C23.3926 102.748 23.0859 102.51 22.8492 102.19C22.6159 101.87 22.4909 101.463 22.4742 100.97H23.6342C23.6342 101.22 23.6959 101.425 23.8192 101.585C23.9426 101.745 24.1076 101.865 24.3142 101.945C24.5242 102.022 24.7542 102.06 25.0042 102.06C25.2442 102.06 25.4576 102.028 25.6442 101.965C25.8342 101.902 25.9826 101.812 26.0892 101.695C26.1992 101.575 26.2542 101.433 26.2542 101.27C26.2542 101.053 26.1876 100.883 26.0542 100.76C25.9242 100.637 25.7142 100.523 25.4242 100.42L24.1442 99.91C23.6442 99.7133 23.2609 99.485 22.9942 99.225C22.7276 98.965 22.5942 98.6067 22.5942 98.15C22.5942 97.6233 22.8026 97.1967 23.2192 96.87C23.6359 96.5433 24.2176 96.38 24.9642 96.38C25.6909 96.38 26.2526 96.55 26.6492 96.89C27.0459 97.2267 27.2709 97.6967 27.3242 98.3H26.1642C26.1209 98.0433 26.0042 97.8383 25.8142 97.685C25.6242 97.5283 25.3409 97.45 24.9642 97.45C24.6309 97.45 24.3676 97.52 24.1742 97.66C23.9809 97.7967 23.8842 97.97 23.8842 98.18C23.8842 98.36 23.9442 98.5033 24.0642 98.61C24.1876 98.7133 24.3776 98.8133 24.6342 98.91L26.0542 99.46C26.5342 99.6467 26.9026 99.8817 27.1592 100.165C27.4159 100.448 27.5442 100.803 27.5442 101.23C27.5442 101.62 27.4459 101.958 27.2492 102.245C27.0526 102.528 26.7659 102.748 26.3892 102.905C26.0126 103.062 25.5542 103.14 25.0142 103.14ZM29.1312 103V96.51H30.3112V103H29.1312ZM33.358 96.51V101.97H36.028V103H32.178V96.51H33.358ZM37.1195 103V96.51H38.2995V103H37.1195ZM40.1563 103V96.51H44.3263V97.53H41.3363V99.24H44.1463V100.26H41.3363V101.97H44.3263V103H40.1563ZM46.0155 96.51H47.3055L50.2555 101.14H50.1655V96.51H51.3455V103H50.1455L47.0055 98.09H47.1955V103H46.0155V96.51ZM55.5634 103.14C54.9934 103.14 54.4968 103.005 54.0734 102.735C53.6534 102.462 53.3268 102.072 53.0934 101.565C52.8601 101.058 52.7434 100.45 52.7434 99.74C52.7434 99.0067 52.8634 98.3917 53.1034 97.895C53.3468 97.395 53.6801 97.0183 54.1034 96.765C54.5301 96.5083 55.0168 96.38 55.5634 96.38C56.3201 96.38 56.9101 96.5633 57.3334 96.93C57.7601 97.2967 58.0334 97.7733 58.1534 98.36L56.8934 98.59C56.7901 98.25 56.6251 97.975 56.3984 97.765C56.1718 97.555 55.8934 97.45 55.5634 97.45C55.2734 97.45 55.0118 97.535 54.7784 97.705C54.5451 97.8717 54.3584 98.125 54.2184 98.465C54.0818 98.805 54.0134 99.23 54.0134 99.74C54.0134 100.22 54.0734 100.633 54.1934 100.98C54.3168 101.327 54.4934 101.593 54.7234 101.78C54.9534 101.967 55.2334 102.06 55.5634 102.06C55.9868 102.06 56.3134 101.948 56.5434 101.725C56.7768 101.498 56.8934 101.21 56.8934 100.86H58.1534C58.1534 101.343 58.0484 101.755 57.8384 102.095C57.6318 102.432 57.3351 102.69 56.9484 102.87C56.5618 103.05 56.1001 103.14 55.5634 103.14ZM59.5313 103V96.51H63.7013V97.53H60.7113V99.24H63.5213V100.26H60.7113V101.97H63.7013V103H59.5313Z" fill="black"/>
</svg>
