<svg width="40" height="40" viewBox="0 0 40 40" fill="none" xmlns="http://www.w3.org/2000/svg">
<path d="M20 24C22.2091 24 24 22.2091 24 20C24 17.7909 22.2091 16 20 16C17.7909 16 16 17.7909 16 20C16 22.2091 17.7909 24 20 24Z" fill="black"/>
<path d="M21 12.069V10H19V12.069C17.2403 12.2937 15.605 13.0962 14.3506 14.3506C13.0962 15.605 12.2937 17.2403 12.069 19H10V21H12.069C12.2934 22.7598 13.0957 24.3953 14.3502 25.6498C15.6047 26.9043 17.2402 27.7066 19 27.931V30H21V27.931C22.7599 27.7068 24.3955 26.9045 25.65 25.65C26.9045 24.3955 27.7068 22.7599 27.931 21H30V19H27.931C27.7066 17.2402 26.9043 15.6047 25.6498 14.3502C24.3953 13.0957 22.7598 12.2934 21 12.069ZM20 26C16.691 26 14 23.309 14 20C14 16.691 16.691 14 20 14C23.309 14 26 16.691 26 20C26 23.309 23.309 26 20 26Z" fill="black"/>
<path d="M20 39C9.50659 39 1 30.4934 1 20H-1C-1 31.598 8.40202 41 20 41V39ZM39 20C39 30.4934 30.4934 39 20 39V41C31.598 41 41 31.598 41 20H39ZM20 1C30.4934 1 39 9.50659 39 20H41C41 8.40202 31.598 -1 20 -1V1ZM20 -1C8.40202 -1 -1 8.40202 -1 20H1C1 9.50659 9.50659 1 20 1V-1Z" fill="black"/>
</svg>
