<svg width="87" height="107" viewBox="0 0 87 107" fill="none" xmlns="http://www.w3.org/2000/svg">
<path d="M17.3443 70.14C16.8943 70.14 16.4793 70.0617 16.0993 69.905C15.7226 69.7483 15.416 69.51 15.1793 69.19C14.946 68.87 14.821 68.4633 14.8043 67.97H15.9643C15.9643 68.22 16.026 68.425 16.1493 68.585C16.2726 68.745 16.4376 68.865 16.6443 68.945C16.8543 69.0217 17.0843 69.06 17.3343 69.06C17.5743 69.06 17.7876 69.0283 17.9743 68.965C18.1643 68.9017 18.3126 68.8117 18.4193 68.695C18.5293 68.575 18.5843 68.4333 18.5843 68.27C18.5843 68.0533 18.5176 67.8833 18.3843 67.76C18.2543 67.6367 18.0443 67.5233 17.7543 67.42L16.4743 66.91C15.9743 66.7133 15.591 66.485 15.3243 66.225C15.0576 65.965 14.9243 65.6067 14.9243 65.15C14.9243 64.6233 15.1326 64.1967 15.5493 63.87C15.966 63.5433 16.5476 63.38 17.2943 63.38C18.021 63.38 18.5826 63.55 18.9793 63.89C19.376 64.2267 19.601 64.6967 19.6543 65.3H18.4943C18.451 65.0433 18.3343 64.8383 18.1443 64.685C17.9543 64.5283 17.671 64.45 17.2943 64.45C16.961 64.45 16.6976 64.52 16.5043 64.66C16.311 64.7967 16.2143 64.97 16.2143 65.18C16.2143 65.36 16.2743 65.5033 16.3943 65.61C16.5176 65.7133 16.7076 65.8133 16.9643 65.91L18.3843 66.46C18.8643 66.6467 19.2326 66.8817 19.4893 67.165C19.746 67.4483 19.8743 67.8033 19.8743 68.23C19.8743 68.62 19.776 68.9583 19.5793 69.245C19.3826 69.5283 19.096 69.7483 18.7193 69.905C18.3426 70.0617 17.8843 70.14 17.3443 70.14ZM20.5913 64.53V63.51H25.7913V64.53H23.5163L23.7813 64.26V70H22.6013V64.26L22.8663 64.53H20.5913ZM26.7738 70V63.51H27.9538V70H26.7738ZM29.8206 63.51H31.5106L33.3406 67.48H33.2406L35.0706 63.51H36.7006V70H35.5106V64.87H35.6906L33.6706 69.29H32.9006L30.8906 64.89H31.0006V70H29.8206V63.51ZM38.4609 63.51H39.6409V67.55C39.6409 68.0833 39.7759 68.4683 40.0459 68.705C40.3192 68.9417 40.6675 69.06 41.0909 69.06C41.5175 69.06 41.8659 68.9417 42.1359 68.705C42.4059 68.4683 42.5409 68.0833 42.5409 67.55V63.51H43.7209V67.55C43.7209 68.0967 43.6159 68.5633 43.4059 68.95C43.1959 69.3367 42.8942 69.6317 42.5009 69.835C42.1109 70.0383 41.6409 70.14 41.0909 70.14C40.5409 70.14 40.0692 70.0383 39.6759 69.835C39.2859 69.6317 38.9859 69.3367 38.7759 68.95C38.5659 68.5633 38.4609 68.0967 38.4609 67.55V63.51ZM46.6452 63.51V68.97H49.3152V70H45.4652V63.51H46.6452ZM49.6966 70L51.9066 63.51H53.3866L55.5066 70H54.2666L53.8166 68.6H51.4066L50.9466 70H49.6966ZM51.7066 67.71H53.5366L52.6266 64.92L51.7066 67.71ZM55.3471 64.53V63.51H60.5471V64.53H58.2721L58.5371 64.26V70H57.3571V64.26L57.6221 64.53H55.3471ZM61.5196 70V63.51H65.6896V64.53H62.6996V66.24H65.5096V67.26H62.6996V68.97H65.6896V70H61.5196ZM69.6588 70.14C69.2088 70.14 68.7938 70.0617 68.4138 69.905C68.0371 69.7483 67.7304 69.51 67.4938 69.19C67.2604 68.87 67.1354 68.4633 67.1188 67.97H68.2788C68.2788 68.22 68.3404 68.425 68.4638 68.585C68.5871 68.745 68.7521 68.865 68.9588 68.945C69.1688 69.0217 69.3988 69.06 69.6488 69.06C69.8888 69.06 70.1021 69.0283 70.2888 68.965C70.4788 68.9017 70.6271 68.8117 70.7338 68.695C70.8438 68.575 70.8988 68.4333 70.8988 68.27C70.8988 68.0533 70.8321 67.8833 70.6988 67.76C70.5688 67.6367 70.3588 67.5233 70.0688 67.42L68.7888 66.91C68.2888 66.7133 67.9054 66.485 67.6388 66.225C67.3721 65.965 67.2388 65.6067 67.2388 65.15C67.2388 64.6233 67.4471 64.1967 67.8638 63.87C68.2804 63.5433 68.8621 63.38 69.6088 63.38C70.3354 63.38 70.8971 63.55 71.2938 63.89C71.6904 64.2267 71.9154 64.6967 71.9688 65.3H70.8088C70.7654 65.0433 70.6488 64.8383 70.4588 64.685C70.2688 64.5283 69.9854 64.45 69.6088 64.45C69.2754 64.45 69.0121 64.52 68.8188 64.66C68.6254 64.7967 68.5288 64.97 68.5288 65.18C68.5288 65.36 68.5888 65.5033 68.7088 65.61C68.8321 65.7133 69.0221 65.8133 69.2788 65.91L70.6988 66.46C71.1788 66.6467 71.5471 66.8817 71.8038 67.165C72.0604 67.4483 72.1888 67.8033 72.1888 68.23C72.1888 68.62 72.0904 68.9583 71.8938 69.245C71.6971 69.5283 71.4104 69.7483 71.0338 69.905C70.6571 70.0617 70.1988 70.14 69.6588 70.14ZM0.643828 86L2.85383 79.51H4.33383L6.45383 86H5.21383L4.76383 84.6H2.35383L1.89383 86H0.643828ZM2.65383 83.71H4.48383L3.57383 80.92L2.65383 83.71ZM7.59359 79.51H8.88359L11.8336 84.14H11.7436V79.51H12.9236V86H11.7236L8.58359 81.09H8.77359V86H7.59359V79.51ZM13.9116 80.53V79.51H19.1116V80.53H16.8366L17.1016 80.26V86H15.9216V80.26L16.1866 80.53H13.9116ZM20.0941 86V79.51H21.2741V86H20.0941ZM22.6709 83.5V82.47H25.4809V83.5H22.6709ZM26.8714 79.51H28.9714C29.6314 79.51 30.2097 79.6433 30.7064 79.91C31.2031 80.1733 31.5897 80.5483 31.8664 81.035C32.1431 81.5217 32.2814 82.0967 32.2814 82.76C32.2814 83.4167 32.1431 83.9883 31.8664 84.475C31.5897 84.9583 31.2031 85.3333 30.7064 85.6C30.2097 85.8667 29.6314 86 28.9714 86H26.8714V79.51ZM28.0514 80.58V84.94H28.9714C29.3914 84.94 29.7531 84.845 30.0564 84.655C30.3631 84.465 30.5981 84.2067 30.7614 83.88C30.9281 83.55 31.0114 83.1767 31.0114 82.76C31.0114 82.3367 30.9281 81.9617 30.7614 81.635C30.5981 81.3083 30.3631 81.0517 30.0564 80.865C29.7531 80.675 29.3914 80.58 28.9714 80.58H28.0514ZM33.7266 86V79.51H37.8966V80.53H34.9066V82.24H37.7166V83.26H34.9066V84.97H37.8966V86H33.7266ZM39.5758 86V79.51H41.8658C42.5958 79.51 43.1641 79.69 43.5708 80.05C43.9808 80.41 44.1858 80.92 44.1858 81.58C44.1858 82.2333 43.9808 82.74 43.5708 83.1C43.1641 83.46 42.5958 83.64 41.8658 83.64H40.7658V86H39.5758ZM40.7658 82.61H41.8658C42.2324 82.61 42.5091 82.5133 42.6958 82.32C42.8824 82.1267 42.9758 81.88 42.9758 81.58C42.9758 81.2733 42.8824 81.0217 42.6958 80.825C42.5091 80.6283 42.2324 80.53 41.8658 80.53H40.7658V82.61ZM45.4066 86V79.51H47.8066C48.5832 79.51 49.1782 79.6917 49.5916 80.055C50.0082 80.4183 50.2166 80.9 50.2166 81.5C50.2166 82.09 50.0082 82.5667 49.5916 82.93C49.1782 83.29 48.5832 83.47 47.8066 83.47H46.5866V86H45.4066ZM48.9166 86L47.1966 82.96H48.4566L50.4566 86H48.9166ZM46.5866 82.68H47.6866C48.1199 82.68 48.4482 82.5817 48.6716 82.385C48.8949 82.185 49.0066 81.9267 49.0066 81.61C49.0066 81.2867 48.9049 81.0267 48.7016 80.83C48.4982 80.63 48.1999 80.53 47.8066 80.53H46.5866V82.68ZM51.8321 86V79.51H56.0021V80.53H53.0121V82.24H55.8221V83.26H53.0121V84.97H56.0021V86H51.8321ZM59.9713 86.14C59.5213 86.14 59.1063 86.0617 58.7263 85.905C58.3496 85.7483 58.0429 85.51 57.8063 85.19C57.5729 84.87 57.4479 84.4633 57.4313 83.97H58.5913C58.5913 84.22 58.6529 84.425 58.7763 84.585C58.8996 84.745 59.0646 84.865 59.2713 84.945C59.4813 85.0217 59.7113 85.06 59.9613 85.06C60.2013 85.06 60.4146 85.0283 60.6013 84.965C60.7913 84.9017 60.9396 84.8117 61.0463 84.695C61.1563 84.575 61.2113 84.4333 61.2113 84.27C61.2113 84.0533 61.1446 83.8833 61.0113 83.76C60.8813 83.6367 60.6713 83.5233 60.3813 83.42L59.1013 82.91C58.6013 82.7133 58.2179 82.485 57.9513 82.225C57.6846 81.965 57.5513 81.6067 57.5513 81.15C57.5513 80.6233 57.7596 80.1967 58.1763 79.87C58.5929 79.5433 59.1746 79.38 59.9213 79.38C60.6479 79.38 61.2096 79.55 61.6063 79.89C62.0029 80.2267 62.2279 80.6967 62.2813 81.3H61.1213C61.0779 81.0433 60.9613 80.8383 60.7713 80.685C60.5813 80.5283 60.2979 80.45 59.9213 80.45C59.5879 80.45 59.3246 80.52 59.1313 80.66C58.9379 80.7967 58.8413 80.97 58.8413 81.18C58.8413 81.36 58.9013 81.5033 59.0213 81.61C59.1446 81.7133 59.3346 81.8133 59.5913 81.91L61.0113 82.46C61.4913 82.6467 61.8596 82.8817 62.1163 83.165C62.3729 83.4483 62.5013 83.8033 62.5013 84.23C62.5013 84.62 62.4029 84.9583 62.2063 85.245C62.0096 85.5283 61.7229 85.7483 61.3463 85.905C60.9696 86.0617 60.5113 86.14 59.9713 86.14ZM66.3482 86.14C65.8982 86.14 65.4832 86.0617 65.1032 85.905C64.7265 85.7483 64.4199 85.51 64.1832 85.19C63.9499 84.87 63.8249 84.4633 63.8082 83.97H64.9682C64.9682 84.22 65.0299 84.425 65.1532 84.585C65.2765 84.745 65.4415 84.865 65.6482 84.945C65.8582 85.0217 66.0882 85.06 66.3382 85.06C66.5782 85.06 66.7915 85.0283 66.9782 84.965C67.1682 84.9017 67.3165 84.8117 67.4232 84.695C67.5332 84.575 67.5882 84.4333 67.5882 84.27C67.5882 84.0533 67.5215 83.8833 67.3882 83.76C67.2582 83.6367 67.0482 83.5233 66.7582 83.42L65.4782 82.91C64.9782 82.7133 64.5949 82.485 64.3282 82.225C64.0615 81.965 63.9282 81.6067 63.9282 81.15C63.9282 80.6233 64.1365 80.1967 64.5532 79.87C64.9699 79.5433 65.5515 79.38 66.2982 79.38C67.0249 79.38 67.5865 79.55 67.9832 79.89C68.3799 80.2267 68.6049 80.6967 68.6582 81.3H67.4982C67.4549 81.0433 67.3382 80.8383 67.1482 80.685C66.9582 80.5283 66.6749 80.45 66.2982 80.45C65.9649 80.45 65.7015 80.52 65.5082 80.66C65.3149 80.7967 65.2182 80.97 65.2182 81.18C65.2182 81.36 65.2782 81.5033 65.3982 81.61C65.5215 81.7133 65.7115 81.8133 65.9682 81.91L67.3882 82.46C67.8682 82.6467 68.2365 82.8817 68.4932 83.165C68.7499 83.4483 68.8782 83.8033 68.8782 84.23C68.8782 84.62 68.7799 84.9583 68.5832 85.245C68.3865 85.5283 68.0999 85.7483 67.7232 85.905C67.3465 86.0617 66.8882 86.14 66.3482 86.14ZM70.4652 86V79.51H71.6452V86H70.4652ZM75.992 86.14C75.4154 86.14 74.9054 86.0133 74.462 85.76C74.022 85.5067 73.677 85.1283 73.427 84.625C73.177 84.1217 73.052 83.4967 73.052 82.75C73.052 81.99 73.177 81.3617 73.427 80.865C73.677 80.365 74.022 79.9933 74.462 79.75C74.9054 79.5033 75.4154 79.38 75.992 79.38C76.572 79.38 77.0837 79.5067 77.527 79.76C77.9704 80.01 78.317 80.385 78.567 80.885C78.817 81.385 78.942 82.0067 78.942 82.75C78.942 83.5067 78.817 84.1367 78.567 84.64C78.317 85.1433 77.9704 85.52 77.527 85.77C77.0837 86.0167 76.572 86.14 75.992 86.14ZM75.992 85.07C76.522 85.07 76.942 84.87 77.252 84.47C77.5654 84.07 77.722 83.4933 77.722 82.74C77.722 82.0133 77.5654 81.4483 77.252 81.045C76.942 80.6417 76.522 80.44 75.992 80.44C75.472 80.44 75.0554 80.6433 74.742 81.05C74.4287 81.4533 74.272 82.02 74.272 82.75C74.272 83.5 74.4287 84.075 74.742 84.475C75.0554 84.8717 75.472 85.07 75.992 85.07ZM80.3182 79.51H81.6082L84.5582 84.14H84.4682V79.51H85.6482V86H84.4482L81.3082 81.09H81.4982V86H80.3182V79.51ZM16.7835 95.51H17.9635V98.22H20.7935V95.51H21.9735V102H20.7935V99.25H17.9635V102H16.7835V95.51ZM26.3143 102.14C25.7376 102.14 25.2276 102.013 24.7843 101.76C24.3443 101.507 23.9993 101.128 23.7493 100.625C23.4993 100.122 23.3743 99.4967 23.3743 98.75C23.3743 97.99 23.4993 97.3617 23.7493 96.865C23.9993 96.365 24.3443 95.9933 24.7843 95.75C25.2276 95.5033 25.7376 95.38 26.3143 95.38C26.8943 95.38 27.406 95.5067 27.8493 95.76C28.2926 96.01 28.6393 96.385 28.8893 96.885C29.1393 97.385 29.2643 98.0067 29.2643 98.75C29.2643 99.5067 29.1393 100.137 28.8893 100.64C28.6393 101.143 28.2926 101.52 27.8493 101.77C27.406 102.017 26.8943 102.14 26.3143 102.14ZM26.3143 101.07C26.8443 101.07 27.2643 100.87 27.5743 100.47C27.8876 100.07 28.0443 99.4933 28.0443 98.74C28.0443 98.0133 27.8876 97.4483 27.5743 97.045C27.2643 96.6417 26.8443 96.44 26.3143 96.44C25.7943 96.44 25.3776 96.6433 25.0643 97.05C24.751 97.4533 24.5943 98.02 24.5943 98.75C24.5943 99.5 24.751 100.075 25.0643 100.475C25.3776 100.872 25.7943 101.07 26.3143 101.07ZM30.6605 102V95.51H33.0605C33.8371 95.51 34.4321 95.6917 34.8455 96.055C35.2621 96.4183 35.4705 96.9 35.4705 97.5C35.4705 98.09 35.2621 98.5667 34.8455 98.93C34.4321 99.29 33.8371 99.47 33.0605 99.47H31.8405V102H30.6605ZM34.1705 102L32.4505 98.96H33.7105L35.7105 102H34.1705ZM31.8405 98.68H32.9405C33.3738 98.68 33.7021 98.5817 33.9255 98.385C34.1488 98.185 34.2605 97.9267 34.2605 97.61C34.2605 97.2867 34.1588 97.0267 33.9555 96.83C33.7521 96.63 33.4538 96.53 33.0605 96.53H31.8405V98.68ZM37.096 95.51H38.786L40.616 99.48H40.516L42.346 95.51H43.976V102H42.786V96.87H42.966L40.946 101.29H40.176L38.166 96.89H38.276V102H37.096V95.51ZM48.3163 102.14C47.7396 102.14 47.2296 102.013 46.7863 101.76C46.3463 101.507 46.0013 101.128 45.7513 100.625C45.5013 100.122 45.3763 99.4967 45.3763 98.75C45.3763 97.99 45.5013 97.3617 45.7513 96.865C46.0013 96.365 46.3463 95.9933 46.7863 95.75C47.2296 95.5033 47.7396 95.38 48.3163 95.38C48.8963 95.38 49.4079 95.5067 49.8513 95.76C50.2946 96.01 50.6413 96.385 50.8913 96.885C51.1413 97.385 51.2663 98.0067 51.2663 98.75C51.2663 99.5067 51.1413 100.137 50.8913 100.64C50.6413 101.143 50.2946 101.52 49.8513 101.77C49.4079 102.017 48.8963 102.14 48.3163 102.14ZM48.3163 101.07C48.8463 101.07 49.2663 100.87 49.5763 100.47C49.8896 100.07 50.0462 99.4933 50.0462 98.74C50.0462 98.0133 49.8896 97.4483 49.5763 97.045C49.2663 96.6417 48.8463 96.44 48.3163 96.44C47.7963 96.44 47.3796 96.6433 47.0663 97.05C46.7529 97.4533 46.5963 98.02 46.5963 98.75C46.5963 99.5 46.7529 100.075 47.0663 100.475C47.3796 100.872 47.7963 101.07 48.3163 101.07ZM52.6424 95.51H53.9324L56.8824 100.14H56.7924V95.51H57.9724V102H56.7724L53.6324 97.09H53.8224V102H52.6424V95.51ZM59.8204 102V95.51H63.9904V96.53H61.0004V98.24H63.8104V99.26H61.0004V100.97H63.9904V102H59.8204ZM67.9595 102.14C67.5095 102.14 67.0945 102.062 66.7145 101.905C66.3379 101.748 66.0312 101.51 65.7945 101.19C65.5612 100.87 65.4362 100.463 65.4195 99.97H66.5795C66.5795 100.22 66.6412 100.425 66.7645 100.585C66.8879 100.745 67.0529 100.865 67.2595 100.945C67.4695 101.022 67.6995 101.06 67.9495 101.06C68.1895 101.06 68.4029 101.028 68.5895 100.965C68.7795 100.902 68.9279 100.812 69.0345 100.695C69.1445 100.575 69.1995 100.433 69.1995 100.27C69.1995 100.053 69.1329 99.8833 68.9995 99.76C68.8695 99.6367 68.6595 99.5233 68.3695 99.42L67.0895 98.91C66.5895 98.7133 66.2062 98.485 65.9395 98.225C65.6729 97.965 65.5395 97.6067 65.5395 97.15C65.5395 96.6233 65.7479 96.1967 66.1645 95.87C66.5812 95.5433 67.1629 95.38 67.9095 95.38C68.6362 95.38 69.1979 95.55 69.5945 95.89C69.9912 96.2267 70.2162 96.6967 70.2695 97.3H69.1095C69.0662 97.0433 68.9495 96.8383 68.7595 96.685C68.5695 96.5283 68.2862 96.45 67.9095 96.45C67.5762 96.45 67.3129 96.52 67.1195 96.66C66.9262 96.7967 66.8295 96.97 66.8295 97.18C66.8295 97.36 66.8895 97.5033 67.0095 97.61C67.1329 97.7133 67.3229 97.8133 67.5795 97.91L68.9995 98.46C69.4795 98.6467 69.8479 98.8817 70.1045 99.165C70.3612 99.4483 70.4895 99.8033 70.4895 100.23C70.4895 100.62 70.3912 100.958 70.1945 101.245C69.9979 101.528 69.7112 101.748 69.3345 101.905C68.9579 102.062 68.4995 102.14 67.9595 102.14Z" fill="black"/>
<rect x="13.1081" width="57.7703" height="57" rx="5" fill="#001E4E"/>
<path d="M42 15.75C35.7868 15.75 30.75 20.7868 30.75 27C30.75 33.2132 35.7868 38.25 42 38.25C48.2132 38.25 53.25 33.2132 53.25 27C53.25 20.7868 48.2132 15.75 42 15.75ZM48.8943 33.8943C47.1848 35.5987 44.9019 36.6056 42.4906 36.7188C40.0792 36.832 37.7121 36.0434 35.8504 34.5066C33.9888 32.9698 32.7659 30.795 32.4202 28.4059C32.0745 26.0168 32.6306 23.5845 33.9802 21.583C35.3298 19.5815 37.3763 18.1542 39.7208 17.5792C42.0653 17.0041 44.54 17.3226 46.6625 18.4724C48.7851 19.6223 50.4035 21.5212 51.2025 23.7991C52.0014 26.0771 51.9237 28.5709 50.9844 30.7947C50.4948 31.9534 49.785 33.0061 48.8943 33.8943Z" fill="white"/>
<path d="M42 33.0002C43.2929 33.0002 44.5329 32.4866 45.4471 31.5723C46.3614 30.6581 46.875 29.4181 46.875 28.1252H37.125C37.125 29.4181 37.6386 30.6581 38.5528 31.5723C39.4671 32.4866 40.707 33.0002 42 33.0002ZM39.6448 25.7014L40.6051 24.549L37.875 22.2739L35.1448 24.549L36.1051 25.7014L37.875 24.2265L39.6448 25.7014ZM43.3948 24.549L44.3551 25.7014L46.125 24.2265L47.8948 25.7014L48.8551 24.549L46.125 22.2739L43.3948 24.549Z" fill="white"/>
</svg>
