<svg width="74" height="103" viewBox="0 0 74 103" fill="none" xmlns="http://www.w3.org/2000/svg">
<path d="M4.51004 70L6.72004 63.51H8.20004L10.32 70H9.08004L8.63004 68.6H6.22004L5.76004 70H4.51004ZM6.52004 67.71H8.35004L7.44004 64.92L6.52004 67.71ZM13.8398 70.14C13.2698 70.14 12.7731 70.005 12.3498 69.735C11.9298 69.4617 11.6031 69.0717 11.3698 68.565C11.1365 68.0583 11.0198 67.45 11.0198 66.74C11.0198 66.0067 11.1398 65.3917 11.3798 64.895C11.6231 64.395 11.9565 64.0183 12.3798 63.765C12.8065 63.5083 13.2931 63.38 13.8398 63.38C14.5965 63.38 15.1865 63.5633 15.6098 63.93C16.0365 64.2967 16.3098 64.7733 16.4298 65.36L15.1698 65.59C15.0665 65.25 14.9015 64.975 14.6748 64.765C14.4481 64.555 14.1698 64.45 13.8398 64.45C13.5498 64.45 13.2881 64.535 13.0548 64.705C12.8215 64.8717 12.6348 65.125 12.4948 65.465C12.3581 65.805 12.2898 66.23 12.2898 66.74C12.2898 67.22 12.3498 67.6333 12.4698 67.98C12.5931 68.3267 12.7698 68.5933 12.9998 68.78C13.2298 68.9667 13.5098 69.06 13.8398 69.06C14.2631 69.06 14.5898 68.9483 14.8198 68.725C15.0531 68.4983 15.1698 68.21 15.1698 67.86H16.4298C16.4298 68.3433 16.3248 68.755 16.1148 69.095C15.9081 69.4317 15.6115 69.69 15.2248 69.87C14.8381 70.05 14.3765 70.14 13.8398 70.14ZM20.1777 70.14C19.6077 70.14 19.111 70.005 18.6877 69.735C18.2677 69.4617 17.941 69.0717 17.7077 68.565C17.4744 68.0583 17.3577 67.45 17.3577 66.74C17.3577 66.0067 17.4777 65.3917 17.7177 64.895C17.961 64.395 18.2944 64.0183 18.7177 63.765C19.1444 63.5083 19.631 63.38 20.1777 63.38C20.9344 63.38 21.5244 63.5633 21.9477 63.93C22.3744 64.2967 22.6477 64.7733 22.7677 65.36L21.5077 65.59C21.4044 65.25 21.2394 64.975 21.0127 64.765C20.786 64.555 20.5077 64.45 20.1777 64.45C19.8877 64.45 19.626 64.535 19.3927 64.705C19.1594 64.8717 18.9727 65.125 18.8327 65.465C18.696 65.805 18.6277 66.23 18.6277 66.74C18.6277 67.22 18.6877 67.6333 18.8077 67.98C18.931 68.3267 19.1077 68.5933 19.3377 68.78C19.5677 68.9667 19.8477 69.06 20.1777 69.06C20.601 69.06 20.9277 68.9483 21.1577 68.725C21.391 68.4983 21.5077 68.21 21.5077 67.86H22.7677C22.7677 68.3433 22.6627 68.755 22.4527 69.095C22.246 69.4317 21.9494 69.69 21.5627 69.87C21.176 70.05 20.7144 70.14 20.1777 70.14ZM24.1456 70V63.51H28.3156V64.53H25.3256V66.24H28.1356V67.26H25.3256V68.97H28.3156V70H24.1456ZM31.2047 63.51V68.97H33.8747V70H30.0247V63.51H31.2047ZM34.9561 70V63.51H39.1261V64.53H36.1361V66.24H38.9461V67.26H36.1361V68.97H39.1261V70H34.9561ZM40.8353 70V63.51H43.2353C44.0119 63.51 44.6069 63.6917 45.0203 64.055C45.4369 64.4183 45.6453 64.9 45.6453 65.5C45.6453 66.09 45.4369 66.5667 45.0203 66.93C44.6069 67.29 44.0119 67.47 43.2353 67.47H42.0153V70H40.8353ZM44.3453 70L42.6253 66.96H43.8853L45.8853 70H44.3453ZM42.0153 66.68H43.1153C43.5486 66.68 43.8769 66.5817 44.1003 66.385C44.3236 66.185 44.4353 65.9267 44.4353 65.61C44.4353 65.2867 44.3336 65.0267 44.1303 64.83C43.9269 64.63 43.6286 64.53 43.2353 64.53H42.0153V66.68ZM46.5608 70L48.7708 63.51H50.2508L52.3708 70H51.1308L50.6808 68.6H48.2708L47.8108 70H46.5608ZM48.5708 67.71H50.4008L49.4908 64.92L48.5708 67.71ZM52.2114 64.53V63.51H57.4114V64.53H55.1364L55.4014 64.26V70H54.2214V64.26L54.4864 64.53H52.2114ZM58.3839 70V63.51H62.5539V64.53H59.5639V66.24H62.3739V67.26H59.5639V68.97H62.5539V70H58.3839ZM66.523 70.14C66.073 70.14 65.658 70.0617 65.278 69.905C64.9013 69.7483 64.5947 69.51 64.358 69.19C64.1247 68.87 63.9997 68.4633 63.983 67.97H65.143C65.143 68.22 65.2047 68.425 65.328 68.585C65.4513 68.745 65.6163 68.865 65.823 68.945C66.033 69.0217 66.263 69.06 66.513 69.06C66.753 69.06 66.9663 69.0283 67.153 68.965C67.343 68.9017 67.4913 68.8117 67.598 68.695C67.708 68.575 67.763 68.4333 67.763 68.27C67.763 68.0533 67.6963 67.8833 67.563 67.76C67.433 67.6367 67.223 67.5233 66.933 67.42L65.653 66.91C65.153 66.7133 64.7697 66.485 64.503 66.225C64.2363 65.965 64.103 65.6067 64.103 65.15C64.103 64.6233 64.3113 64.1967 64.728 63.87C65.1447 63.5433 65.7263 63.38 66.473 63.38C67.1997 63.38 67.7613 63.55 68.158 63.89C68.5547 64.2267 68.7797 64.6967 68.833 65.3H67.673C67.6297 65.0433 67.513 64.8383 67.323 64.685C67.133 64.5283 66.8497 64.45 66.473 64.45C66.1397 64.45 65.8763 64.52 65.683 64.66C65.4897 64.7967 65.393 64.97 65.393 65.18C65.393 65.36 65.453 65.5033 65.573 65.61C65.6963 65.7133 65.8863 65.8133 66.143 65.91L67.563 66.46C68.043 66.6467 68.4113 66.8817 68.668 67.165C68.9247 67.4483 69.053 67.8033 69.053 68.23C69.053 68.62 68.9547 68.9583 68.758 69.245C68.5613 69.5283 68.2747 69.7483 67.898 69.905C67.5213 70.0617 67.063 70.14 66.523 70.14ZM24.1501 79.51H25.5501L27.1001 82.3H26.8701L28.4801 79.51H29.8701L27.5601 83.32V86H26.3801V83.32L24.1501 79.51ZM33.1639 86.14C32.5872 86.14 32.0772 86.0133 31.6339 85.76C31.1939 85.5067 30.8489 85.1283 30.5989 84.625C30.3489 84.1217 30.2239 83.4967 30.2239 82.75C30.2239 81.99 30.3489 81.3617 30.5989 80.865C30.8489 80.365 31.1939 79.9933 31.6339 79.75C32.0772 79.5033 32.5872 79.38 33.1639 79.38C33.7439 79.38 34.2556 79.5067 34.6989 79.76C35.1422 80.01 35.4889 80.385 35.7389 80.885C35.9889 81.385 36.1139 82.0067 36.1139 82.75C36.1139 83.5067 35.9889 84.1367 35.7389 84.64C35.4889 85.1433 35.1422 85.52 34.6989 85.77C34.2556 86.0167 33.7439 86.14 33.1639 86.14ZM33.1639 85.07C33.6939 85.07 34.1139 84.87 34.4239 84.47C34.7372 84.07 34.8939 83.4933 34.8939 82.74C34.8939 82.0133 34.7372 81.4483 34.4239 81.045C34.1139 80.6417 33.6939 80.44 33.1639 80.44C32.6439 80.44 32.2272 80.6433 31.9139 81.05C31.6006 81.4533 31.4439 82.02 31.4439 82.75C31.4439 83.5 31.6006 84.075 31.9139 84.475C32.2272 84.8717 32.6439 85.07 33.1639 85.07ZM37.4101 79.51H38.5901V83.55C38.5901 84.0833 38.7251 84.4683 38.9951 84.705C39.2684 84.9417 39.6167 85.06 40.0401 85.06C40.4667 85.06 40.8151 84.9417 41.0851 84.705C41.3551 84.4683 41.4901 84.0833 41.4901 83.55V79.51H42.6701V83.55C42.6701 84.0967 42.5651 84.5633 42.3551 84.95C42.1451 85.3367 41.8434 85.6317 41.4501 85.835C41.0601 86.0383 40.5901 86.14 40.0401 86.14C39.4901 86.14 39.0184 86.0383 38.6251 85.835C38.2351 85.6317 37.9351 85.3367 37.7251 84.95C37.5151 84.5633 37.4101 84.0967 37.4101 83.55V79.51ZM44.4144 86V79.51H46.8144C47.591 79.51 48.186 79.6917 48.5994 80.055C49.016 80.4183 49.2244 80.9 49.2244 81.5C49.2244 82.09 49.016 82.5667 48.5994 82.93C48.186 83.29 47.591 83.47 46.8144 83.47H45.5944V86H44.4144ZM47.9244 86L46.2044 82.96H47.4644L49.4644 86H47.9244ZM45.5944 82.68H46.6944C47.1277 82.68 47.456 82.5817 47.6794 82.385C47.9027 82.185 48.0144 81.9267 48.0144 81.61C48.0144 81.2867 47.9127 81.0267 47.7094 80.83C47.506 80.63 47.2077 80.53 46.8144 80.53H45.5944V82.68ZM6.85578 95.51H8.54578L10.3758 99.48H10.2758L12.1058 95.51H13.7358V102H12.5458V96.87H12.7258L10.7058 101.29H9.93578L7.92578 96.89H8.03578V102H6.85578V95.51ZM15.586 102V95.51H19.756V96.53H16.766V98.24H19.576V99.26H16.766V100.97H19.756V102H15.586ZM20.5952 96.53V95.51H25.7952V96.53H23.5202L23.7852 96.26V102H22.6052V96.26L22.8702 96.53H20.5952ZM25.6184 102L27.8284 95.51H29.3084L31.4284 102H30.1884L29.7384 100.6H27.3284L26.8684 102H25.6184ZM27.6284 99.71H29.4584L28.5484 96.92L27.6284 99.71ZM32.5882 102V95.51H35.2082C35.7082 95.51 36.1232 95.5883 36.4532 95.745C36.7832 95.8983 37.0299 96.105 37.1932 96.365C37.3565 96.625 37.4382 96.9133 37.4382 97.23C37.4382 97.5967 37.3349 97.91 37.1282 98.17C36.9249 98.43 36.6382 98.6133 36.2682 98.72C36.5115 98.77 36.7299 98.8617 36.9232 98.995C37.1165 99.1283 37.2682 99.2967 37.3782 99.5C37.4915 99.7033 37.5482 99.9367 37.5482 100.2C37.5482 100.407 37.5115 100.615 37.4382 100.825C37.3682 101.035 37.2449 101.23 37.0682 101.41C36.8949 101.587 36.6565 101.73 36.3532 101.84C36.0532 101.947 35.6749 102 35.2182 102H32.5882ZM33.7682 100.97H35.1882C35.5649 100.97 35.8399 100.895 36.0132 100.745C36.1899 100.592 36.2782 100.387 36.2782 100.13C36.2782 99.8733 36.1882 99.6683 36.0082 99.515C35.8282 99.3583 35.5549 99.28 35.1882 99.28H33.7682V100.97ZM33.7682 96.53V98.25H35.1582C35.5082 98.25 35.7732 98.1733 35.9532 98.02C36.1365 97.8633 36.2282 97.65 36.2282 97.38C36.2282 97.1233 36.1382 96.9183 35.9582 96.765C35.7815 96.6083 35.5182 96.53 35.1682 96.53H33.7682ZM41.5526 102.14C40.9759 102.14 40.4659 102.013 40.0226 101.76C39.5826 101.507 39.2376 101.128 38.9876 100.625C38.7376 100.122 38.6126 99.4967 38.6126 98.75C38.6126 97.99 38.7376 97.3617 38.9876 96.865C39.2376 96.365 39.5826 95.9933 40.0226 95.75C40.4659 95.5033 40.9759 95.38 41.5526 95.38C42.1326 95.38 42.6442 95.5067 43.0876 95.76C43.5309 96.01 43.8776 96.385 44.1276 96.885C44.3776 97.385 44.5026 98.0067 44.5026 98.75C44.5026 99.5067 44.3776 100.137 44.1276 100.64C43.8776 101.143 43.5309 101.52 43.0876 101.77C42.6442 102.017 42.1326 102.14 41.5526 102.14ZM41.5526 101.07C42.0826 101.07 42.5026 100.87 42.8126 100.47C43.1259 100.07 43.2826 99.4933 43.2826 98.74C43.2826 98.0133 43.1259 97.4483 42.8126 97.045C42.5026 96.6417 42.0826 96.44 41.5526 96.44C41.0326 96.44 40.6159 96.6433 40.3026 97.05C39.9892 97.4533 39.8326 98.02 39.8326 98.75C39.8326 99.5 39.9892 100.075 40.3026 100.475C40.6159 100.872 41.0326 101.07 41.5526 101.07ZM47.0788 95.51V100.97H49.7488V102H45.8988V95.51H47.0788ZM50.8402 102V95.51H52.0202V102H50.8402ZM56.147 102.14C55.697 102.14 55.282 102.062 54.902 101.905C54.5254 101.748 54.2187 101.51 53.982 101.19C53.7487 100.87 53.6237 100.463 53.607 99.97H54.767C54.767 100.22 54.8287 100.425 54.952 100.585C55.0754 100.745 55.2404 100.865 55.447 100.945C55.657 101.022 55.887 101.06 56.137 101.06C56.377 101.06 56.5904 101.028 56.777 100.965C56.967 100.902 57.1154 100.812 57.222 100.695C57.332 100.575 57.387 100.433 57.387 100.27C57.387 100.053 57.3204 99.8833 57.187 99.76C57.057 99.6367 56.847 99.5233 56.557 99.42L55.277 98.91C54.777 98.7133 54.3937 98.485 54.127 98.225C53.8604 97.965 53.727 97.6067 53.727 97.15C53.727 96.6233 53.9354 96.1967 54.352 95.87C54.7687 95.5433 55.3504 95.38 56.097 95.38C56.8237 95.38 57.3854 95.55 57.782 95.89C58.1787 96.2267 58.4037 96.6967 58.457 97.3H57.297C57.2537 97.0433 57.137 96.8383 56.947 96.685C56.757 96.5283 56.4737 96.45 56.097 96.45C55.7637 96.45 55.5004 96.52 55.307 96.66C55.1137 96.7967 55.017 96.97 55.017 97.18C55.017 97.36 55.077 97.5033 55.197 97.61C55.3204 97.7133 55.5104 97.8133 55.767 97.91L57.187 98.46C57.667 98.6467 58.0354 98.8817 58.292 99.165C58.5487 99.4483 58.677 99.8033 58.677 100.23C58.677 100.62 58.5787 100.958 58.382 101.245C58.1854 101.528 57.8987 101.748 57.522 101.905C57.1454 102.062 56.687 102.14 56.147 102.14ZM60.264 95.51H61.954L63.784 99.48H63.684L65.514 95.51H67.144V102H65.954V96.87H66.134L64.114 101.29H63.344L61.334 96.89H61.444V102H60.264V95.51Z" fill="black"/>
<rect x="9.10809" width="57.7703" height="57" rx="5" fill="#001E4E"/>
<path fill-rule="evenodd" clip-rule="evenodd" d="M33.3575 22.537C33.9475 23.18 34.9445 23.456 36.771 23.495C36.875 22.1155 37.4065 21.029 38.193 20.266C39.067 19.418 40.226 19 41.376 19C42.526 19 43.6855 19.418 44.5595 20.266C45.4395 21.12 46 22.379 46 24V29.5C46 31.041 45.7435 32.6505 44.967 33.89C44.1675 35.1665 42.8475 36 40.872 36C38.851 36 37.4445 34.801 36.158 33.691L36.102 33.643C34.807 32.525 33.5995 31.483 31.8835 31.25C31.042 31.2565 30.4755 31.5135 30.08 31.8655C29.67 32.2305 29.405 32.7325 29.24 33.2715C29.075 33.8095 29.018 34.3565 29.004 34.775C28.9968 34.9865 29 35.1983 29.0135 35.4095C29.0142 35.4203 29.0151 35.4312 29.016 35.442L29.017 35.449V35.4495L28.5195 35.5C28.022 35.551 28.022 35.55 28.022 35.55V35.5485L28.0215 35.544L28.02 35.5305C28.0141 35.4596 28.0096 35.3886 28.0065 35.3175C28.0005 35.177 27.9965 34.9785 28.0045 34.741C28.0205 34.269 28.0845 33.628 28.284 32.9785C28.4825 32.33 28.8245 31.644 29.415 31.1185C30.015 30.5845 30.834 30.25 31.9155 30.25C32.167 30.25 32.404 30.2555 32.6315 30.261C33.0545 30.271 33.4455 30.281 33.8375 30.251C34.415 30.208 34.891 30.0825 35.2845 29.7875C36.038 29.2225 36.6905 27.8755 36.748 24.495C34.8885 24.4565 33.508 24.18 32.621 23.213C32.139 22.688 31.8415 22.0005 31.662 21.15C31.4835 20.303 31.4155 19.2625 31.4155 18H32.4155C32.4155 19.2375 32.483 20.197 32.6405 20.9435C32.7975 21.687 33.037 22.187 33.3575 22.537ZM45 28.1205V24C45 22.621 44.53 21.63 43.863 20.984C43.191 20.332 42.288 20 41.376 20C40.464 20 39.561 20.332 38.889 20.984C38.2225 21.6305 37.7525 22.621 37.7525 24C37.7525 25.3845 37.663 26.52 37.49 27.4475C39.159 26.5455 40.4245 27.1875 41.616 27.793C42.72 28.3535 43.7605 28.882 45 28.1205Z" fill="white"/>
</svg>
