<svg width="24" height="24" viewBox="0 0 24 24" fill="none" xmlns="http://www.w3.org/2000/svg">
<path d="M11.5 5.75C9.43223 5.75 7.75 7.43223 7.75 9.5C7.75 11.5678 9.43223 13.25 11.5 13.25C13.5678 13.25 15.25 11.5678 15.25 9.5C15.25 7.43223 13.5678 5.75 11.5 5.75ZM11.5 12C10.1215 12 9 10.8785 9 9.5C9 8.12148 10.1215 7 11.5 7C12.8785 7 14 8.12148 14 9.5C14 10.8785 12.8785 12 11.5 12ZM11.5 2C7.35785 2 4 5.35785 4 9.5C4 12.5239 5.05352 13.3684 10.7292 21.5965C11.1016 22.1345 11.8983 22.1345 12.2708 21.5965C17.9465 13.3684 19 12.5239 19 9.5C19 5.35785 15.6421 2 11.5 2ZM11.5 20.5129C6.05879 12.6441 5.25 12.0193 5.25 9.5C5.25 7.83055 5.90012 6.26105 7.08059 5.08059C8.26105 3.90012 9.83055 3.25 11.5 3.25C13.1695 3.25 14.7389 3.90012 15.9194 5.08059C17.0999 6.26105 17.75 7.83055 17.75 9.5C17.75 12.0191 16.9417 12.6434 11.5 20.5129Z" fill="black"/>
</svg>
