<svg width="24" height="24" viewBox="0 0 24 24" fill="none" xmlns="http://www.w3.org/2000/svg">
<g clip-path="url(#clip0_4867_13593)">
<path fill-rule="evenodd" clip-rule="evenodd" d="M20 14.5374L28.261 10.5402L27.7383 9.45996L20 13.2043V14.5374ZM17.6307 19.3163L16.3482 20.0288L27.7383 25.5402L28.261 24.46L17.6307 19.3163ZM7.1983 20.7318L5.96453 19.9956L-3.26172 24.46L-2.73904 25.5402L7.1983 20.7318ZM4 14.0539V13L4.41588 12.922L-2.73905 9.45996L-3.26172 10.5402L4 14.0539Z" fill="white"/>
<path fill-rule="evenodd" clip-rule="evenodd" d="M12.8849 1.73286C12.7811 1.68506 12.6618 1.68398 12.5571 1.72987L4.83978 5.11317C4.69434 5.17694 4.60039 5.32071 4.60039 5.47951V18.2173C4.60039 18.5487 4.33176 18.8173 4.00039 18.8173C3.66902 18.8173 3.40039 18.5487 3.40039 18.2173V5.47951C3.40039 4.84428 3.77618 4.26921 4.35797 4.01415L12.0752 0.630852C12.494 0.447256 12.9713 0.451609 13.3867 0.642811L19.6694 3.53491C20.2369 3.79612 20.6004 4.36366 20.6004 4.98832V17.5955C20.6004 18.2047 20.2545 18.761 19.7081 19.0305L12.0171 22.8237C10.9514 23.3493 9.7048 22.5708 9.70936 21.3826L9.75571 9.29891C9.75813 8.66725 10.132 8.09614 10.7099 7.84118L18.5962 4.36192L12.8849 1.73286ZM19.4004 5.29879C19.362 5.32873 19.3194 5.35446 19.2729 5.37499L11.1942 8.93908C11.0498 9.00282 10.9563 9.1456 10.9557 9.30351L10.9094 21.3872C10.9082 21.6842 11.2198 21.8788 11.4863 21.7474L19.1773 17.9543C19.3139 17.8869 19.4004 17.7478 19.4004 17.5955V5.29879Z" fill="white"/>
</g>
<defs>
<clipPath id="clip0_4867_13593">
<rect width="24" height="24" fill="white"/>
</clipPath>
</defs>
</svg>
