<svg width="24" height="24" viewBox="0 0 24 24" fill="none" xmlns="http://www.w3.org/2000/svg">
<mask id="path-1-outside-1_4642_8551" maskUnits="userSpaceOnUse" x="2" y="2" width="20" height="20" fill="black">
<rect fill="white" x="2" y="2" width="20" height="20"/>
<path d="M11.9999 4L20 9.66135V20H16.3103C15.7581 20 15.3103 19.5523 15.3103 19V16.9763C15.3103 15.3099 13.8244 13.9527 12 13.9527C10.1756 13.9527 8.68966 15.3099 8.68966 16.9763V19C8.68966 19.5523 8.24195 20 7.68966 20H4V9.66135L11.9999 4Z"/>
</mask>
<path d="M11.9999 4L12.6931 3.02046L11.9999 2.52992L11.3067 3.02047L11.9999 4ZM20 9.66135H21.2V9.04047L20.6932 8.68181L20 9.66135ZM20 20V21.2H21.2V20H20ZM4 20H2.8V21.2H4V20ZM4 9.66135L3.30681 8.68182L2.8 9.04048V9.66135H4ZM11.3067 4.97954L19.3068 10.6409L20.6932 8.68181L12.6931 3.02046L11.3067 4.97954ZM18.8 9.66135V20H21.2V9.66135H18.8ZM20 18.8H16.3103V21.2H20V18.8ZM16.5103 19V16.9763H14.1103V19H16.5103ZM16.5103 16.9763C16.5103 14.5472 14.3825 12.7527 12 12.7527V15.1527C13.2663 15.1527 14.1103 16.0727 14.1103 16.9763H16.5103ZM12 12.7527C9.61747 12.7527 7.48966 14.5472 7.48966 16.9763H9.88966C9.88966 16.0727 10.7337 15.1527 12 15.1527V12.7527ZM7.48966 16.9763V19H9.88966V16.9763H7.48966ZM7.68966 18.8H4V21.2H7.68966V18.8ZM5.2 20V9.66135H2.8V20H5.2ZM4.69319 10.6409L12.6931 4.97953L11.3067 3.02047L3.30681 8.68182L4.69319 10.6409ZM7.48966 19C7.48966 18.8895 7.57921 18.8 7.68966 18.8V21.2C8.90469 21.2 9.88966 20.215 9.88966 19H7.48966ZM16.3103 18.8C16.4208 18.8 16.5103 18.8895 16.5103 19H14.1103C14.1103 20.215 15.0953 21.2 16.3103 21.2V18.8Z" fill="black" mask="url(#path-1-outside-1_4642_8551)"/>
</svg>
