<svg width="24" height="24" viewBox="0 0 24 24" fill="none" xmlns="http://www.w3.org/2000/svg">
<path d="M3.75 13.125C4.37132 13.125 4.875 12.6213 4.875 12C4.875 11.3787 4.37132 10.875 3.75 10.875C3.12868 10.875 2.625 11.3787 2.625 12C2.625 12.6213 3.12868 13.125 3.75 13.125Z" fill="black" stroke="white" stroke-width="2" stroke-linecap="round" stroke-linejoin="round"/>
<path d="M12 13.125C12.6213 13.125 13.125 12.6213 13.125 12C13.125 11.3787 12.6213 10.875 12 10.875C11.3787 10.875 10.875 11.3787 10.875 12C10.875 12.6213 11.3787 13.125 12 13.125Z" fill="black" stroke="white" stroke-width="2" stroke-linecap="round" stroke-linejoin="round"/>
<path d="M20.25 13.125C20.8713 13.125 21.375 12.6213 21.375 12C21.375 11.3787 20.8713 10.875 20.25 10.875C19.6287 10.875 19.125 11.3787 19.125 12C19.125 12.6213 19.6287 13.125 20.25 13.125Z" fill="black" stroke="white" stroke-width="2" stroke-linecap="round" stroke-linejoin="round"/>
</svg>
