<svg width="57" height="57" viewBox="0 0 57 57" fill="none" xmlns="http://www.w3.org/2000/svg">
<rect width="57" height="57" rx="5" fill="#001E4E"/>
<path d="M39.4663 32.941L34.2746 31.2611C33.3401 30.959 32.3208 31.2414 31.6772 31.9811L30.6128 33.198C28.2526 31.6481 26.3469 29.7424 24.797 27.3821L26.0138 26.3177C26.7535 25.6712 27.0359 24.6521 26.7338 23.7204L25.054 18.5287C24.7292 17.5292 23.7383 16.8912 22.6938 17.0154L20.4493 17.2809C19.6984 17.3683 19.0066 17.7636 18.5521 18.3622C16.8864 20.5559 16.5532 23.4324 17.5922 26.6822C18.4957 29.5082 20.4013 32.4728 22.9649 35.0334C25.5256 37.5939 28.4898 39.4996 31.3161 40.403C32.5526 40.7983 33.7384 40.996 34.8508 40.996C36.6605 40.996 38.281 40.4765 39.6391 39.4432C40.2375 38.9887 40.63 38.297 40.7204 37.5459L40.9859 35.3015C41.1042 34.2569 40.4689 33.266 39.4667 32.9412L39.4663 32.941ZM39.8474 35.1685L39.5819 37.4129C39.5283 37.859 39.2967 38.2655 38.9466 38.5337C36.5666 40.3433 33.6727 39.9565 31.6652 39.3157C29.0113 38.4687 26.2078 36.6591 23.7743 34.2253C21.3406 31.7917 19.531 28.9882 18.6839 26.3344C18.0431 24.3271 17.6563 21.4333 19.4659 19.053C19.7341 18.7001 20.1406 18.4685 20.5866 18.4177L22.8311 18.1522C22.8734 18.1465 22.9158 18.1438 22.9554 18.1438C23.4126 18.1438 23.8278 18.4401 23.9717 18.8807L25.6515 24.0724C25.8124 24.5692 25.6628 25.1141 25.2675 25.4586L23.9857 26.5793C23.5961 26.918 23.517 27.5025 23.7994 27.9374C24.621 29.1993 25.5639 30.3653 26.6 31.4014C27.636 32.4375 28.8021 33.3806 30.064 34.202C30.4959 34.4844 31.0804 34.4025 31.4221 34.0157L32.5428 32.7339C32.8872 32.3386 33.4322 32.1889 33.929 32.3498L39.1207 34.0297C39.5985 34.1827 39.9061 34.6626 39.8468 35.1679L39.8474 35.1685Z" fill="white"/>
<path d="M29.9522 24.2007C32.0724 24.2007 33.7975 25.9256 33.7975 28.046C33.7975 28.3622 34.0545 28.6163 34.3677 28.6163C34.684 28.6163 34.938 28.3593 34.938 28.046C34.938 26.7133 34.4185 25.4628 33.4784 24.5197C32.5355 23.5768 31.2847 23.0601 29.9521 23.0601C29.6359 23.0601 29.3818 23.3171 29.3818 23.6303C29.3818 23.9439 29.6359 24.2006 29.9521 24.2006L29.9522 24.2007Z" fill="white"/>
<path d="M29.9518 19.7623C34.5169 19.7623 38.2324 23.4776 38.2324 28.0429C38.2324 28.3592 38.4894 28.6132 38.8027 28.6132C39.116 28.6132 39.373 28.3562 39.373 28.0429C39.373 26.7695 39.1244 25.5359 38.6333 24.3756C38.1591 23.2549 37.4787 22.247 36.6147 21.3803C35.7508 20.5164 34.7429 19.836 33.6194 19.3618C32.4563 18.8706 31.2225 18.6221 29.9521 18.6221C29.6359 18.6221 29.3818 18.8791 29.3818 19.1924C29.3816 19.5055 29.6357 19.7625 29.952 19.7625L29.9518 19.7623Z" fill="white"/>
</svg>
