<svg width="60" height="60" viewBox="0 0 60 60" fill="none" xmlns="http://www.w3.org/2000/svg">
<rect width="60" height="60" rx="5" fill="#001E4E"/>
<path d="M26.55 42.63H27.28V46.81H28.37V47.47H27.28V49H26.51V47.47H23.26V46.87L26.55 42.63ZM26.54 43.86L24.19 46.87H26.54V43.86ZM31.4259 49.12C31.0126 49.12 30.6443 49.035 30.3209 48.865C30.0009 48.695 29.7476 48.4617 29.5609 48.165C29.3776 47.865 29.2859 47.5233 29.2859 47.14H30.0959C30.1059 47.5233 30.2259 47.83 30.4559 48.06C30.6893 48.2867 31.0059 48.4 31.4059 48.4C31.7993 48.4 32.1176 48.2867 32.3609 48.06C32.6076 47.8333 32.7876 47.5133 32.9009 47.1C33.0176 46.6833 33.0759 46.1933 33.0759 45.63C33.0759 45.5 33.0726 45.38 33.0659 45.27C33.0593 45.1567 33.0459 45.03 33.0259 44.89C32.9826 45.25 32.8793 45.55 32.7159 45.79C32.5526 46.0267 32.3426 46.205 32.0859 46.325C31.8326 46.4417 31.5459 46.5 31.2259 46.5C30.8526 46.5 30.5159 46.4167 30.2159 46.25C29.9193 46.08 29.6826 45.8483 29.5059 45.555C29.3326 45.2583 29.2459 44.92 29.2459 44.54C29.2459 44.15 29.3343 43.81 29.5109 43.52C29.6909 43.23 29.9409 43.0067 30.2609 42.85C30.5809 42.69 30.9526 42.61 31.3759 42.61C31.7359 42.61 32.0676 42.6833 32.3709 42.83C32.6776 42.9767 32.9426 43.1883 33.1659 43.465C33.3893 43.7383 33.5626 44.0667 33.6859 44.45C33.8126 44.8333 33.8759 45.2633 33.8759 45.74C33.8759 46.43 33.7876 47.0283 33.6109 47.535C33.4376 48.0417 33.1693 48.4333 32.8059 48.71C32.4459 48.9833 31.9859 49.12 31.4259 49.12ZM31.3759 45.81C31.6226 45.81 31.8459 45.755 32.0459 45.645C32.2459 45.535 32.4043 45.3867 32.5209 45.2C32.6376 45.0133 32.6959 44.8033 32.6959 44.57C32.6959 44.1833 32.5676 43.8783 32.3109 43.655C32.0576 43.4317 31.7459 43.32 31.3759 43.32C30.9959 43.32 30.6809 43.4317 30.4309 43.655C30.1809 43.8783 30.0559 44.1833 30.0559 44.57C30.0559 44.9533 30.1809 45.2567 30.4309 45.48C30.6809 45.7 30.9959 45.81 31.3759 45.81ZM34.9467 48.205C34.9467 48.0483 35.0017 47.9133 35.1117 47.8C35.2217 47.6867 35.3601 47.63 35.5267 47.63C35.6934 47.63 35.8351 47.6867 35.9517 47.8C36.0684 47.9133 36.1267 48.0483 36.1267 48.205C36.1267 48.3617 36.0684 48.4933 35.9517 48.6C35.8351 48.7067 35.6934 48.76 35.5267 48.76C35.3601 48.76 35.2217 48.7067 35.1117 48.6C35.0017 48.49 34.9467 48.3583 34.9467 48.205ZM34.9467 45.145C34.9467 44.9883 35.0017 44.8533 35.1117 44.74C35.2217 44.6267 35.3601 44.57 35.5267 44.57C35.6934 44.57 35.8351 44.6267 35.9517 44.74C36.0684 44.8533 36.1267 44.9883 36.1267 45.145C36.1267 45.3017 36.0684 45.4333 35.9517 45.54C35.8351 45.6467 35.6934 45.7 35.5267 45.7C35.3601 45.7 35.2217 45.6467 35.1117 45.54C35.0017 45.43 34.9467 45.2983 34.9467 45.145ZM37.0714 46.43V45.75H39.7914V46.43H37.0714Z" fill="white"/>
<path d="M19.952 31.208C19.2587 31.208 18.6213 31.0853 18.04 30.84C17.4587 30.5893 16.9893 30.2187 16.632 29.728C16.28 29.2373 16.096 28.624 16.08 27.888H17.568C17.568 28.3307 17.6747 28.6933 17.888 28.976C18.1067 29.2587 18.3947 29.4693 18.752 29.608C19.1093 29.7413 19.504 29.808 19.936 29.808C20.3733 29.808 20.76 29.7413 21.096 29.608C21.432 29.4747 21.6907 29.296 21.872 29.072C22.0587 28.848 22.152 28.592 22.152 28.304C22.152 27.9147 22.032 27.6027 21.792 27.368C21.552 27.128 21.1867 26.9253 20.696 26.76L18.8 26.056C17.984 25.752 17.3627 25.4027 16.936 25.008C16.5093 24.608 16.296 24.0533 16.296 23.344C16.296 22.5387 16.6107 21.8853 17.24 21.384C17.8693 20.8773 18.7547 20.624 19.896 20.624C20.9787 20.624 21.8187 20.8747 22.416 21.376C23.0187 21.8773 23.3627 22.56 23.448 23.424H21.952C21.8773 22.9867 21.672 22.64 21.336 22.384C21.0053 22.128 20.5253 22 19.896 22C19.288 22 18.8133 22.1333 18.472 22.4C18.1307 22.6613 17.96 22.992 17.96 23.392C17.96 23.7227 18.0667 23.9867 18.28 24.184C18.4987 24.3813 18.8373 24.56 19.296 24.72L21.456 25.512C22.1973 25.7733 22.776 26.1253 23.192 26.568C23.608 27.0107 23.816 27.5733 23.816 28.256C23.816 28.832 23.6667 29.3413 23.368 29.784C23.0693 30.2267 22.632 30.576 22.056 30.832C21.48 31.0827 20.7787 31.208 19.952 31.208ZM26.4346 31V20.808H32.8346V22.12H27.9546V25.224H32.5466V26.536H27.9546V29.672H32.8346V31H26.4346ZM41.4789 20.808H43.5749L36.9749 27.584V25.48L41.4789 20.808ZM38.8469 25.072L43.8549 31H41.8789L37.7749 26.064L38.8469 25.072ZM35.6069 20.808H37.1429V31H35.6069V20.808Z" fill="white"/>
</svg>
