<svg width="74" height="101" viewBox="0 0 74 101" fill="none" xmlns="http://www.w3.org/2000/svg">
<rect x="9" width="57" height="57" rx="5" fill="#001E4E"/>
<path d="M25 28C25 21.3727 30.3727 16 37 16V17.3333C31.1087 17.3333 26.3333 22.1087 26.3333 28C26.3333 33.8913 31.1087 38.6667 37 38.6667C42.8913 38.6667 47.6667 33.8913 47.6667 28C47.6667 26.934 47.5107 25.9053 47.22 24.934L48.4967 24.5507C48.8314 25.6698 49.001 26.8319 49 28C49 34.6273 43.6273 40 37 40C30.3727 40 25 34.6273 25 28Z" fill="white"/>
<path d="M33.3533 21.3013C33.2014 21.3904 33.0909 21.5359 33.0459 21.7061C33.0009 21.8763 33.0251 22.0573 33.1131 22.2098C33.2011 22.3623 33.3459 22.4737 33.5158 22.5198C33.6857 22.566 33.8669 22.543 34.02 22.456L34.644 22.0953L34.3433 24.5953C34.3285 24.7182 34.3482 24.8427 34.4002 24.955C34.4522 25.0673 34.5344 25.163 34.6376 25.2312C34.7409 25.2994 34.8611 25.3376 34.9847 25.3413C35.1084 25.3451 35.2307 25.3144 35.338 25.2527L37.3393 24.0973C37.4157 24.0539 37.4828 23.9957 37.5367 23.9262C37.5905 23.8568 37.6301 23.7773 37.6532 23.6925C37.6762 23.6076 37.6822 23.519 37.6709 23.4319C37.6596 23.3447 37.6311 23.2606 37.5871 23.1844C37.5432 23.1083 37.4846 23.0416 37.4147 22.9882C37.3449 22.9348 37.2652 22.8957 37.1802 22.8733C37.0952 22.8508 37.0066 22.8454 36.9195 22.8573C36.8324 22.8692 36.7485 22.8982 36.6726 22.9427L35.826 23.4313L36.1273 20.9313C36.1421 20.8085 36.1224 20.6839 36.0704 20.5716C36.0184 20.4593 35.9362 20.3637 35.833 20.2955C35.7297 20.2273 35.6095 20.1891 35.4858 20.1853C35.3622 20.1815 35.2399 20.2122 35.1326 20.274L33.3533 21.3007V21.3013ZM38.2113 18.196C38.1886 18.1114 38.1828 18.0232 38.1942 17.9364C38.2056 17.8496 38.234 17.7659 38.2778 17.69C38.3216 17.6142 38.3798 17.5477 38.4493 17.4944C38.5188 17.4411 38.598 17.402 38.6826 17.3793L41.2586 16.6893C41.3782 16.6573 41.5043 16.6592 41.6229 16.6948C41.7414 16.7304 41.8477 16.7983 41.9299 16.8909C42.012 16.9835 42.0667 17.0971 42.088 17.219C42.1092 17.341 42.096 17.4664 42.05 17.5813L40.684 20.9847L42.294 20.5533C42.4629 20.5129 42.6409 20.5399 42.7902 20.6288C42.9394 20.7176 43.0481 20.8612 43.0931 21.0289C43.1381 21.1967 43.1159 21.3754 43.0311 21.527C42.9464 21.6786 42.8058 21.7912 42.6393 21.8407L39.7413 22.6173C39.6217 22.6494 39.4956 22.6475 39.3771 22.6119C39.2585 22.5763 39.1522 22.5084 39.0701 22.4158C38.9879 22.3232 38.9332 22.2096 38.912 22.0876C38.8907 21.9657 38.9039 21.8402 38.95 21.7253L40.316 18.3227L39.028 18.6673C38.9434 18.69 38.8552 18.6958 38.7684 18.6844C38.6815 18.673 38.5978 18.6446 38.522 18.6008C38.4462 18.5571 38.3797 18.4988 38.3264 18.4293C38.2731 18.3599 38.234 18.2806 38.2113 18.196ZM45.3706 16C45.1938 16 45.0242 16.0702 44.8992 16.1953C44.7742 16.3203 44.704 16.4899 44.704 16.6667C44.704 16.8435 44.7742 17.013 44.8992 17.1381C45.0242 17.2631 45.1938 17.3333 45.3706 17.3333H47.1306L44.4346 21.6467C44.3716 21.7476 44.3366 21.8635 44.3335 21.9825C44.3304 22.1015 44.3592 22.2191 44.4169 22.3232C44.4745 22.4273 44.559 22.514 44.6616 22.5744C44.7641 22.6348 44.881 22.6667 45 22.6667H48.3333C48.5101 22.6667 48.6797 22.5964 48.8047 22.4714C48.9297 22.3464 49 22.1768 49 22C49 21.8232 48.9297 21.6536 48.8047 21.5286C48.6797 21.4036 48.5101 21.3333 48.3333 21.3333H46.2026L48.8986 17.02C48.9617 16.9191 48.9966 16.8031 48.9997 16.6842C49.0028 16.5652 48.9741 16.4476 48.9164 16.3435C48.8587 16.2394 48.7742 16.1527 48.6717 16.0923C48.5691 16.0319 48.4523 16 48.3333 16H45.3706ZM29.592 30.0707C29.6426 30.566 30.0873 30.9353 30.6026 31.0993C31.1413 31.27 31.8393 31.256 32.5806 30.9347C32.9128 30.7955 33.2114 30.5871 33.4566 30.3232C33.7017 30.0593 33.8876 29.7462 34.002 29.4047C34.1953 28.826 34.1686 28.1913 33.9006 27.788C33.8696 27.7413 33.8273 27.7033 33.7777 27.6773C33.7281 27.6513 33.6727 27.6382 33.6167 27.6393C33.5607 27.6403 33.5058 27.6555 33.4572 27.6833C33.4086 27.7112 33.3678 27.7509 33.3386 27.7987C32.476 29.206 31.2426 29.8253 29.9553 29.7053C29.9062 29.7006 29.8568 29.7069 29.8104 29.7236C29.7641 29.7404 29.722 29.7672 29.6873 29.8021C29.6525 29.837 29.6259 29.8792 29.6095 29.9257C29.593 29.9721 29.587 30.0216 29.592 30.0707ZM42.52 26.6067C42.724 27.0607 42.524 27.6027 42.16 28.0027C41.7786 28.42 41.1666 28.756 40.3646 28.8493C40.0072 28.895 39.6442 28.8638 39.2999 28.7578C38.9555 28.6518 38.6378 28.4734 38.368 28.2347C37.912 27.83 37.618 27.268 37.648 26.784C37.6515 26.7281 37.669 26.6739 37.699 26.6266C37.7289 26.5792 37.7703 26.5402 37.8194 26.5131C37.8684 26.486 37.9235 26.4717 37.9795 26.4715C38.0356 26.4713 38.0907 26.4852 38.14 26.512C39.5906 27.3 40.9686 27.2193 42.0233 26.4713C42.0635 26.4429 42.1094 26.4237 42.1579 26.4151C42.2063 26.4065 42.2561 26.4088 42.3036 26.4218C42.3511 26.4347 42.3951 26.458 42.4325 26.49C42.4699 26.5219 42.4998 26.5618 42.52 26.6067ZM42.632 33.2367C41.1313 31.1807 38.9073 30.0933 36.8273 30.6507C34.7473 31.2087 33.3646 33.2613 33.0933 35.7927C33.0166 36.5053 33.7086 37.008 34.4006 36.8227L42.014 34.7827C42.7066 34.5967 43.054 33.816 42.632 33.2367Z" fill="white"/>
<path d="M25.7613 71.14C25.3113 71.14 24.8963 71.0617 24.5163 70.905C24.1396 70.7483 23.833 70.51 23.5963 70.19C23.363 69.87 23.238 69.4633 23.2213 68.97H24.3813C24.3813 69.22 24.443 69.425 24.5663 69.585C24.6896 69.745 24.8546 69.865 25.0613 69.945C25.2713 70.0217 25.5013 70.06 25.7513 70.06C25.9913 70.06 26.2046 70.0283 26.3913 69.965C26.5813 69.9017 26.7296 69.8117 26.8363 69.695C26.9463 69.575 27.0013 69.4333 27.0013 69.27C27.0013 69.0533 26.9346 68.8833 26.8013 68.76C26.6713 68.6367 26.4613 68.5233 26.1713 68.42L24.8913 67.91C24.3913 67.7133 24.008 67.485 23.7413 67.225C23.4746 66.965 23.3413 66.6067 23.3413 66.15C23.3413 65.6233 23.5496 65.1967 23.9663 64.87C24.383 64.5433 24.9646 64.38 25.7113 64.38C26.438 64.38 26.9996 64.55 27.3963 64.89C27.793 65.2267 28.018 65.6967 28.0713 66.3H26.9113C26.868 66.0433 26.7513 65.8383 26.5613 65.685C26.3713 65.5283 26.088 65.45 25.7113 65.45C25.378 65.45 25.1146 65.52 24.9213 65.66C24.728 65.7967 24.6313 65.97 24.6313 66.18C24.6313 66.36 24.6913 66.5033 24.8113 66.61C24.9346 66.7133 25.1246 66.8133 25.3813 66.91L26.8013 67.46C27.2813 67.6467 27.6496 67.8817 27.9063 68.165C28.163 68.4483 28.2913 68.8033 28.2913 69.23C28.2913 69.62 28.193 69.9583 27.9963 70.245C27.7996 70.5283 27.513 70.7483 27.1363 70.905C26.7596 71.0617 26.3013 71.14 25.7613 71.14ZM31.0582 64.51V69.97H33.7282V71H29.8782V64.51H31.0582ZM34.8096 71V64.51H38.9796V65.53H35.9896V67.24H38.7996V68.26H35.9896V69.97H38.9796V71H34.8096ZM40.6788 71V64.51H44.8488V65.53H41.8588V67.24H44.6688V68.26H41.8588V69.97H44.8488V71H40.6788ZM46.5279 71V64.51H48.8179C49.5479 64.51 50.1163 64.69 50.5229 65.05C50.9329 65.41 51.1379 65.92 51.1379 66.58C51.1379 67.2333 50.9329 67.74 50.5229 68.1C50.1163 68.46 49.5479 68.64 48.8179 68.64H47.7179V71H46.5279ZM47.7179 67.61H48.8179C49.1846 67.61 49.4613 67.5133 49.6479 67.32C49.8346 67.1267 49.9279 66.88 49.9279 66.58C49.9279 66.2733 49.8346 66.0217 49.6479 65.825C49.4613 65.6283 49.1846 65.53 48.8179 65.53H47.7179V67.61ZM20.8153 87.14C20.2386 87.14 19.7286 87.0133 19.2853 86.76C18.8453 86.5067 18.5003 86.1283 18.2503 85.625C18.0003 85.1217 17.8753 84.4967 17.8753 83.75C17.8753 82.99 18.0003 82.3617 18.2503 81.865C18.5003 81.365 18.8453 80.9933 19.2853 80.75C19.7286 80.5033 20.2386 80.38 20.8153 80.38C21.3953 80.38 21.9069 80.5067 22.3503 80.76C22.7936 81.01 23.1403 81.385 23.3903 81.885C23.6403 82.385 23.7653 83.0067 23.7653 83.75C23.7653 84.5067 23.6403 85.1367 23.3903 85.64C23.1403 86.1433 22.7936 86.52 22.3503 86.77C21.9069 87.0167 21.3953 87.14 20.8153 87.14ZM22.8053 88.8C22.4753 88.8 22.1703 88.7117 21.8903 88.535C21.6103 88.3583 21.3653 88.11 21.1553 87.79L20.4853 86.78L21.4253 86.34L22.0053 87.24C22.1019 87.38 22.2119 87.4783 22.3353 87.535C22.4586 87.5917 22.5853 87.6233 22.7153 87.63C22.8819 87.63 23.0419 87.6083 23.1953 87.565C23.3519 87.525 23.5153 87.47 23.6853 87.4V88.62C23.5286 88.6833 23.3786 88.7283 23.2353 88.755C23.0953 88.785 22.9519 88.8 22.8053 88.8ZM20.8153 86.07C21.3453 86.07 21.7653 85.87 22.0753 85.47C22.3886 85.07 22.5453 84.4933 22.5453 83.74C22.5453 83.0133 22.3886 82.4483 22.0753 82.045C21.7653 81.6417 21.3453 81.44 20.8153 81.44C20.2953 81.44 19.8786 81.6433 19.5653 82.05C19.2519 82.4533 19.0953 83.02 19.0953 83.75C19.0953 84.5 19.2519 85.075 19.5653 85.475C19.8786 85.8717 20.2953 86.07 20.8153 86.07ZM25.0907 80.51H26.2707V84.55C26.2707 85.0833 26.4057 85.4683 26.6757 85.705C26.9491 85.9417 27.2974 86.06 27.7207 86.06C28.1474 86.06 28.4957 85.9417 28.7657 85.705C29.0357 85.4683 29.1707 85.0833 29.1707 84.55V80.51H30.3507V84.55C30.3507 85.0967 30.2457 85.5633 30.0357 85.95C29.8257 86.3367 29.5241 86.6317 29.1307 86.835C28.7407 87.0383 28.2707 87.14 27.7207 87.14C27.1707 87.14 26.6991 87.0383 26.3057 86.835C25.9157 86.6317 25.6157 86.3367 25.4057 85.95C25.1957 85.5633 25.0907 85.0967 25.0907 84.55V80.51ZM31.385 87L33.595 80.51H35.075L37.195 87H35.955L35.505 85.6H33.095L32.635 87H31.385ZM33.395 84.71H35.225L34.315 81.92L33.395 84.71ZM39.5348 80.51V85.97H42.2048V87H38.3548V80.51H39.5348ZM43.2962 87V80.51H44.4762V87H43.2962ZM45.4731 81.53V80.51H50.6731V81.53H48.3981L48.6631 81.26V87H47.4831V81.26L47.7481 81.53H45.4731ZM50.7956 80.51H52.1956L53.7456 83.3H53.5156L55.1256 80.51H56.5156L54.2056 84.32V87H53.0256V84.32L50.7956 80.51Z" fill="black"/>
</svg>
