<svg width="60" height="60" viewBox="0 0 60 60" fill="none" xmlns="http://www.w3.org/2000/svg">
<rect width="60" height="60" rx="5" fill="#001E4E"/>
<path d="M30.4968 33C30.2979 33 30.1071 32.921 29.9665 32.7803C29.8258 32.6397 29.7468 32.4489 29.7468 32.25V30.3105L28.7778 31.281C28.637 31.4216 28.446 31.5006 28.247 31.5004C28.048 31.5003 27.8572 31.4211 27.7166 31.2803C27.5759 31.1394 27.497 30.9485 27.4971 30.7495C27.4973 30.5504 27.5765 30.3596 27.7173 30.219L29.7468 28.1895V22.299L24.6468 25.2435L23.9028 28.0185C23.8511 28.2106 23.7252 28.3744 23.5527 28.4737C23.3803 28.573 23.1755 28.5997 22.9833 28.548C22.7912 28.4963 22.6274 28.3704 22.5281 28.1979C22.4288 28.0255 22.4021 27.8206 22.4538 27.6285L22.8093 26.3055L21.1293 27.2745C20.9571 27.3724 20.7532 27.3982 20.5621 27.3463C20.371 27.2944 20.2081 27.169 20.1091 26.9975C20.0101 26.826 19.9829 26.6223 20.0335 26.4308C20.0842 26.2393 20.2085 26.0757 20.3793 25.9755L22.0593 25.0065L20.7333 24.651C20.6382 24.6254 20.549 24.5813 20.4709 24.5212C20.3928 24.4612 20.3273 24.3863 20.2781 24.3009C20.229 24.2155 20.1971 24.1213 20.1843 24.0236C20.1716 23.9259 20.1782 23.8266 20.2038 23.7315C20.2294 23.6364 20.2735 23.5472 20.3336 23.4691C20.3936 23.391 20.4685 23.3255 20.5539 23.2763C20.6393 23.2271 20.7335 23.1953 20.8312 23.1825C20.9289 23.1698 21.0282 23.1764 21.1233 23.202L23.8953 23.9445L28.9968 21L23.8968 18.0555L21.1218 18.798C20.9309 18.8456 20.729 18.8162 20.5595 18.7163C20.39 18.6164 20.2666 18.4539 20.2158 18.2638C20.1651 18.0737 20.191 17.8713 20.2881 17.7002C20.3852 17.5291 20.5456 17.4029 20.7348 17.349L22.0593 16.9935L20.3793 16.0245C20.2933 15.9756 20.2179 15.9102 20.1573 15.832C20.0967 15.7539 20.0521 15.6645 20.0262 15.569C20.0003 15.4736 19.9935 15.3739 20.0063 15.2758C20.019 15.1778 20.051 15.0832 20.1005 14.9975C20.1499 14.9118 20.2159 14.8368 20.2944 14.7767C20.373 14.7167 20.4627 14.6727 20.5583 14.6474C20.6539 14.6221 20.7536 14.616 20.8516 14.6294C20.9496 14.6428 21.044 14.6755 21.1293 14.7255L22.8093 15.6945L22.4538 14.37C22.4265 14.2743 22.4186 14.1741 22.4304 14.0752C22.4422 13.9764 22.4736 13.8809 22.5227 13.7943C22.5719 13.7077 22.6377 13.6318 22.7165 13.5709C22.7953 13.51 22.8854 13.4655 22.9815 13.4398C23.0777 13.4141 23.178 13.4078 23.2767 13.4213C23.3753 13.4348 23.4703 13.4678 23.556 13.5183C23.6418 13.5689 23.7166 13.636 23.7761 13.7158C23.8357 13.7956 23.8787 13.8864 23.9028 13.983L24.6453 16.7565L29.7468 19.701V13.8105L27.7173 11.781C27.6476 11.7114 27.5922 11.6287 27.5545 11.5377C27.5167 11.4466 27.4972 11.3491 27.4971 11.2505C27.4971 11.152 27.5164 11.0544 27.5541 10.9633C27.5917 10.8722 27.6469 10.7895 27.7166 10.7197C27.7862 10.65 27.8689 10.5947 27.9599 10.5569C28.0509 10.5191 28.1485 10.4997 28.247 10.4996C28.3456 10.4995 28.4432 10.5189 28.5342 10.5565C28.6253 10.5941 28.7081 10.6494 28.7778 10.719L29.7468 11.6895V9.75C29.7468 9.55109 29.8258 9.36032 29.9665 9.21967C30.1071 9.07902 30.2979 9 30.4968 9C30.6957 9 30.8865 9.07902 31.0271 9.21967C31.1678 9.36032 31.2468 9.55109 31.2468 9.75V11.6895L32.2173 10.719C32.3581 10.5784 32.5491 10.4994 32.7481 10.4996C32.9471 10.4997 33.1379 10.5789 33.2786 10.7197C33.4192 10.8606 33.4981 11.0515 33.498 11.2505C33.4978 11.4496 33.4186 11.6404 33.2778 11.781L31.2468 13.8105V19.701L36.3468 16.7565L37.0908 13.9815C37.1425 13.7894 37.2685 13.6256 37.4409 13.5263C37.6133 13.427 37.8182 13.4003 38.0103 13.452C38.2025 13.5037 38.3662 13.6296 38.4655 13.8021C38.5648 13.9745 38.5915 14.1794 38.5398 14.3715L38.1858 15.6945L39.8658 14.7255C40.038 14.6276 40.2419 14.6018 40.433 14.6537C40.6241 14.7056 40.787 14.831 40.886 15.0025C40.985 15.174 41.0122 15.3777 40.9616 15.5692C40.911 15.7607 40.7867 15.9243 40.6158 16.0245L38.9358 16.9935L40.2603 17.349C40.4525 17.4007 40.6162 17.5266 40.7155 17.6991C40.8148 17.8715 40.8415 18.0764 40.7898 18.2685C40.7381 18.4606 40.6122 18.6244 40.4397 18.7237C40.2673 18.823 40.0625 18.8497 39.8703 18.798L37.0983 18.0555L31.9968 21L37.0968 23.9445L39.8703 23.202C40.0625 23.1505 40.2672 23.1774 40.4395 23.2768C40.6118 23.3763 40.7375 23.5401 40.7891 23.7323C40.8406 23.9244 40.8137 24.1291 40.7142 24.3014C40.6148 24.4737 40.451 24.5995 40.2588 24.651L38.9343 25.0065L40.6143 25.9755C40.7852 26.0757 40.9095 26.2393 40.9601 26.4308C41.0107 26.6223 40.9835 26.826 40.8845 26.9975C40.7855 27.169 40.6226 27.2944 40.4315 27.3463C40.2404 27.3982 40.0365 27.3724 39.8643 27.2745L38.1843 26.3055L38.5383 27.63C38.5656 27.7257 38.5736 27.8259 38.5617 27.9248C38.5499 28.0236 38.5185 28.1191 38.4694 28.2057C38.4203 28.2923 38.3544 28.3682 38.2756 28.4291C38.1968 28.49 38.1067 28.5345 38.0106 28.5602C37.9144 28.5859 37.8141 28.5922 37.7154 28.5787C37.6168 28.5652 37.5219 28.5322 37.4361 28.4817C37.3503 28.4311 37.2755 28.364 37.216 28.2842C37.1564 28.2044 37.1134 28.1136 37.0893 28.017L36.3468 25.2435L31.2468 22.299V28.1895L33.2763 30.219C33.4171 30.3596 33.4963 30.5504 33.4965 30.7495C33.4966 30.9485 33.4177 31.1394 33.2771 31.2803C33.1364 31.4211 32.9456 31.5003 32.7466 31.5004C32.5476 31.5006 32.3566 31.4216 32.2158 31.281L31.2453 30.3105V32.25C31.2453 32.4489 31.1663 32.6397 31.0256 32.7803C30.885 32.921 30.6942 33 30.4953 33H30.4968Z" fill="white"/>
<path d="M20.38 46.43V45.75H23.1V46.43H20.38ZM26.5466 49.12C26.0532 49.12 25.6166 49.0417 25.2366 48.885C24.8599 48.7283 24.5632 48.5133 24.3466 48.24C24.1332 47.9667 24.0266 47.6567 24.0266 47.31C24.0266 46.9933 24.1082 46.7217 24.2716 46.495C24.4382 46.2683 24.6649 46.095 24.9516 45.975C25.2416 45.8517 25.5699 45.79 25.9366 45.79C26.0332 45.79 26.1266 45.795 26.2166 45.805C26.3066 45.815 26.4032 45.8333 26.5066 45.86V46.09C26.1732 46.09 25.8816 46.145 25.6316 46.255C25.3816 46.3617 25.1866 46.5033 25.0466 46.68C24.9066 46.8567 24.8366 47.0467 24.8366 47.25C24.8366 47.4967 24.9116 47.7067 25.0616 47.88C25.2116 48.05 25.4149 48.18 25.6716 48.27C25.9316 48.3567 26.2232 48.4 26.5466 48.4C27.0866 48.4 27.5066 48.3133 27.8066 48.14C28.1066 47.9667 28.2566 47.74 28.2566 47.46C28.2566 47.2333 28.1766 47.0467 28.0166 46.9C27.8599 46.7533 27.6432 46.63 27.3666 46.53L25.6366 45.87C25.4266 45.79 25.2132 45.68 24.9966 45.54C24.7832 45.4 24.6032 45.225 24.4566 45.015C24.3099 44.805 24.2366 44.5567 24.2366 44.27C24.2366 43.9467 24.3282 43.66 24.5116 43.41C24.6949 43.16 24.9582 42.965 25.3016 42.825C25.6482 42.6817 26.0632 42.61 26.5466 42.61C26.9899 42.61 27.3832 42.6867 27.7266 42.84C28.0732 42.99 28.3449 43.1967 28.5416 43.46C28.7382 43.72 28.8366 44.0167 28.8366 44.35C28.8366 44.61 28.7699 44.8517 28.6366 45.075C28.5066 45.295 28.3132 45.4733 28.0566 45.61C27.8032 45.7433 27.4899 45.81 27.1166 45.81C27.0266 45.81 26.9399 45.805 26.8566 45.795C26.7766 45.7817 26.6866 45.76 26.5866 45.73V45.48C26.8566 45.48 27.0999 45.435 27.3166 45.345C27.5332 45.2517 27.7049 45.1233 27.8316 44.96C27.9616 44.7967 28.0266 44.6067 28.0266 44.39C28.0266 44.1833 27.9632 44 27.8366 43.84C27.7132 43.6767 27.5399 43.55 27.3166 43.46C27.0966 43.3667 26.8399 43.32 26.5466 43.32C26.2632 43.32 26.0082 43.365 25.7816 43.455C25.5582 43.5417 25.3816 43.66 25.2516 43.81C25.1216 43.9567 25.0566 44.12 25.0566 44.3C25.0566 44.5233 25.1316 44.7033 25.2816 44.84C25.4349 44.9733 25.6466 45.09 25.9166 45.19L27.6466 45.85C28.1066 46.0233 28.4599 46.2283 28.7066 46.465C28.9532 46.7017 29.0766 47.0233 29.0766 47.43C29.0766 47.76 28.9766 48.0533 28.7766 48.31C28.5766 48.5633 28.2882 48.7617 27.9116 48.905C27.5349 49.0483 27.0799 49.12 26.5466 49.12ZM31.3241 44.225C31.0808 44.225 30.8575 44.165 30.6541 44.045C30.4508 43.925 30.2891 43.7633 30.1691 43.56C30.0491 43.3567 29.9891 43.1333 29.9891 42.89C29.9891 42.6433 30.0491 42.42 30.1691 42.22C30.2891 42.02 30.4508 41.86 30.6541 41.74C30.8575 41.62 31.0808 41.56 31.3241 41.56C31.5675 41.56 31.7891 41.62 31.9891 41.74C32.1925 41.86 32.3541 42.02 32.4741 42.22C32.5941 42.42 32.6541 42.6433 32.6541 42.89C32.6541 43.1333 32.5941 43.3567 32.4741 43.56C32.3541 43.7633 32.1925 43.925 31.9891 44.045C31.7891 44.165 31.5675 44.225 31.3241 44.225ZM31.3241 43.68C31.5408 43.68 31.7241 43.6033 31.8741 43.45C32.0275 43.2933 32.1041 43.1067 32.1041 42.89C32.1041 42.6733 32.0275 42.4883 31.8741 42.335C31.7241 42.1817 31.5408 42.105 31.3241 42.105C31.1075 42.105 30.9208 42.1817 30.7641 42.335C30.6108 42.4883 30.5341 42.6733 30.5341 42.89C30.5341 43.1067 30.6108 43.2933 30.7641 43.45C30.9208 43.6033 31.1075 43.68 31.3241 43.68ZM36.2173 49.12C35.664 49.12 35.1873 48.9817 34.7873 48.705C34.3873 48.425 34.079 48.0383 33.8623 47.545C33.6457 47.0483 33.5373 46.4733 33.5373 45.82C33.5373 45.1233 33.654 44.5367 33.8873 44.06C34.124 43.5833 34.444 43.2233 34.8473 42.98C35.254 42.7333 35.7107 42.61 36.2173 42.61C36.8873 42.61 37.4257 42.7783 37.8323 43.115C38.2423 43.4483 38.524 43.8833 38.6773 44.42L37.8373 44.59C37.7073 44.2 37.499 43.89 37.2123 43.66C36.929 43.4267 36.5973 43.31 36.2173 43.31C35.8873 43.31 35.5823 43.405 35.3023 43.595C35.0257 43.7817 34.8023 44.0617 34.6323 44.435C34.4623 44.8083 34.3773 45.27 34.3773 45.82C34.3773 46.32 34.444 46.765 34.5773 47.155C34.714 47.545 34.9173 47.8517 35.1873 48.075C35.4607 48.2983 35.804 48.41 36.2173 48.41C36.714 48.41 37.1073 48.2767 37.3973 48.01C37.6907 47.7433 37.8373 47.3933 37.8373 46.96H38.6873C38.6873 47.41 38.584 47.7967 38.3773 48.12C38.1707 48.44 37.8807 48.6867 37.5073 48.86C37.1373 49.0333 36.7073 49.12 36.2173 49.12Z" fill="white"/>
</svg>
