<svg width="74" height="101" viewBox="0 0 74 101" fill="none" xmlns="http://www.w3.org/2000/svg">
<rect x="9" width="57" height="57" rx="5" fill="#001E4E"/>
<path fill-rule="evenodd" clip-rule="evenodd" d="M32.1252 20.513C32.2242 20.2245 32.4089 19.973 32.6545 19.7921C32.9001 19.6112 33.1951 19.5094 33.5 19.5005H42.5C42.8049 19.5094 43.0998 19.6112 43.3455 19.7921C43.5911 19.973 43.7757 20.2245 43.8747 20.513L45.419 25.0132C45.516 25.2955 45.5267 25.6002 45.4496 25.8886C45.3725 26.1769 45.2112 26.4357 44.9862 26.6318L44.888 26.6641C44.591 26.7638 44.174 26.9468 43.7502 27.1328L43.64 27.1816C43.28 27.3391 42.9005 27.5041 42.5277 27.6526L42.5 27.6624C42.3822 27.7089 42.2652 27.7539 42.1497 27.7959C41.6457 27.9796 41.2392 28.0876 40.9662 28.1034C40.9478 28.1046 40.9292 28.1054 40.9107 28.1056C40.757 27.6084 40.6482 27.0608 40.712 26.5846C40.7457 26.3333 40.8245 26.1203 40.9565 25.9433C41.087 25.7685 41.297 25.59 41.654 25.4468L42.35 25.1692L41.7927 23.7757L41.0967 24.0547C40.5155 24.2872 40.0692 24.624 39.7542 25.047C39.466 25.4405 39.284 25.9016 39.2255 26.3858C39.1077 27.2648 39.3425 28.1499 39.5382 28.7379C39.6582 29.0979 39.9147 29.3477 40.2267 29.4804C40.5072 29.6004 40.8065 29.6162 41.057 29.6012C41.507 29.5742 42.0185 29.4317 42.5 29.2637V40.5014C42.4996 40.8891 42.3492 41.2616 42.0803 41.5408C41.8113 41.82 41.4448 41.9842 41.0574 41.9991C40.67 42.0139 40.292 41.8782 40.0025 41.6204C39.7129 41.3626 39.5345 41.0027 39.5045 40.6162L38.8025 31.501H37.196L36.4947 40.6162C36.4626 41.001 36.2833 41.3585 35.9941 41.6145C35.705 41.8704 35.3283 42.005 34.9425 41.9902C34.5567 41.9754 34.1914 41.8124 33.9227 41.5351C33.654 41.2578 33.5026 40.8876 33.5 40.5014V29.2562C34.0835 29.4309 34.6917 29.5749 35.2077 29.6012C35.4815 29.6162 35.7942 29.6012 36.0815 29.4947C36.3942 29.3792 36.7017 29.1422 36.8367 28.7379C37.0572 28.0756 37.178 27.1718 36.9432 26.292C36.6987 25.3748 36.0747 24.5227 34.9032 24.0547L34.2072 23.7757L33.65 25.1685L34.3467 25.4475C35.0502 25.7288 35.3637 26.1893 35.4942 26.6783C35.6187 27.1456 35.5797 27.6684 35.462 28.1034C35.4028 28.107 35.3434 28.107 35.2842 28.1034C34.9242 28.0854 34.4112 27.9684 33.8142 27.7839C33.7092 27.7516 33.6044 27.7183 33.5 27.6841V27.6624L31.475 26.9056C31.109 26.7688 30.8107 26.4946 30.6438 26.1414C30.4768 25.7881 30.4543 25.3836 30.581 25.014L32.126 20.5138L32.1252 20.513Z" fill="white"/>
<path d="M41 15.0001C41 15.7958 40.6839 16.5589 40.1213 17.1216C39.5587 17.6842 38.7956 18.0003 38 18.0003C37.2044 18.0003 36.4413 17.6842 35.8787 17.1216C35.3161 16.5589 35 15.7958 35 15.0001C35 14.2044 35.3161 13.4414 35.8787 12.8787C36.4413 12.3161 37.2044 12 38 12C38.7956 12 39.5587 12.3161 40.1213 12.8787C40.6839 13.4414 41 14.2044 41 15.0001Z" fill="white"/>
<path fill-rule="evenodd" clip-rule="evenodd" d="M28.0415 20.2828C28.4443 19.8793 29.0525 19.5005 29.75 19.5005H30.5V21.0006H29.75C29.5903 21.0006 29.3412 21.1033 29.102 21.3433C29.0013 21.4425 28.9161 21.5563 28.8492 21.6808C28.8271 21.722 28.809 21.7652 28.7953 21.8098L28.7915 21.8241C28.8005 21.8391 28.8147 21.8608 28.8365 21.8901C28.919 21.9996 29.039 22.1211 29.2085 22.2914L29.2257 22.3086C29.3742 22.4571 29.5678 22.6499 29.7208 22.8539C29.8738 23.0579 30.0717 23.3812 30.0717 23.7862C30.0717 24.1357 29.8933 24.3885 29.7485 24.5377C29.6116 24.6722 29.4563 24.7866 29.2873 24.8775C29.057 25.0065 28.7638 25.1325 28.5073 25.2435L28.3362 25.317C28.0115 25.4595 27.7602 25.5818 27.5938 25.7033C27.5745 25.7171 27.5557 25.7316 27.5375 25.7468C27.62 25.8218 27.7475 25.8968 27.9748 26.0258L28.0032 26.0408C28.1975 26.1503 28.481 26.31 28.7097 26.5238C28.9767 26.7743 29.2145 27.1411 29.2145 27.6436C29.2145 28.4439 28.6865 28.9667 28.3955 29.2562L28.352 29.2989C28.0017 29.6492 27.9335 29.7617 27.929 29.8795C27.9357 29.8945 27.9597 29.9395 28.037 30.0145C28.1645 30.139 28.3603 30.2695 28.5988 30.3947C28.8953 30.5486 29.2044 30.6768 29.5227 30.778L29.5355 30.7825H29.5378L30.2555 30.9978L29.8242 32.4348L29.1057 32.2196L29.3127 31.5295L29.1057 32.2196H29.1042L29.102 32.2181L29.0945 32.2158L29.072 32.2083C28.9546 32.1717 28.8383 32.1317 28.7232 32.0883C28.442 31.9835 28.1675 31.8615 27.9012 31.723C27.6035 31.567 27.2645 31.357 26.99 31.0885C26.7222 30.8282 26.4283 30.4247 26.4283 29.8937C26.4283 29.0942 26.9563 28.5706 27.2473 28.2811L27.2907 28.2384C27.6485 27.8814 27.7123 27.7711 27.7145 27.6511C27.7051 27.6393 27.6948 27.6283 27.6837 27.6181C27.6012 27.5416 27.4737 27.4651 27.2397 27.3331C27.2302 27.3279 27.2207 27.3226 27.2112 27.3173C27.017 27.2086 26.7335 27.0488 26.5048 26.8351C26.2378 26.5846 26 26.2178 26 25.7153C26 25.1062 26.4095 24.7102 26.7102 24.4912C27.0252 24.2617 27.4175 24.0824 27.7355 23.9437L27.9553 23.8477C28.1383 23.7682 28.2927 23.7022 28.4232 23.6377C28.334 23.5403 28.2422 23.4452 28.148 23.3527L28.1315 23.3362C27.983 23.1869 27.7895 22.9941 27.6365 22.7901C27.4835 22.5861 27.2855 22.2629 27.2855 21.8578C27.2855 21.2541 27.6515 20.6728 28.0415 20.2828ZM48.4842 20.363C48.1947 19.9775 47.6787 19.5005 47 19.5005H46.25V21.0006H46.9902C46.9977 21.0028 47.0203 21.0111 47.0563 21.0351C47.1215 21.0786 47.2025 21.1551 47.2843 21.2631C47.4575 21.4948 47.5333 21.7371 47.5355 21.8511C47.5229 21.8938 47.5048 21.9347 47.4815 21.9726C47.3937 22.1172 47.2968 22.256 47.1912 22.3881C47.0788 22.5381 46.9333 22.7324 46.8185 22.9364C46.6992 23.1487 46.571 23.4412 46.571 23.7862C46.571 24.3382 46.9767 24.6765 47.1725 24.8235C47.3577 24.9622 47.5947 25.098 47.7868 25.2082L47.9075 25.278C48.149 25.419 48.3178 25.53 48.4258 25.635C48.4753 25.683 48.4932 25.7115 48.5007 25.725C48.5007 25.7805 48.4977 25.824 48.1572 26.079L48.1183 26.109C47.8175 26.3318 47.2145 26.7803 47.2145 27.6436C47.2145 28.3786 47.5888 28.8759 47.822 29.1857C47.8295 29.1969 47.8385 29.2082 47.8468 29.2187C48.0988 29.5547 48.1782 29.6912 48.1782 29.8937C48.1782 29.9185 48.1693 29.9822 48.083 30.0947C47.9713 30.2296 47.8404 30.3473 47.6945 30.4442C47.492 30.5847 47.2759 30.7046 47.0495 30.802L47.042 30.805H47.0413L46.3468 31.0825L46.9032 32.4761L47.6 32.1971L47.3218 31.501C47.6 32.1971 47.5992 32.1978 47.6 32.1971H47.6015L47.6038 32.1956L47.6105 32.1933L47.63 32.1851C47.7242 32.1459 47.8168 32.1028 47.9075 32.0561C48.08 31.9705 48.3155 31.8415 48.5555 31.6735C48.791 31.5085 49.058 31.2873 49.2717 31.009C49.487 30.7292 49.6782 30.3512 49.6782 29.8937C49.6782 29.1587 49.304 28.6614 49.0708 28.3516L49.0467 28.3186C48.794 27.9826 48.7145 27.8461 48.7145 27.6436V27.6361C48.7137 27.5791 48.713 27.5371 49.0573 27.2791L49.0962 27.2498C49.3962 27.0271 50 26.5786 50 25.7153C50 25.1962 49.733 24.8137 49.4712 24.5602C49.2185 24.3127 48.9042 24.1229 48.6635 23.9827C48.6056 23.9488 48.5476 23.915 48.4895 23.8814C48.3668 23.8134 48.2468 23.7409 48.1295 23.6639C48.2131 23.5282 48.3045 23.3975 48.4032 23.2724L48.416 23.2559C48.5285 23.1059 48.674 22.9116 48.7887 22.7076C48.908 22.4961 49.0363 22.2029 49.0363 21.8578C49.0363 21.3261 48.7887 20.7703 48.4842 20.363ZM47.999 23.5589C47.999 23.5589 48.0013 23.5627 48.0088 23.5702C48.006 23.566 48.0027 23.5622 47.999 23.5589ZM48.503 25.7325C48.503 25.7325 48.503 25.7303 48.5007 25.7265L48.503 25.7325Z" fill="white"/>
<path d="M11.9681 71V64.51H14.3681C15.1448 64.51 15.7398 64.6917 16.1531 65.055C16.5698 65.4183 16.7781 65.9 16.7781 66.5C16.7781 67.09 16.5698 67.5667 16.1531 67.93C15.7398 68.29 15.1448 68.47 14.3681 68.47H13.1481V71H11.9681ZM15.4781 71L13.7581 67.96H15.0181L17.0181 71H15.4781ZM13.1481 67.68H14.2481C14.6814 67.68 15.0098 67.5817 15.2331 67.385C15.4564 67.185 15.5681 66.9267 15.5681 66.61C15.5681 66.2867 15.4664 66.0267 15.2631 65.83C15.0598 65.63 14.7614 65.53 14.3681 65.53H13.1481V67.68ZM18.3936 71V64.51H22.5636V65.53H19.5736V67.24H22.3836V68.26H19.5736V69.97H22.5636V71H18.3936ZM24.2728 64.51H26.3728C27.0328 64.51 27.6111 64.6433 28.1078 64.91C28.6044 65.1733 28.9911 65.5483 29.2678 66.035C29.5444 66.5217 29.6828 67.0967 29.6828 67.76C29.6828 68.4167 29.5444 68.9883 29.2678 69.475C28.9911 69.9583 28.6044 70.3333 28.1078 70.6C27.6111 70.8667 27.0328 71 26.3728 71H24.2728V64.51ZM25.4528 65.58V69.94H26.3728C26.7928 69.94 27.1544 69.845 27.4578 69.655C27.7644 69.465 27.9994 69.2067 28.1628 68.88C28.3294 68.55 28.4128 68.1767 28.4128 67.76C28.4128 67.3367 28.3294 66.9617 28.1628 66.635C27.9994 66.3083 27.7644 66.0517 27.4578 65.865C27.1544 65.675 26.7928 65.58 26.3728 65.58H25.4528ZM31.038 64.51H32.218V68.55C32.218 69.0833 32.353 69.4683 32.623 69.705C32.8963 69.9417 33.2447 70.06 33.668 70.06C34.0947 70.06 34.443 69.9417 34.713 69.705C34.983 69.4683 35.118 69.0833 35.118 68.55V64.51H36.298V68.55C36.298 69.0967 36.193 69.5633 35.983 69.95C35.773 70.3367 35.4713 70.6317 35.078 70.835C34.688 71.0383 34.218 71.14 33.668 71.14C33.118 71.14 32.6463 71.0383 32.253 70.835C31.863 70.6317 31.563 70.3367 31.353 69.95C31.143 69.5633 31.038 69.0967 31.038 68.55V64.51ZM40.4023 71.14C39.8323 71.14 39.3356 71.005 38.9123 70.735C38.4923 70.4617 38.1656 70.0717 37.9323 69.565C37.699 69.0583 37.5823 68.45 37.5823 67.74C37.5823 67.0067 37.7023 66.3917 37.9423 65.895C38.1856 65.395 38.519 65.0183 38.9423 64.765C39.369 64.5083 39.8556 64.38 40.4023 64.38C41.159 64.38 41.749 64.5633 42.1723 64.93C42.599 65.2967 42.8723 65.7733 42.9923 66.36L41.7323 66.59C41.629 66.25 41.464 65.975 41.2373 65.765C41.0106 65.555 40.7323 65.45 40.4023 65.45C40.1123 65.45 39.8506 65.535 39.6173 65.705C39.384 65.8717 39.1973 66.125 39.0573 66.465C38.9206 66.805 38.8523 67.23 38.8523 67.74C38.8523 68.22 38.9123 68.6333 39.0323 68.98C39.1556 69.3267 39.3323 69.5933 39.5623 69.78C39.7923 69.9667 40.0723 70.06 40.4023 70.06C40.8256 70.06 41.1523 69.9483 41.3823 69.725C41.6156 69.4983 41.7323 69.21 41.7323 68.86H42.9923C42.9923 69.3433 42.8873 69.755 42.6773 70.095C42.4706 70.4317 42.174 70.69 41.7873 70.87C41.4006 71.05 40.939 71.14 40.4023 71.14ZM44.3802 71V64.51H45.5602V71H44.3802ZM47.4071 64.51H48.6971L51.6471 69.14H51.5571V64.51H52.7371V71H51.5371L48.3971 66.09H48.5871V71H47.4071V64.51ZM56.965 71.14C56.435 71.14 55.9567 71 55.53 70.72C55.1034 70.44 54.7634 70.05 54.51 69.55C54.26 69.0467 54.135 68.46 54.135 67.79C54.135 67.26 54.2117 66.785 54.365 66.365C54.5217 65.945 54.7384 65.5867 55.015 65.29C55.2917 64.9933 55.6167 64.7683 55.99 64.615C56.3634 64.4583 56.7684 64.38 57.205 64.38C57.8117 64.38 58.32 64.5117 58.73 64.775C59.1434 65.0383 59.465 65.4533 59.695 66.02L58.485 66.3C58.315 66.0233 58.1184 65.8133 57.895 65.67C57.675 65.5233 57.425 65.45 57.145 65.45C56.825 65.45 56.5334 65.545 56.27 65.735C56.0067 65.9217 55.7967 66.19 55.64 66.54C55.4834 66.89 55.405 67.3067 55.405 67.79C55.405 68.2433 55.4734 68.64 55.61 68.98C55.75 69.32 55.945 69.585 56.195 69.775C56.445 69.965 56.735 70.06 57.065 70.06C57.345 70.06 57.595 69.9983 57.815 69.875C58.0384 69.7483 58.2134 69.5683 58.34 69.335C58.47 69.1017 58.535 68.82 58.535 68.49H58.795C58.795 69.03 58.73 69.4983 58.6 69.895C58.4734 70.2917 58.275 70.5983 58.005 70.815C57.735 71.0317 57.3884 71.14 56.965 71.14ZM58.705 71L58.535 69.57V68.45L57.075 68.42V67.67H59.665V71H58.705ZM21.816 87.14C21.366 87.14 20.951 87.0617 20.571 86.905C20.1943 86.7483 19.8876 86.51 19.651 86.19C19.4176 85.87 19.2926 85.4633 19.276 84.97H20.436C20.436 85.22 20.4976 85.425 20.621 85.585C20.7443 85.745 20.9093 85.865 21.116 85.945C21.326 86.0217 21.556 86.06 21.806 86.06C22.046 86.06 22.2593 86.0283 22.446 85.965C22.636 85.9017 22.7843 85.8117 22.891 85.695C23.001 85.575 23.056 85.4333 23.056 85.27C23.056 85.0533 22.9893 84.8833 22.856 84.76C22.726 84.6367 22.516 84.5233 22.226 84.42L20.946 83.91C20.446 83.7133 20.0626 83.485 19.796 83.225C19.5293 82.965 19.396 82.6067 19.396 82.15C19.396 81.6233 19.6043 81.1967 20.021 80.87C20.4376 80.5433 21.0193 80.38 21.766 80.38C22.4926 80.38 23.0543 80.55 23.451 80.89C23.8476 81.2267 24.0726 81.6967 24.126 82.3H22.966C22.9226 82.0433 22.806 81.8383 22.616 81.685C22.426 81.5283 22.1426 81.45 21.766 81.45C21.4326 81.45 21.1693 81.52 20.976 81.66C20.7826 81.7967 20.686 81.97 20.686 82.18C20.686 82.36 20.746 82.5033 20.866 82.61C20.9893 82.7133 21.1793 82.8133 21.436 82.91L22.856 83.46C23.336 83.6467 23.7043 83.8817 23.961 84.165C24.2176 84.4483 24.346 84.8033 24.346 85.23C24.346 85.62 24.2476 85.9583 24.051 86.245C23.8543 86.5283 23.5676 86.7483 23.191 86.905C22.8143 87.0617 22.356 87.14 21.816 87.14ZM25.0629 81.53V80.51H30.2629V81.53H27.9879L28.2529 81.26V87H27.0729V81.26L27.3379 81.53H25.0629ZM31.2454 87V80.51H33.6454C34.4221 80.51 35.0171 80.6917 35.4304 81.055C35.8471 81.4183 36.0554 81.9 36.0554 82.5C36.0554 83.09 35.8471 83.5667 35.4304 83.93C35.0171 84.29 34.4221 84.47 33.6454 84.47H32.4254V87H31.2454ZM34.7554 87L33.0354 83.96H34.2954L36.2954 87H34.7554ZM32.4254 83.68H33.5254C33.9588 83.68 34.2871 83.5817 34.5104 83.385C34.7338 83.185 34.8454 82.9267 34.8454 82.61C34.8454 82.2867 34.7438 82.0267 34.5404 81.83C34.3371 81.63 34.0388 81.53 33.6454 81.53H32.4254V83.68ZM37.671 87V80.51H41.841V81.53H38.851V83.24H41.661V84.26H38.851V85.97H41.841V87H37.671ZM45.8101 87.14C45.3601 87.14 44.9451 87.0617 44.5651 86.905C44.1885 86.7483 43.8818 86.51 43.6451 86.19C43.4118 85.87 43.2868 85.4633 43.2701 84.97H44.4301C44.4301 85.22 44.4918 85.425 44.6151 85.585C44.7385 85.745 44.9035 85.865 45.1101 85.945C45.3201 86.0217 45.5501 86.06 45.8001 86.06C46.0401 86.06 46.2535 86.0283 46.4401 85.965C46.6301 85.9017 46.7785 85.8117 46.8851 85.695C46.9951 85.575 47.0501 85.4333 47.0501 85.27C47.0501 85.0533 46.9835 84.8833 46.8501 84.76C46.7201 84.6367 46.5101 84.5233 46.2201 84.42L44.9401 83.91C44.4401 83.7133 44.0568 83.485 43.7901 83.225C43.5235 82.965 43.3901 82.6067 43.3901 82.15C43.3901 81.6233 43.5985 81.1967 44.0151 80.87C44.4318 80.5433 45.0135 80.38 45.7601 80.38C46.4868 80.38 47.0485 80.55 47.4451 80.89C47.8418 81.2267 48.0668 81.6967 48.1201 82.3H46.9601C46.9168 82.0433 46.8001 81.8383 46.6101 81.685C46.4201 81.5283 46.1368 81.45 45.7601 81.45C45.4268 81.45 45.1635 81.52 44.9701 81.66C44.7768 81.7967 44.6801 81.97 44.6801 82.18C44.6801 82.36 44.7401 82.5033 44.8601 82.61C44.9835 82.7133 45.1735 82.8133 45.4301 82.91L46.8501 83.46C47.3301 83.6467 47.6985 83.8817 47.9551 84.165C48.2118 84.4483 48.3401 84.8033 48.3401 85.23C48.3401 85.62 48.2418 85.9583 48.0451 86.245C47.8485 86.5283 47.5618 86.7483 47.1851 86.905C46.8085 87.0617 46.3501 87.14 45.8101 87.14ZM52.1871 87.14C51.7371 87.14 51.3221 87.0617 50.9421 86.905C50.5654 86.7483 50.2587 86.51 50.0221 86.19C49.7887 85.87 49.6637 85.4633 49.6471 84.97H50.8071C50.8071 85.22 50.8687 85.425 50.9921 85.585C51.1154 85.745 51.2804 85.865 51.4871 85.945C51.6971 86.0217 51.9271 86.06 52.1771 86.06C52.4171 86.06 52.6304 86.0283 52.8171 85.965C53.0071 85.9017 53.1554 85.8117 53.2621 85.695C53.3721 85.575 53.4271 85.4333 53.4271 85.27C53.4271 85.0533 53.3604 84.8833 53.2271 84.76C53.0971 84.6367 52.8871 84.5233 52.5971 84.42L51.3171 83.91C50.8171 83.7133 50.4337 83.485 50.1671 83.225C49.9004 82.965 49.7671 82.6067 49.7671 82.15C49.7671 81.6233 49.9754 81.1967 50.3921 80.87C50.8087 80.5433 51.3904 80.38 52.1371 80.38C52.8637 80.38 53.4254 80.55 53.8221 80.89C54.2187 81.2267 54.4437 81.6967 54.4971 82.3H53.3371C53.2937 82.0433 53.1771 81.8383 52.9871 81.685C52.7971 81.5283 52.5137 81.45 52.1371 81.45C51.8037 81.45 51.5404 81.52 51.3471 81.66C51.1537 81.7967 51.0571 81.97 51.0571 82.18C51.0571 82.36 51.1171 82.5033 51.2371 82.61C51.3604 82.7133 51.5504 82.8133 51.8071 82.91L53.2271 83.46C53.7071 83.6467 54.0754 83.8817 54.3321 84.165C54.5887 84.4483 54.7171 84.8033 54.7171 85.23C54.7171 85.62 54.6187 85.9583 54.4221 86.245C54.2254 86.5283 53.9387 86.7483 53.5621 86.905C53.1854 87.0617 52.7271 87.14 52.1871 87.14Z" fill="black"/>
</svg>
