<svg width="19" height="18" viewBox="0 0 19 18" fill="none" xmlns="http://www.w3.org/2000/svg">
<path d="M18.5866 6.9C17.6266 2.94 14.0866 0 9.82658 0H9.52658V6.9H18.5866ZM5.32659 1.2C3.22659 2.43 1.66659 4.47 1.06659 6.9H5.32659V1.2ZM1.06659 11.1C1.66659 13.53 3.22659 15.57 5.32659 16.8V11.1H1.06659ZM9.52658 18H9.82658C14.0866 18 17.6266 15.06 18.5866 11.1H9.52658V18Z" fill="#428BC1"/>
<path d="M18.5867 6.9H9.52666V0C7.99666 0.06 6.55666 0.48 5.32666 1.2V6.9H1.06666C0.91666 7.56 0.82666 8.28 0.82666 9C0.82666 9.72 0.91666 10.44 1.06666 11.1H5.32666V16.8C6.55666 17.52 7.99666 17.94 9.52666 18V11.1H18.5867C18.7367 10.44 18.8267 9.72 18.8267 9C18.8267 8.28 18.7367 7.56 18.5867 6.9Z" fill="#FFE62E"/>
</svg>
