<svg width="60" height="60" viewBox="0 0 60 60" fill="none" xmlns="http://www.w3.org/2000/svg">
<rect width="60" height="60" rx="5" fill="#001E4E"/>
<path d="M17.84 49.12C17.4267 49.12 17.0583 49.035 16.735 48.865C16.415 48.695 16.1617 48.4617 15.975 48.165C15.7917 47.865 15.7 47.5233 15.7 47.14H16.51C16.52 47.5233 16.64 47.83 16.87 48.06C17.1033 48.2867 17.42 48.4 17.82 48.4C18.2133 48.4 18.5317 48.2867 18.775 48.06C19.0217 47.8333 19.2017 47.5133 19.315 47.1C19.4317 46.6833 19.49 46.1933 19.49 45.63C19.49 45.5 19.4867 45.38 19.48 45.27C19.4733 45.1567 19.46 45.03 19.44 44.89C19.3967 45.25 19.2933 45.55 19.13 45.79C18.9667 46.0267 18.7567 46.205 18.5 46.325C18.2467 46.4417 17.96 46.5 17.64 46.5C17.2667 46.5 16.93 46.4167 16.63 46.25C16.3333 46.08 16.0967 45.8483 15.92 45.555C15.7467 45.2583 15.66 44.92 15.66 44.54C15.66 44.15 15.7483 43.81 15.925 43.52C16.105 43.23 16.355 43.0067 16.675 42.85C16.995 42.69 17.3667 42.61 17.79 42.61C18.15 42.61 18.4817 42.6833 18.785 42.83C19.0917 42.9767 19.3567 43.1883 19.58 43.465C19.8033 43.7383 19.9767 44.0667 20.1 44.45C20.2267 44.8333 20.29 45.2633 20.29 45.74C20.29 46.43 20.2017 47.0283 20.025 47.535C19.8517 48.0417 19.5833 48.4333 19.22 48.71C18.86 48.9833 18.4 49.12 17.84 49.12ZM17.79 45.81C18.0367 45.81 18.26 45.755 18.46 45.645C18.66 45.535 18.8183 45.3867 18.935 45.2C19.0517 45.0133 19.11 44.8033 19.11 44.57C19.11 44.1833 18.9817 43.8783 18.725 43.655C18.4717 43.4317 18.16 43.32 17.79 43.32C17.41 43.32 17.095 43.4317 16.845 43.655C16.595 43.8783 16.47 44.1833 16.47 44.57C16.47 44.9533 16.595 45.2567 16.845 45.48C17.095 45.7 17.41 45.81 17.79 45.81ZM23.7708 49.12C23.2774 49.12 22.8458 49 22.4758 48.76C22.1091 48.52 21.8224 48.1583 21.6158 47.675C21.4124 47.1917 21.3108 46.5867 21.3108 45.86C21.3108 45.1333 21.4124 44.53 21.6158 44.05C21.8224 43.5667 22.1091 43.2067 22.4758 42.97C22.8458 42.73 23.2774 42.61 23.7708 42.61C24.2608 42.61 24.6908 42.73 25.0608 42.97C25.4308 43.2067 25.7174 43.5667 25.9208 44.05C26.1274 44.53 26.2308 45.1333 26.2308 45.86C26.2308 46.5867 26.1274 47.1917 25.9208 47.675C25.7174 48.1583 25.4308 48.52 25.0608 48.76C24.6908 49 24.2608 49.12 23.7708 49.12ZM23.7708 48.4C24.3108 48.4 24.7208 48.18 25.0008 47.74C25.2808 47.2967 25.4208 46.67 25.4208 45.86C25.4208 45.05 25.2808 44.425 25.0008 43.985C24.7208 43.5417 24.3108 43.32 23.7708 43.32C23.2374 43.32 22.8291 43.5417 22.5458 43.985C22.2624 44.425 22.1208 45.05 22.1208 45.86C22.1208 46.67 22.2624 47.2967 22.5458 47.74C22.8291 48.18 23.2374 48.4 23.7708 48.4ZM31.8413 49.12C31.378 49.12 30.9913 49.055 30.6813 48.925C30.3713 48.7917 30.1363 48.61 29.9763 48.38C29.8163 48.1467 29.7313 47.88 29.7213 47.58H30.4713C30.488 47.8833 30.6097 48.1117 30.8363 48.265C31.0663 48.415 31.378 48.49 31.7713 48.49C31.978 48.49 32.168 48.4567 32.3413 48.39C32.5147 48.3233 32.653 48.2317 32.7563 48.115C32.8597 47.9983 32.9113 47.8667 32.9113 47.72C32.9113 47.5333 32.843 47.3867 32.7063 47.28C32.5697 47.1733 32.3513 47.08 32.0513 47L31.1213 46.7C30.718 46.5733 30.408 46.4 30.1913 46.18C29.978 45.9567 29.8713 45.69 29.8713 45.38C29.8713 44.9933 30.0413 44.6833 30.3813 44.45C30.7213 44.2167 31.168 44.1 31.7213 44.1C32.308 44.1 32.763 44.22 33.0863 44.46C33.4097 44.7 33.578 45 33.5913 45.36H32.8213C32.7913 45.15 32.6847 44.9917 32.5013 44.885C32.318 44.775 32.058 44.72 31.7213 44.72C31.398 44.72 31.1447 44.7933 30.9613 44.94C30.7813 45.0833 30.6913 45.2433 30.6913 45.42C30.6913 45.75 30.9747 45.9933 31.5413 46.15L32.4913 46.47C32.9013 46.5933 33.2147 46.755 33.4313 46.955C33.6513 47.155 33.7613 47.41 33.7613 47.72C33.7613 47.96 33.683 48.1867 33.5263 48.4C33.3697 48.6133 33.148 48.7867 32.8613 48.92C32.5747 49.0533 32.2347 49.12 31.8413 49.12ZM37.0352 49.12C36.6219 49.12 36.2519 49.015 35.9252 48.805C35.6019 48.5917 35.3452 48.2967 35.1552 47.92C34.9686 47.5433 34.8752 47.11 34.8752 46.62C34.8752 46.0967 34.9686 45.6467 35.1552 45.27C35.3419 44.8933 35.5969 44.605 35.9202 44.405C36.2469 44.2017 36.6186 44.1 37.0352 44.1C37.3986 44.1 37.7086 44.1733 37.9652 44.32C38.2219 44.4667 38.4286 44.665 38.5852 44.915C38.7419 45.165 38.8502 45.4483 38.9102 45.765C38.9736 46.0783 38.9919 46.4033 38.9652 46.74H35.5052V46.26H38.4502L38.2202 46.41C38.2302 46.2133 38.2186 46.0167 38.1852 45.82C38.1552 45.6233 38.0969 45.4433 38.0102 45.28C37.9236 45.1133 37.8019 44.98 37.6452 44.88C37.4886 44.78 37.2886 44.73 37.0452 44.73C36.7386 44.73 36.4819 44.8083 36.2752 44.965C36.0686 45.1217 35.9136 45.3283 35.8102 45.585C35.7069 45.8383 35.6552 46.1133 35.6552 46.41V46.73C35.6552 47.0633 35.7052 47.3617 35.8052 47.625C35.9086 47.8883 36.0619 48.0967 36.2652 48.25C36.4686 48.4033 36.7252 48.48 37.0352 48.48C37.3452 48.48 37.6002 48.405 37.8002 48.255C38.0002 48.105 38.1219 47.8833 38.1652 47.59H38.9752C38.9252 47.9067 38.8119 48.18 38.6352 48.41C38.4586 48.6367 38.2336 48.8117 37.9602 48.935C37.6869 49.0583 37.3786 49.12 37.0352 49.12ZM42.192 49.12C41.8086 49.12 41.4503 49.0167 41.117 48.81C40.787 48.6033 40.5203 48.3117 40.317 47.935C40.1136 47.5583 40.012 47.1133 40.012 46.6C40.012 46.0733 40.1136 45.6233 40.317 45.25C40.5203 44.8767 40.787 44.5917 41.117 44.395C41.4503 44.1983 41.8086 44.1 42.192 44.1C42.462 44.1 42.7036 44.1417 42.917 44.225C43.1336 44.305 43.322 44.4167 43.482 44.56C43.642 44.7033 43.7736 44.8667 43.877 45.05C43.9836 45.23 44.062 45.42 44.112 45.62L43.312 45.69C43.2286 45.4133 43.0886 45.195 42.892 45.035C42.6986 44.8717 42.462 44.79 42.182 44.79C41.9453 44.79 41.722 44.8583 41.512 44.995C41.3053 45.1283 41.137 45.33 41.007 45.6C40.877 45.8667 40.812 46.2 40.812 46.6C40.812 46.97 40.8703 47.2917 40.987 47.565C41.107 47.835 41.2703 48.045 41.477 48.195C41.6836 48.345 41.9186 48.42 42.182 48.42C42.552 48.42 42.832 48.33 43.022 48.15C43.2153 47.9667 43.312 47.7133 43.312 47.39H44.112C44.112 47.7233 44.0336 48.02 43.877 48.28C43.7203 48.54 43.497 48.745 43.207 48.895C42.9203 49.045 42.582 49.12 42.192 49.12Z" fill="white"/>
<path d="M30 14C24.486 14 20 18.486 20 24C20 29.514 24.486 34 30 34C35.514 34 40 29.514 40 24C40 18.486 35.514 14 30 14ZM30 32C25.589 32 22 28.411 22 24C22 19.589 25.589 16 30 16C34.411 16 38 19.589 38 24C38 28.411 34.411 32 30 32Z" fill="white"/>
<path d="M31 19H29V24.414L32.293 27.707L33.707 26.293L31 23.586V19Z" fill="white"/>
</svg>
